<?xml version="1.0" encoding="utf-8"?>
<!-- Svg Vector Icons : http://www.onlinewebfonts.com/icon -->
<!DOCTYPE svg PUBLIC "-//W3C//DTD SVG 1.1//EN" "http://www.w3.org/Graphics/SVG/1.1/DTD/svg11.dtd">
<svg version="1.1" xmlns="http://www.w3.org/2000/svg" xmlns:xlink="http://www.w3.org/1999/xlink" x="0px" y="0px" viewBox="0 0 1000 1000" enable-background="new 0 0 1000 1000" xml:space="preserve">
<metadata> Svg Vector Icons : http://www.onlinewebfonts.com/icon </metadata>
<g><g transform="translate(0.000000,509.000000) scale(0.100000,-0.100000)"><path d="M100,90v-4900h4900h4900V90v4900H5000H100V90z M1698,927.5v-3773.7h-77h-77v86.6c0,98.2-38.5,190.6-86.6,209.9c-65.5,25-152.1,11.5-196.4-30.8c-36.6-34.6-44.3-61.6-44.3-154v-111.7h-86.6h-86.6v594.9v596.9l-46.2,52c-63.5,75.1-171.4,75.1-234.9,0l-46.2-52v-596.9v-594.9H552.5H388.8V927.5v3773.7h654.6H1698V927.5z M9591.9,4046.6V3392H5818.3H2044.6v77v77h184.8c177.1,0,186.8,1.9,240.7,55.8c71.2,73.2,75.1,157.9,7.7,223.3c-42.4,44.3-59.7,48.1-240.7,48.1h-192.5v86.6v86.6h267.6c252.2,0,271.5,1.9,317.7,44.3c73.2,65.5,75.1,163.7,1.9,234.9c-44.3,46.2-55.8,48.1-317.7,48.1h-269.5v163.7v163.7h3773.7h3773.7V4046.6z M2352.7,99.6v-2967l-157.9,5.8l-159.8,5.8l-5.8,2936.2c-1.9,1615.4,0,2947.7,5.8,2961.2c5.8,15.4,57.8,23.1,163.7,23.1h154V99.6z M7945.8,99.6v-2955.4l-157.9-5.8l-159.8-5.8v2967v2967l159.8-5.8l157.9-5.8V99.6z M4008.4,99.6v-2945.8h-654.6h-654.6V99.6v2945.8h654.6h654.6V99.6z M5645,99.6v-2945.8h-654.6h-654.6V99.6v2945.8h654.6H5645V99.6z M7281.5,99.6v-2945.8h-654.6h-654.6V99.6v2945.8h654.6h654.6V99.6z M8610,2606.4c0-431.3,0-440.9,44.3-479.4c23.1-21.2,57.8-44.3,77-50.1c53.9-19.3,165.6,36.6,186.8,92.4c11.5,28.9,19.2,236.8,19.2,464v412h77h77v-250.3c0-284.9,19.2-348.5,115.5-381.2c67.4-25,107.8-15.4,169.4,40.4c40.4,36.6,42.4,53.9,42.4,315.8v275.3h86.6h86.6V-728.3v-3773.7h-654.6h-654.6v3773.7v3773.7h163.7H8610V2606.4z M7936.2-3356.4V-3520h-439c-431.3,0-440.9,0-479.4-42.4c-21.2-25-46.2-63.5-52-86.6c-17.3-57.8,36.6-155.9,96.3-179.1c27-11.5,234.9-19.2,462.1-19.2h412v-77v-77h-250.3c-285,0-348.5-19.2-381.2-115.5c-25-67.4-15.4-107.8,40.4-167.5c36.6-42.4,53.9-44.3,315.8-44.3h275.3v-86.6v-86.6H4162.5H388.8v654.6v654.6h3773.7h3773.7V-3356.4z"/><path d="M644.9,4354.6c-92.4-36.6-111.7-182.9-34.7-259.9c98.2-100.1,267.6-27,267.6,115.5C877.8,4331.5,764.2,4402.8,644.9,4354.6z"/><path d="M1303.3,4350.8c-150.2-80.9-94.3-304.2,75.1-304.2c50.1,0,77,13.5,115.5,59.7c65.5,77,63.5,142.5-5.8,211.8C1428.5,4375.8,1368.8,4387.4,1303.3,4350.8z"/><path d="M648.7,3696.2c-98.2-52-119.4-188.7-42.4-261.8c129-121.3,335,32.7,254.2,188.7C816.2,3707.7,725.7,3738.5,648.7,3696.2z"/><path d="M1278.3,3671.1c-148.3-125.2-5.8-336.9,179.1-267.6c84.7,32.7,104,198.3,30.8,265.7C1424.6,3727,1345.7,3727,1278.3,3671.1z"/><path d="M8325.1,4483.6c-121.3-129,32.7-335,188.7-254.1c154,78.9,100.1,298.4-73.2,298.4C8388.6,4527.9,8354,4514.4,8325.1,4483.6z"/><path d="M8977.8,4477.9c-90.5-113.6-17.3-265.7,127.1-265.7c77,0,159.8,75.1,159.8,144.4c0,53.9-50,144.4-86.6,159.8C9102.9,4545.2,9018.2,4527.9,8977.8,4477.9z"/><path d="M8330.8,3825.2c-78.9-77-63.5-202.2,32.7-252.2c104-53.9,213.7,1.9,238.7,119.4c7.7,46.2,0,71.2-40.4,119.4C8496.4,3890.6,8400.1,3896.4,8330.8,3825.2z"/><path d="M8985.5,3825.2c-71.2-69.3-65.5-165.6,11.5-229.1c77-65.5,142.5-63.5,211.8,5.8c61.6,63.5,69.3,111.7,27,192.5C9187.6,3888.7,9062.5,3904.1,8985.5,3825.2z"/><path d="M8517.6-3206.2c-42.4-17.3-84.7-121.3-71.2-179.1c15.4-67.4,63.5-111.7,136.7-127.1c84.7-17.3,181,67.4,181,157.9C8764-3235.1,8637-3158.1,8517.6-3206.2z"/><path d="M9153-3231.2c-86.6-80.9-65.5-215.6,40.4-265.7c109.7-53.9,225.3,23.1,225.3,146.3C9418.7-3212,9253.1-3136.9,9153-3231.2z"/><path d="M8498.3-3885.8c-88.6-82.8-71.2-206,36.6-267.6c98.2-55.8,229.1,27,229.1,146.3C8764-3872.4,8596.5-3795.3,8498.3-3885.8z"/><path d="M9149.1-3895.5c-65.5-71.2-63.5-173.3,7.7-233c28.9-25,69.3-46.2,90.5-46.2c53.9,0,144.4,50,159.8,86.6C9472.6-3912.8,9272.3-3764.5,9149.1-3895.5z"/><path d="M771.9-3402.6c-61.6-63.5-69.3-111.7-27-192.5c73.2-144.4,298.4-82.8,298.4,82.8c0,50.1-13.5,77-59.7,115.5C906.7-3331.3,841.3-3333.3,771.9-3402.6z"/><path d="M1440-3389.1c-77-67.4-82.8-150.2-21.2-223.3c125.1-148.3,336.9-5.8,267.6,179.1c-15.4,36.6-105.9,86.6-159.8,86.6C1505.5-3346.7,1467-3366,1440-3389.1z"/><path d="M818.1-4020.6c-107.8-44.3-130.9-213.7-38.5-279.2c104-73.2,263.8,0,263.8,123.2C1043.4-4066.8,916.3-3980.2,818.1-4020.6z"/><path d="M1467-4026.4c-154-79-98.2-302.3,75.1-302.3c150.2,0,211.8,179.1,96.3,277.3C1572.9-3995.6,1538.2-3989.8,1467-4026.4z"/></g></g>
</svg>