<?xml version="1.0" encoding="UTF-8" standalone="no"?>
<!-- Created with Inkscape (http://www.inkscape.org/) -->

<svg
   xmlns:dc="http://purl.org/dc/elements/1.1/"
   xmlns:cc="http://creativecommons.org/ns#"
   xmlns:rdf="http://www.w3.org/1999/02/22-rdf-syntax-ns#"
   xmlns:svg="http://www.w3.org/2000/svg"
   xmlns="http://www.w3.org/2000/svg"
   xmlns:sodipodi="http://sodipodi.sourceforge.net/DTD/sodipodi-0.dtd"
   xmlns:inkscape="http://www.inkscape.org/namespaces/inkscape"
   width="228.68262mm"
   height="338.77777mm"
   viewBox="0 0 810.29275 1200.3937"
   id="svg8537"
   version="1.1"
   inkscape:version="0.91 r13725"
   sodipodi:docname="multisys_distributed.svg">
  <defs
     id="defs8539">
    <marker
       inkscape:isstock="true"
       style="overflow:visible"
       id="marker5325"
       refX="0"
       refY="0"
       orient="auto"
       inkscape:stockid="TriangleOutM">
      <path
         inkscape:connector-curvature="0"
         transform="scale(0.4,0.4)"
         style="fill:#363636;fill-opacity:1;fill-rule:evenodd;stroke:#363636;stroke-width:1pt;stroke-opacity:1"
         d="m 5.77,0 -8.65,5 0,-10 8.65,5 z"
         id="path5327" />
    </marker>
    <marker
       inkscape:stockid="TriangleOutM"
       orient="auto"
       refY="0"
       refX="0"
       id="marker5229"
       style="overflow:visible"
       inkscape:isstock="true">
      <path
         id="path5231"
         d="m 5.77,0 -8.65,5 0,-10 8.65,5 z"
         style="fill:#363636;fill-opacity:1;fill-rule:evenodd;stroke:#363636;stroke-width:1pt;stroke-opacity:1"
         transform="scale(0.4,0.4)"
         inkscape:connector-curvature="0" />
    </marker>
    <marker
       inkscape:stockid="TriangleOutM"
       orient="auto"
       refY="0"
       refX="0"
       id="TriangleOutM"
       style="overflow:visible"
       inkscape:isstock="true">
      <path
         id="path13248"
         d="m 5.77,0 -8.65,5 0,-10 8.65,5 z"
         style="fill-rule:evenodd;stroke:#000000;stroke-width:1pt"
         transform="scale(0.4,0.4)"
         inkscape:connector-curvature="0" />
    </marker>
    <marker
       inkscape:isstock="true"
       style="overflow:visible"
       id="marker16027"
       refX="0"
       refY="0"
       orient="auto"
       inkscape:stockid="TriangleOutM">
      <path
         inkscape:connector-curvature="0"
         transform="scale(0.4,0.4)"
         style="fill:#363636;fill-opacity:1;fill-rule:evenodd;stroke:#363636;stroke-width:1pt;stroke-opacity:1"
         d="m 5.77,0 -8.65,5 0,-10 8.65,5 z"
         id="path16029" />
    </marker>
    <marker
       inkscape:isstock="true"
       style="overflow:visible"
       id="marker15951"
       refX="0"
       refY="0"
       orient="auto"
       inkscape:stockid="TriangleOutM">
      <path
         inkscape:connector-curvature="0"
         transform="scale(0.4,0.4)"
         style="fill:#363636;fill-opacity:1;fill-rule:evenodd;stroke:#363636;stroke-width:1pt;stroke-opacity:1"
         d="m 5.77,0 -8.65,5 0,-10 8.65,5 z"
         id="path15953" />
    </marker>
    <marker
       inkscape:stockid="TriangleOutM"
       orient="auto"
       refY="0"
       refX="0"
       id="marker15293"
       style="overflow:visible"
       inkscape:isstock="true">
      <path
         id="path15295"
         d="m 5.77,0 -8.65,5 0,-10 8.65,5 z"
         style="fill:#363636;fill-opacity:1;fill-rule:evenodd;stroke:#363636;stroke-width:1pt;stroke-opacity:1"
         transform="scale(0.4,0.4)"
         inkscape:connector-curvature="0" />
    </marker>
    <marker
       inkscape:isstock="true"
       style="overflow:visible"
       id="marker15229"
       refX="0"
       refY="0"
       orient="auto"
       inkscape:stockid="TriangleInM">
      <path
         transform="scale(-0.4,-0.4)"
         style="fill:#363636;fill-opacity:1;fill-rule:evenodd;stroke:#363636;stroke-width:1pt;stroke-opacity:1"
         d="m 5.77,0 -8.65,5 0,-10 8.65,5 z"
         id="path15231"
         inkscape:connector-curvature="0" />
    </marker>
    <marker
       inkscape:isstock="true"
       style="overflow:visible"
       id="marker13791"
       refX="0"
       refY="0"
       orient="auto"
       inkscape:stockid="TriangleOutM">
      <path
         inkscape:connector-curvature="0"
         transform="scale(0.4,0.4)"
         style="fill:#363636;fill-opacity:1;fill-rule:evenodd;stroke:#363636;stroke-width:1pt;stroke-opacity:1"
         d="m 5.77,0 -8.65,5 0,-10 8.65,5 z"
         id="path13793" />
    </marker>
    <marker
       inkscape:isstock="true"
       style="overflow:visible"
       id="marker13581"
       refX="0"
       refY="0"
       orient="auto"
       inkscape:stockid="TriangleOutM">
      <path
         inkscape:connector-curvature="0"
         transform="scale(0.4,0.4)"
         style="fill:#363636;fill-opacity:1;fill-rule:evenodd;stroke:#363636;stroke-width:1pt;stroke-opacity:1"
         d="m 5.77,0 -8.65,5 0,-10 8.65,5 z"
         id="path13583" />
    </marker>
  </defs>
  <sodipodi:namedview
     id="base"
     pagecolor="#ffffff"
     bordercolor="#666666"
     borderopacity="1.0"
     inkscape:pageopacity="0.0"
     inkscape:pageshadow="2"
     inkscape:zoom="0.35"
     inkscape:cx="-88.835387"
     inkscape:cy="550.68247"
     inkscape:document-units="px"
     inkscape:current-layer="layer1"
     showgrid="false"
     fit-margin-top="0"
     fit-margin-left="0"
     fit-margin-right="0"
     fit-margin-bottom="0"
     inkscape:window-width="1855"
     inkscape:window-height="1056"
     inkscape:window-x="65"
     inkscape:window-y="24"
     inkscape:window-maximized="1" />
  <metadata
     id="metadata8542">
    <rdf:RDF>
      <cc:Work
         rdf:about="">
        <dc:format>image/svg+xml</dc:format>
        <dc:type
           rdf:resource="http://purl.org/dc/dcmitype/StillImage" />
        <dc:title />
      </cc:Work>
    </rdf:RDF>
  </metadata>
  <g
     inkscape:label="Layer 1"
     inkscape:groupmode="layer"
     id="layer1"
     transform="translate(337.75944,-145.93356)">
    <g
       id="g14045"
       transform="matrix(0,1,-1,0,933.51738,569.67857)" />
    <rect
       style="opacity:0.98999999;fill:#000000;fill-opacity:0;stroke:#363636;stroke-width:7.08661509;stroke-linecap:round;stroke-linejoin:round;stroke-miterlimit:4;stroke-dasharray:none;stroke-dashoffset:0;stroke-opacity:1"
       id="rect8083"
       width="342.91339"
       height="342.91339"
       x="126.07659"
       y="149.47685"
       ry="44.374783" />
    <path
       style="fill:#185daf;fill-opacity:0.99215686"
       d="m 214.94882,439.71748 c -0.28527,-0.09 -2.16241,-0.434 -4.17146,-0.7648 l -3.65281,-0.6018 0.20187,-1.7293 c 0.28951,-2.4797 -1.5264,-6.2565 -3.62298,-7.5351 -3.84346,-2.3443 -8.00031,-1.8251 -10.78557,1.3471 l -1.64044,1.8682 -4.24247,-2.6113 c -2.33336,-1.4363 -4.19407,-2.9219 -4.1349,-3.3012 0.0593,-0.3791 0.38606,-1.6325 0.72643,-2.785 2.06533,-6.9933 -5.11422,-12.9449 -11.61647,-9.6298 l -1.92545,0.9817 -1.46076,-1.8893 c -0.80342,-1.0392 -2.00432,-2.6737 -2.66869,-3.632 l -1.20794,-1.7427 1.69456,-1.3261 c 3.13873,-2.4564 4.02434,-6.9509 2.05277,-10.418 -1.7711,-3.1147 -3.34531,-3.9604 -7.37057,-3.9604 l -3.51582,0 -0.53694,-2.0747 c -0.2953,-1.1413 -0.75406,-2.8915 -1.01947,-3.89 -0.87371,-3.2866 -0.67154,-3.813 1.86621,-4.8565 3.49503,-1.4374 5.16587,-3.9092 5.16587,-7.6423 0,-2.2055 -0.27913,-3.3585 -1.06935,-4.4169 -1.51342,-2.0269 -3.44326,-3.3575 -5.47746,-3.7762 -1.96709,-0.4048 -1.95379,-0.3036 -0.912,-6.9261 l 0.55075,-3.501 2.59767,0 c 3.37138,0 5.90021,-1.2374 7.51494,-3.6774 2.42267,-3.661 1.35754,-9.18496 -2.19433,-11.38016 l -1.7319,-1.0702 1.58796,-2.698 c 1.28231,-2.1788 2.57907,-4.1953 3.84267,-5.9759 0.0648,-0.091 1.0646,0.3173 2.22191,0.9077 3.44661,1.7583 6.72958,1.271 9.58848,-1.4232 0.81316,-0.7662 1.70642,-1.9768 1.985,-2.6898 0.85822,-2.197 0.59512,-5.5929 -0.58876,-7.5994 -0.60587,-1.0271 -1.03375,-1.922 -0.95087,-1.9891 0.0828,-0.067 1.64119,-1.2088 3.46284,-2.5378 l 3.31208,-2.4159 1.87442,2.03 c 4.11256,4.4535 10.5547,3.7165 13.51239,-1.546 0.9901,-1.7615 1.15122,-2.629 0.91445,-4.923 l -0.28739,-2.7848 2.61629,-0.7771 c 1.43895,-0.4272 3.7556,-0.9278 5.14815,-1.1126 2.41421,-0.3204 2.53191,-0.2786 2.53376,0.8978 0.006,3.405 3.88962,6.6744 7.93323,6.6777 4.20952,0 7.33486,-2.3794 8.34903,-6.365 l 0.57193,-2.2476 4.55782,0.6584 c 2.50678,0.3619 4.7541,0.7795 4.99406,0.9278 0.23993,0.1483 0.33271,1.2651 0.2062,2.482 -0.16931,1.6284 0.0868,2.828 0.97044,4.5442 3.00886,5.8445 10.4475,6.1785 14.22065,0.6386 l 1.09124,-1.6024 3.05796,1.8394 c 1.68187,1.0118 3.7028,2.2975 4.49099,2.8572 l 1.43302,1.0174 -1.15518,1.6225 c -1.58765,2.2296 -1.58186,6.2012 0.013,8.7816 2.42194,3.9186 8.07342,5.0989 11.67312,2.4374 l 1.56797,-1.1592 1.70792,2.0283 c 0.93935,1.1153 2.10585,2.7639 2.59224,3.6628 0.88061,1.6281 0.87745,1.6421 -0.74959,3.2689 -2.86226,2.8625 -3.28742,6.7415 -1.12799,10.29266 1.54034,2.5328 3.89345,3.7302 7.33498,3.7324 l 2.93901,0 1.08051,4.6025 c 1.30965,5.5781 1.31538,5.77 0.17289,5.7726 -1.47303,0 -4.20991,1.9345 -5.31897,3.7535 -1.45775,2.391 -1.39447,6.4409 0.13673,8.745 0.97639,1.4694 3.91164,3.4566 6.2628,4.2403 0.51422,0.1714 -0.27635,7.5063 -1.0171,9.4366 -0.16268,0.4241 -1.19429,0.6727 -2.79043,0.6727 -3.20752,0 -5.88758,1.5848 -7.2731,4.3004 -1.86476,3.6553 -1.19839,7.2583 1.87918,10.1607 l 1.82196,1.7184 -1.43292,2.4729 c -0.7881,1.3599 -2.03343,3.3132 -2.7674,4.3403 l -1.33448,1.8676 -1.79802,-0.9919 c -2.24504,-1.2385 -6.18626,-1.0107 -8.19012,0.4735 -3.66946,2.7177 -4.81706,7.4275 -2.66848,10.9517 l 1.0492,1.7208 -1.1808,0.9968 c -0.64946,0.5481 -2.30151,1.7312 -3.67128,2.6292 l -2.49043,1.6326 -1.39944,-1.3046 c -2.09112,-1.9495 -3.39853,-2.4688 -6.2158,-2.4688 -4.68787,0 -8.1422,3.6251 -8.14725,8.5501 l -0.002,2.5853 -3.11189,0.8331 c -1.71154,0.458 -3.97453,0.9699 -5.02888,1.1377 -1.80601,0.2869 -1.9493,0.2065 -2.47557,-1.3881 -0.57913,-1.7548 -2.55602,-3.9031 -4.52007,-4.9123 -1.5881,-0.8158 -5.1261,-0.7244 -6.87019,0.1774 -1.96459,1.0159 -4.17125,3.709 -4.53682,5.537 -0.28338,1.4167 -1.22545,1.8032 -3.01963,1.2382 z m 17.05867,-35.5273 c 9.39191,-2.4019 17.93247,-9.2462 22.02266,-17.6485 3.13351,-6.4369 3.88105,-9.962 3.57262,-16.8462 -0.42839,-9.5621 -3.28775,-16.0958 -10.01398,-22.8827 -6.67997,-6.73996 -16.61999,-10.50896 -25.9675,-9.84556 -8.74044,0.6205 -15.48122,3.6852 -21.76422,9.89546 -7.17779,7.0947 -10.30556,14.4412 -10.26889,24.1196 0.0313,8.2751 1.76247,13.5427 6.77345,20.6106 7.54469,10.6421 22.55301,15.9461 35.64586,12.5973 z m 119.08701,-27.7647 c 0,-3.4558 -3.342,-7.1174 -7.1538,-7.8376 -3.4723,-0.6562 -8.3945,2.4364 -9.24,5.8055 -0.3936,1.5682 -0.5281,1.5663 -5.9464,-0.088 l -4.4467,-1.3568 0.2319,-2.7964 c 0.2747,-3.3132 -0.4872,-5.4456 -2.5728,-7.2005 -3.45218,-2.905 -8.25135,-2.6528 -11.50857,0.6044 -2.07299,2.073 -2.10176,2.0665 -7.19647,-1.5928 -2.0504,-1.4729 -2.87083,-2.3737 -2.65043,-2.9109 1.58396,-3.8605 1.86123,-5.1032 1.53119,-6.8627 -0.41487,-2.2114 -2.37392,-4.761 -4.5049,-5.863 -2.13463,-1.1038 -6.12591,-0.9653 -8.00306,0.278 -0.85577,0.5667 -1.69658,1.0319 -1.86842,1.0339 -0.17187,0 -1.43578,-1.4263 -2.8087,-3.17396 -1.70565,-2.1708 -2.34584,-3.3799 -2.02143,-3.8169 2.04666,-2.7583 2.49725,-3.7899 2.68651,-6.1494 0.24971,-3.1136 -1.00427,-5.4436 -4.03939,-7.5062 -1.49402,-1.0152 -2.30078,-1.1906 -4.70867,-1.0221 l -2.90577,0.2032 -1.63244,-4.3171 c -0.89784,-2.3744 -1.63242,-4.6394 -1.63242,-5.0333 0,-0.3937 0.8276,-1.2043 1.8391,-1.8011 1.95229,-1.1519 3.83443,-4.4804 3.85467,-6.8168 0.0178,-2.057 -2.14358,-5.8174 -4.08485,-7.1075 -0.96929,-0.6441 -2.51043,-1.1713 -3.42479,-1.1713 l -1.66247,0 -0.33544,-3.968 c -0.58102,-6.8734 -0.6506,-6.6241 2.05023,-7.3464 5.85894,-1.5671 8.29694,-8.5931 4.53371,-13.0654 -0.73579,-0.8745 -2.03281,-1.9494 -2.88227,-2.3885 -1.39986,-0.7239 -1.51237,-0.9703 -1.20112,-2.6293 0.1889,-1.007 0.78897,-3.2729 1.33349,-5.0361 l 0.99007,-3.2053 2.80143,0 c 7.40116,0 11.18398,-8.2351 6.27753,-13.666 l -1.76398,-1.9526 2.9131,-4.2579 c 2.21389,-3.2361 3.11319,-4.1707 3.74675,-3.8946 0.45853,0.1999 1.91124,0.6019 3.22824,0.8935 2.11644,0.4684 2.68877,0.384 4.9272,-0.7254 4.37572,-2.1687 6.01368,-6.8248 3.87596,-11.0178 l -0.99059,-1.943 3.40702,-2.5792 3.40701,-2.5792 1.8237,1.8237 c 3.46967,3.4697 8.26206,3.5906 11.576,0.2921 2.50018,-2.4887 3.31746,-5.4139 2.32072,-8.3071 -0.65659,-1.9058 -0.64434,-2.1688 0.11954,-2.5682 1.09795,-0.5742 8.31401,-3.1616 8.81691,-3.1616 0.2109,0 0.6748,0.8052 1.0307,1.7896 1.3349,3.6915 6.1457,6.0976 9.8383,4.9204 3.752,-1.1961 6.7023,-5.4396 6.2178,-8.943 -0.152,-1.0992 0.023,-1.1433 5.0894,-1.2853 l 5.2467,-0.1469 0.2597,2.3038 c 0.3341,2.9642 2.0754,5.38 4.755,6.597 2.6772,1.2158 4.1679,1.2158 6.8451,0 2.2685,-1.0303 4.0678,-3.1239 4.6383,-5.3969 0.1925,-0.767 0.5941,-1.3947 0.8925,-1.3947 0.2984,0 2.6109,0.6208 5.1389,1.3796 4.2145,1.2647 4.5635,1.4695 4.1988,2.4635 -0.7397,2.0166 -0.3438,6.0069 0.7415,7.4721 1.8141,2.4492 4.2131,3.7257 7.0024,3.7257 3.0324,0 5.0503,-0.9462 6.8081,-3.1922 l 1.2967,-1.6568 3.2871,2.173 c 5.7089,3.7742 5.4078,3.3563 4.0275,5.5895 -2.5029,4.0497 -0.8286,9.8224 3.4356,11.846 2.5295,1.2002 6.2519,0.8669 8.5441,-0.7653 l 1.7016,-1.2116 1.2558,1.5182 c 0.6907,0.8349 1.8335,2.3637 2.5395,3.3975 l 1.2837,1.8795 -1.5395,1.5394 c -3.289,3.2889 -3.1723,8.678 0.2581,11.9132 2.0146,1.9002 4.343,2.5109 7.6695,2.0122 l 2.2833,-0.3425 1.6032,4.1571 c 0.8817,2.2864 1.6025,4.4565 1.6017,4.8224 -5e-4,0.3657 -0.8687,1.1318 -1.9288,1.7023 -7.2985,3.9277 -4.7703,15.2711 3.4516,15.4866 l 1.9728,0.053 0.34,4.8373 c 0.1871,2.6605 0.204,5.0576 0.038,5.3267 -0.1663,0.2693 -0.7984,0.4893 -1.4047,0.4893 -1.91,0 -5.2715,1.9885 -6.5464,3.8721 -1.4726,2.176 -1.653,6.0156 -0.3968,8.4449 0.8887,1.7185 2.9399,3.3897 4.9134,4.0029 1.069,0.3322 1.1742,0.5969 0.8739,2.1974 -0.1877,1.0007 -0.7903,3.2729 -1.339,5.0496 l -0.9977,3.2301 -2.7868,-0.2311 c -5.1014,-0.4231 -8.5754,2.3457 -9.0425,7.2069 -0.2959,3.08 0.507,5.1695 2.7399,7.1299 l 1.6862,1.4807 -2.7767,4.0925 c -1.5272,2.2509 -2.9566,4.0779 -3.1764,4.0596 -0.2198,-0.018 -1.3262,-0.451 -2.4586,-0.9619 -5.2734,-2.3805 -10.9989,1.0362 -11.5623,6.89926 -0.1962,2.042 -0.012,3.0167 0.8504,4.4769 0.6057,1.0266 1.1012,2.0635 1.1012,2.3043 0,0.2411 -1.4366,1.5058 -3.1925,2.8105 l -3.1925,2.3724 -1.9631,-1.7735 c -3.3002,-2.9814 -7.5295,-3.0851 -10.9471,-0.268 -2.7181,2.2404 -3.6057,5.8045 -2.4463,9.8218 0.1548,0.536 -1.0541,1.2409 -4.191,2.4435 -5.0177,1.9236 -5.7052,2.0383 -5.7052,0.9537 0,-1.5327 -3.5467,-4.7704 -5.9683,-5.4484 -2.017,-0.5647 -2.6582,-0.5333 -4.6538,0.2289 -3.4558,1.3198 -6.372,5.5034 -5.8749,8.4283 0.1441,0.8478 -0.3568,0.9531 -5.1566,1.0866 l -5.3162,0.148 0,-1.3355 z m 15.7585,-32.66766 c 11.9352,-3.1059 22.4848,-10.1297 29.9268,-19.9245 3.5813,-4.7135 7.4682,-12.8121 9.1144,-18.9911 1.2194,-4.5768 1.3786,-6.133 1.3786,-13.4728 0,-7.3397 -0.1592,-8.8961 -1.3786,-13.4727 -5.0971,-19.1315 -19.9064,-33.9419 -38.8644,-38.8676 -28.994,-7.5333 -58.25689,9.7332 -66.11018,39.0078 -1.18878,4.4315 -1.35042,6.0273 -1.35042,13.3325 0,7.305 0.16164,8.901 1.35042,13.3324 5.68491,21.1918 22.17948,36.2681 43.91008,40.13526 5.9263,1.0546 15.6561,0.5777 22.0233,-1.07926 z m -20.945,-3.7326 c -19.0513,-3.1641 -34.67552,-17.0156 -39.96488,-35.4303 -1.59719,-5.5607 -1.97994,-16.9002 -0.77169,-22.8632 3.70448,-18.2823 17.39697,-32.9514 35.31877,-37.8376 5.8201,-1.5867 16.0384,-1.9515 22.1984,-0.7918 18.2167,3.4287 33.1223,17.1648 38.3069,35.3009 1.0265,3.5906 1.1861,5.3356 1.1861,12.9662 0,7.6304 -0.1596,9.3754 -1.1861,12.9663 -5.201,18.1937 -19.9873,31.7906 -38.4066,35.3175 -3.4806,0.6664 -13.5555,0.891 -16.6809,0.372 z m 18.8421,-16.4116 c 5.0473,-1.832 8.9395,-4.3152 12.7735,-8.1491 13.47,-13.47 13.47,-34.7202 0,-48.1903 -3.7785,-3.7783 -7.5916,-6.2301 -12.8189,-8.2423 -3.2046,-1.2337 -4.1459,-1.346 -11.2762,-1.346 -7.1304,0 -8.0717,0.1123 -11.2763,1.346 -5.3626,2.0642 -9.0874,4.4918 -13.1837,8.5923 -6.2522,6.2585 -9.63575,14.5775 -9.65791,23.7452 -0.0356,14.7188 9.37511,27.8062 23.33481,32.4519 6.5752,2.1879 15.7421,2.1018 22.1047,-0.2077 z m -149.04938,-18.111 c -0.0145,-0.07 -0.11218,-1.1261 -0.21744,-2.3439 -0.47155,-5.456 -4.85612,-8.7123 -10.34485,-7.6825 -1.80482,0.3384 -5.07596,2.9376 -5.60218,4.4508 -0.22204,0.6386 -0.86343,0.4749 -3.57993,-0.9149 -1.82021,-0.9311 -3.83774,-2.1015 -4.48343,-2.6008 l -1.17394,-0.9078 1.11593,-2.6412 c 0.78397,-1.8556 1.01701,-3.1647 0.78344,-4.4009 -1.07965,-5.7147 -7.50093,-8.9959 -12.10789,-6.1869 l -1.66475,1.0152 -0.99164,-1.406 c -1.666,-2.3622 -3.87274,-7.0595 -3.39262,-7.2217 3.60211,-1.2172 6.23799,-5.4214 5.63533,-8.9885 -0.71579,-4.2368 -4.20578,-7.2384 -8.41613,-7.2384 l -2.21234,0 0.007,-4.0196 c 0.01,-5.9387 0.19521,-6.3534 2.8293,-6.3534 5.70747,0 9.90648,-6.8447 7.29594,-11.8929 -0.75007,-1.4506 -3.30287,-3.897 -4.47354,-4.2873 -0.68555,-0.2285 0.8057,-3.455 3.23843,-7.0063 l 1.49414,-2.1817 1.88832,1.1143 c 4.13972,2.4425 9.46842,0.8644 11.54146,-3.4179 1.34554,-2.7795 1.35826,-4.7452 0.0473,-7.3166 -0.63882,-1.2531 -0.84958,-2.2278 -0.55774,-2.5793 0.258,-0.3108 2.02628,-1.3792 3.9295,-2.3745 3.35805,-1.7557 3.47815,-1.779 4.05865,-0.7877 1.1593,1.9798 3.56734,3.897 5.57238,4.4371 5.16017,1.3893 10.326,-2.613 10.326,-8.0006 l 0,-1.8666 5.11968,0 5.11968,0 0.33572,2.5309 c 0.83834,6.3195 6.74756,9.6098 12.23314,6.8112 1.11149,-0.5669 2.43616,-1.734 2.94373,-2.5932 0.50757,-0.8594 1.13161,-1.5624 1.38676,-1.5624 0.62039,0 6.01231,2.9107 7.48818,4.0423 l 1.17397,0.9 -1.11592,2.6412 c -1.8002,4.2609 -0.32542,8.5181 3.65417,10.5486 2.58437,1.3181 4.96436,1.3448 7.43975,0.082 2.20766,-1.1256 2.07755,-1.2228 4.67985,3.498 l 1.81952,3.301 -2.22702,2.1447 c -5.60629,5.4 -3.21431,13.1486 4.50605,14.5971 1.64134,0.3077 1.92167,0.5829 2.22116,2.1792 0.1885,1.005 0.18319,3.3169 -0.0119,5.1379 -0.34598,3.2306 -0.39123,3.3108 -1.86674,3.3108 -3.61794,0 -7.34857,3.0308 -7.9991,6.4984 -0.59847,3.1903 0.18745,5.497 2.69156,7.9002 2.60448,2.4992 2.66444,2.0039 -0.93469,7.7232 l -2.00802,3.1907 -2.50469,-1.0582 c -2.92125,-1.2341 -5.22068,-1.0036 -7.9111,0.7937 -3.25914,2.177 -4.50811,6.8804 -2.73674,10.3058 0.45215,0.8742 0.6272,1.7749 0.38898,2.0012 -0.23822,0.2264 -2.03688,1.2867 -3.99703,2.3565 -3.39341,1.8521 -3.59025,1.8977 -4.11447,0.9553 -1.07507,-1.933 -3.32837,-3.7576 -5.41048,-4.3816 -5.28826,-1.5843 -10.50972,2.2782 -10.50972,7.7743 l 0,2.1005 -5.18651,0 c -2.85258,0 -5.19823,-0.059 -5.21258,-0.1302 z m 13.83937,-26.3804 c 10.59992,-3.2742 18.34302,-13.9772 18.34302,-25.355 0,-7.2003 -2.63958,-13.5239 -7.84798,-18.8012 -10.39086,-10.5284 -26.45396,-10.7837 -37.25719,-0.5925 -5.7053,5.382 -8.31581,11.4825 -8.31581,19.4332 0,11.9602 7.32205,21.8382 18.93073,25.539 4.96873,1.584 10.5447,1.5069 16.14723,-0.2235 z"
       id="path9977"
       inkscape:connector-curvature="0" />
    <rect
       ry="44.374783"
       y="574.67371"
       x="126.07659"
       height="342.91339"
       width="342.91339"
       id="rect13415"
       style="opacity:0.98999999;fill:#000000;fill-opacity:0;stroke:#363636;stroke-width:7.08661509;stroke-linecap:round;stroke-linejoin:round;stroke-miterlimit:4;stroke-dasharray:none;stroke-dashoffset:0;stroke-opacity:1" />
    <path
       inkscape:connector-curvature="0"
       id="path13417"
       d="m 214.94882,864.91433 c -0.28527,-0.09 -2.16241,-0.434 -4.17146,-0.7648 l -3.65281,-0.6018 0.20187,-1.7293 c 0.28951,-2.4797 -1.5264,-6.2565 -3.62298,-7.5351 -3.84346,-2.3443 -8.00031,-1.8251 -10.78557,1.3471 l -1.64044,1.8682 -4.24247,-2.6113 c -2.33336,-1.4363 -4.19407,-2.9219 -4.1349,-3.3012 0.0593,-0.3791 0.38606,-1.6325 0.72643,-2.785 2.06533,-6.9933 -5.11422,-12.9449 -11.61647,-9.6298 l -1.92545,0.9817 -1.46076,-1.8893 c -0.80342,-1.0392 -2.00432,-2.6737 -2.66869,-3.632 l -1.20794,-1.7427 1.69456,-1.3261 c 3.13873,-2.4564 4.02434,-6.9509 2.05277,-10.418 -1.7711,-3.1147 -3.34531,-3.9604 -7.37057,-3.9604 l -3.51582,0 -0.53694,-2.0747 c -0.2953,-1.1413 -0.75406,-2.8915 -1.01947,-3.89 -0.87371,-3.2866 -0.67154,-3.813 1.86621,-4.8565 3.49503,-1.4374 5.16587,-3.9092 5.16587,-7.6423 0,-2.2055 -0.27913,-3.3585 -1.06935,-4.4169 -1.51342,-2.0269 -3.44326,-3.3575 -5.47746,-3.7762 -1.96709,-0.4048 -1.95379,-0.3036 -0.912,-6.9261 l 0.55075,-3.501 2.59767,0 c 3.37138,0 5.90021,-1.2374 7.51494,-3.6774 2.42267,-3.661 1.35754,-9.18496 -2.19433,-11.38016 l -1.7319,-1.0702 1.58796,-2.698 c 1.28231,-2.1788 2.57907,-4.1953 3.84267,-5.9759 0.0648,-0.091 1.0646,0.3173 2.22191,0.9077 3.44661,1.7583 6.72958,1.271 9.58848,-1.4232 0.81316,-0.7662 1.70642,-1.9768 1.985,-2.6898 0.85822,-2.197 0.59512,-5.5929 -0.58876,-7.5994 -0.60587,-1.0271 -1.03375,-1.922 -0.95087,-1.9891 0.0828,-0.067 1.64119,-1.2088 3.46284,-2.5378 l 3.31208,-2.4159 1.87442,2.03 c 4.11256,4.4535 10.5547,3.7165 13.51239,-1.546 0.9901,-1.7615 1.15122,-2.629 0.91445,-4.923 l -0.28739,-2.7848 2.61629,-0.7771 c 1.43895,-0.4272 3.7556,-0.9278 5.14815,-1.1126 2.41421,-0.3204 2.53191,-0.2786 2.53376,0.8978 0.006,3.405 3.88962,6.6744 7.93323,6.6777 4.20952,0 7.33486,-2.3794 8.34903,-6.365 l 0.57193,-2.2476 4.55782,0.6584 c 2.50678,0.3619 4.7541,0.7795 4.99406,0.9278 0.23993,0.1483 0.33271,1.2651 0.2062,2.482 -0.16931,1.6284 0.0868,2.828 0.97044,4.5442 3.00886,5.8445 10.4475,6.1785 14.22065,0.6386 l 1.09124,-1.6024 3.05796,1.8394 c 1.68187,1.0118 3.7028,2.2975 4.49099,2.8572 l 1.43302,1.0174 -1.15518,1.6225 c -1.58765,2.2296 -1.58186,6.2012 0.013,8.7816 2.42194,3.9186 8.07342,5.0989 11.67312,2.4374 l 1.56797,-1.1592 1.70792,2.0283 c 0.93935,1.1153 2.10585,2.7639 2.59224,3.6628 0.88061,1.6281 0.87745,1.6421 -0.74959,3.2689 -2.86226,2.8625 -3.28742,6.7415 -1.12799,10.29266 1.54034,2.5328 3.89345,3.7302 7.33498,3.7324 l 2.93901,0 1.08051,4.6025 c 1.30965,5.5781 1.31538,5.77 0.17289,5.7726 -1.47303,0 -4.20991,1.9345 -5.31897,3.7535 -1.45775,2.391 -1.39447,6.4409 0.13673,8.745 0.97639,1.4694 3.91164,3.4566 6.2628,4.2403 0.51422,0.1714 -0.27635,7.5063 -1.0171,9.4366 -0.16268,0.4241 -1.19429,0.6727 -2.79043,0.6727 -3.20752,0 -5.88758,1.5848 -7.2731,4.3004 -1.86476,3.6553 -1.19839,7.2583 1.87918,10.1607 l 1.82196,1.7184 -1.43292,2.4729 c -0.7881,1.3599 -2.03343,3.3132 -2.7674,4.3403 l -1.33448,1.8676 -1.79802,-0.9919 c -2.24504,-1.2385 -6.18626,-1.0107 -8.19012,0.4735 -3.66946,2.7177 -4.81706,7.4275 -2.66848,10.9517 l 1.0492,1.7208 -1.1808,0.9968 c -0.64946,0.5481 -2.30151,1.7312 -3.67128,2.6292 l -2.49043,1.6326 -1.39944,-1.3046 c -2.09112,-1.9495 -3.39853,-2.4688 -6.2158,-2.4688 -4.68787,0 -8.1422,3.6251 -8.14725,8.5501 l -0.002,2.5853 -3.11189,0.8331 c -1.71154,0.458 -3.97453,0.9699 -5.02888,1.1377 -1.80601,0.2869 -1.9493,0.2065 -2.47557,-1.3881 -0.57913,-1.7548 -2.55602,-3.9031 -4.52007,-4.9123 -1.5881,-0.8158 -5.1261,-0.7244 -6.87019,0.1774 -1.96459,1.0159 -4.17125,3.709 -4.53682,5.537 -0.28338,1.4167 -1.22545,1.8032 -3.01963,1.2382 z m 17.05867,-35.5273 c 9.39191,-2.4019 17.93247,-9.2462 22.02266,-17.6485 3.13351,-6.4369 3.88105,-9.962 3.57262,-16.8462 -0.42839,-9.5621 -3.28775,-16.0958 -10.01398,-22.8827 -6.67997,-6.73996 -16.61999,-10.50896 -25.9675,-9.84556 -8.74044,0.6205 -15.48122,3.6852 -21.76422,9.89546 -7.17779,7.0947 -10.30556,14.4412 -10.26889,24.1196 0.0313,8.2751 1.76247,13.5427 6.77345,20.6106 7.54469,10.6421 22.55301,15.9461 35.64586,12.5973 z m 119.08701,-27.7647 c 0,-3.4558 -3.342,-7.1174 -7.1538,-7.8376 -3.4723,-0.6562 -8.3945,2.4364 -9.24,5.8055 -0.3936,1.5682 -0.5281,1.5663 -5.9464,-0.088 l -4.4467,-1.3568 0.2319,-2.7964 c 0.2747,-3.3132 -0.4872,-5.4456 -2.5728,-7.2005 -3.45218,-2.905 -8.25135,-2.6528 -11.50857,0.6044 -2.07299,2.073 -2.10176,2.0665 -7.19647,-1.5928 -2.0504,-1.4729 -2.87083,-2.3737 -2.65043,-2.9109 1.58396,-3.8605 1.86123,-5.1032 1.53119,-6.8627 -0.41487,-2.2114 -2.37392,-4.761 -4.5049,-5.863 -2.13463,-1.1038 -6.12591,-0.9653 -8.00306,0.278 -0.85577,0.5667 -1.69658,1.0319 -1.86842,1.0339 -0.17187,0 -1.43578,-1.4263 -2.8087,-3.17396 -1.70565,-2.1708 -2.34584,-3.3799 -2.02143,-3.8169 2.04666,-2.7583 2.49725,-3.7899 2.68651,-6.1494 0.24971,-3.1136 -1.00427,-5.4436 -4.03939,-7.5062 -1.49402,-1.0152 -2.30078,-1.1906 -4.70867,-1.0221 l -2.90577,0.2032 -1.63244,-4.3171 c -0.89784,-2.3744 -1.63242,-4.6394 -1.63242,-5.0333 0,-0.3937 0.8276,-1.2043 1.8391,-1.8011 1.95229,-1.1519 3.83443,-4.4804 3.85467,-6.8168 0.0178,-2.057 -2.14358,-5.8174 -4.08485,-7.1075 -0.96929,-0.6441 -2.51043,-1.1713 -3.42479,-1.1713 l -1.66247,0 -0.33544,-3.968 c -0.58102,-6.8734 -0.6506,-6.6241 2.05023,-7.3464 5.85894,-1.5671 8.29694,-8.5931 4.53371,-13.0654 -0.73579,-0.8745 -2.03281,-1.9494 -2.88227,-2.3885 -1.39986,-0.7239 -1.51237,-0.9703 -1.20112,-2.6293 0.1889,-1.007 0.78897,-3.2729 1.33349,-5.0361 l 0.99007,-3.2053 2.80143,0 c 7.40116,0 11.18398,-8.2351 6.27753,-13.666 l -1.76398,-1.9526 2.9131,-4.2579 c 2.21389,-3.2361 3.11319,-4.1707 3.74675,-3.8946 0.45853,0.1999 1.91124,0.6019 3.22824,0.8935 2.11644,0.4684 2.68877,0.384 4.9272,-0.7254 4.37572,-2.1687 6.01368,-6.8248 3.87596,-11.0178 l -0.99059,-1.943 3.40702,-2.5792 3.40701,-2.5792 1.8237,1.8237 c 3.46967,3.4697 8.26206,3.5906 11.576,0.2921 2.50018,-2.4887 3.31746,-5.4139 2.32072,-8.3071 -0.65659,-1.9058 -0.64434,-2.1688 0.11954,-2.5682 1.09795,-0.5742 8.31401,-3.1616 8.81691,-3.1616 0.2109,0 0.6748,0.8052 1.0307,1.7896 1.3349,3.6915 6.1457,6.0976 9.8383,4.9204 3.752,-1.1961 6.7023,-5.4396 6.2178,-8.943 -0.152,-1.0992 0.023,-1.1433 5.0894,-1.2853 l 5.2467,-0.1469 0.2597,2.3038 c 0.3341,2.9642 2.0754,5.38 4.755,6.597 2.6772,1.2158 4.1679,1.2158 6.8451,0 2.2685,-1.0303 4.0678,-3.1239 4.6383,-5.3969 0.1925,-0.767 0.5941,-1.3947 0.8925,-1.3947 0.2984,0 2.6109,0.6208 5.1389,1.3796 4.2145,1.2647 4.5635,1.4695 4.1988,2.4635 -0.7397,2.0166 -0.3438,6.0069 0.7415,7.4721 1.8141,2.4492 4.2131,3.7257 7.0024,3.7257 3.0324,0 5.0503,-0.9462 6.8081,-3.1922 l 1.2967,-1.6568 3.2871,2.173 c 5.7089,3.7742 5.4078,3.3563 4.0275,5.5895 -2.5029,4.0497 -0.8286,9.8224 3.4356,11.846 2.5295,1.2002 6.2519,0.8669 8.5441,-0.7653 l 1.7016,-1.2116 1.2558,1.5182 c 0.6907,0.8349 1.8335,2.3637 2.5395,3.3975 l 1.2837,1.8795 -1.5395,1.5394 c -3.289,3.2889 -3.1723,8.678 0.2581,11.9132 2.0146,1.9002 4.343,2.5109 7.6695,2.0122 l 2.2833,-0.3425 1.6032,4.1571 c 0.8817,2.2864 1.6025,4.4565 1.6017,4.8224 -5e-4,0.3657 -0.8687,1.1318 -1.9288,1.7023 -7.2985,3.9277 -4.7703,15.2711 3.4516,15.4866 l 1.9728,0.053 0.34,4.8373 c 0.1871,2.6605 0.204,5.0576 0.038,5.3267 -0.1663,0.2693 -0.7984,0.4893 -1.4047,0.4893 -1.91,0 -5.2715,1.9885 -6.5464,3.8721 -1.4726,2.176 -1.653,6.0156 -0.3968,8.4449 0.8887,1.7185 2.9399,3.3897 4.9134,4.0029 1.069,0.3322 1.1742,0.5969 0.8739,2.1974 -0.1877,1.0007 -0.7903,3.2729 -1.339,5.0496 l -0.9977,3.2301 -2.7868,-0.2311 c -5.1014,-0.4231 -8.5754,2.3457 -9.0425,7.2069 -0.2959,3.08 0.507,5.1695 2.7399,7.1299 l 1.6862,1.4807 -2.7767,4.0925 c -1.5272,2.2509 -2.9566,4.0779 -3.1764,4.0596 -0.2198,-0.018 -1.3262,-0.451 -2.4586,-0.9619 -5.2734,-2.3805 -10.9989,1.0362 -11.5623,6.89926 -0.1962,2.042 -0.012,3.0167 0.8504,4.4769 0.6057,1.0266 1.1012,2.0635 1.1012,2.3043 0,0.2411 -1.4366,1.5058 -3.1925,2.8105 l -3.1925,2.3724 -1.9631,-1.7735 c -3.3002,-2.9814 -7.5295,-3.0851 -10.9471,-0.268 -2.7181,2.2404 -3.6057,5.8045 -2.4463,9.8218 0.1548,0.536 -1.0541,1.2409 -4.191,2.4435 -5.0177,1.9236 -5.7052,2.0383 -5.7052,0.9537 0,-1.5327 -3.5467,-4.7704 -5.9683,-5.4484 -2.017,-0.5647 -2.6582,-0.5333 -4.6538,0.2289 -3.4558,1.3198 -6.372,5.5034 -5.8749,8.4283 0.1441,0.8478 -0.3568,0.9531 -5.1566,1.0866 l -5.3162,0.148 0,-1.3355 z m 15.7585,-32.66766 c 11.9352,-3.1059 22.4848,-10.1297 29.9268,-19.9245 3.5813,-4.7135 7.4682,-12.8121 9.1144,-18.9911 1.2194,-4.5768 1.3786,-6.133 1.3786,-13.4728 0,-7.3397 -0.1592,-8.8961 -1.3786,-13.4727 -5.0971,-19.1315 -19.9064,-33.9419 -38.8644,-38.8676 -28.994,-7.5333 -58.25689,9.7332 -66.11018,39.0078 -1.18878,4.4315 -1.35042,6.0273 -1.35042,13.3325 0,7.305 0.16164,8.901 1.35042,13.3324 5.68491,21.1918 22.17948,36.2681 43.91008,40.13526 5.9263,1.0546 15.6561,0.5777 22.0233,-1.07926 z m -20.945,-3.7326 c -19.0513,-3.1641 -34.67552,-17.0156 -39.96488,-35.4303 -1.59719,-5.5607 -1.97994,-16.9002 -0.77169,-22.8632 3.70448,-18.2823 17.39697,-32.9514 35.31877,-37.8376 5.8201,-1.5867 16.0384,-1.9515 22.1984,-0.7918 18.2167,3.4287 33.1223,17.1648 38.3069,35.3009 1.0265,3.5906 1.1861,5.3356 1.1861,12.9662 0,7.6304 -0.1596,9.3754 -1.1861,12.9663 -5.201,18.1937 -19.9873,31.7906 -38.4066,35.3175 -3.4806,0.6664 -13.5555,0.891 -16.6809,0.372 z m 18.8421,-16.4116 c 5.0473,-1.832 8.9395,-4.3152 12.7735,-8.1491 13.47,-13.47 13.47,-34.7202 0,-48.1903 -3.7785,-3.7783 -7.5916,-6.2301 -12.8189,-8.2423 -3.2046,-1.2337 -4.1459,-1.346 -11.2762,-1.346 -7.1304,0 -8.0717,0.1123 -11.2763,1.346 -5.3626,2.0642 -9.0874,4.4918 -13.1837,8.5923 -6.2522,6.2585 -9.63575,14.5775 -9.65791,23.7452 -0.0356,14.7188 9.37511,27.8062 23.33481,32.4519 6.5752,2.1879 15.7421,2.1018 22.1047,-0.2077 z m -149.04938,-18.111 c -0.0145,-0.07 -0.11218,-1.1261 -0.21744,-2.3439 -0.47155,-5.456 -4.85612,-8.7123 -10.34485,-7.6825 -1.80482,0.3384 -5.07596,2.9376 -5.60218,4.4508 -0.22204,0.6386 -0.86343,0.4749 -3.57993,-0.9149 -1.82021,-0.9311 -3.83774,-2.1015 -4.48343,-2.6008 l -1.17394,-0.9078 1.11593,-2.6412 c 0.78397,-1.8556 1.01701,-3.1647 0.78344,-4.4009 -1.07965,-5.7147 -7.50093,-8.9959 -12.10789,-6.1869 l -1.66475,1.0152 -0.99164,-1.406 c -1.666,-2.3622 -3.87274,-7.0595 -3.39262,-7.2217 3.60211,-1.2172 6.23799,-5.4214 5.63533,-8.9885 -0.71579,-4.2368 -4.20578,-7.2384 -8.41613,-7.2384 l -2.21234,0 0.007,-4.0196 c 0.01,-5.9387 0.19521,-6.3534 2.8293,-6.3534 5.70747,0 9.90648,-6.8447 7.29594,-11.8929 -0.75007,-1.4506 -3.30287,-3.897 -4.47354,-4.2873 -0.68555,-0.2285 0.8057,-3.455 3.23843,-7.0063 l 1.49414,-2.1817 1.88832,1.1143 c 4.13972,2.4425 9.46842,0.8644 11.54146,-3.4179 1.34554,-2.7795 1.35826,-4.7452 0.0473,-7.3166 -0.63882,-1.2531 -0.84958,-2.2278 -0.55774,-2.5793 0.258,-0.3108 2.02628,-1.3792 3.9295,-2.3745 3.35805,-1.7557 3.47815,-1.779 4.05865,-0.7877 1.1593,1.9798 3.56734,3.897 5.57238,4.4371 5.16017,1.3893 10.326,-2.613 10.326,-8.0006 l 0,-1.8666 5.11968,0 5.11968,0 0.33572,2.5309 c 0.83834,6.3195 6.74756,9.6098 12.23314,6.8112 1.11149,-0.5669 2.43616,-1.734 2.94373,-2.5932 0.50757,-0.8594 1.13161,-1.5624 1.38676,-1.5624 0.62039,0 6.01231,2.9107 7.48818,4.0423 l 1.17397,0.9 -1.11592,2.6412 c -1.8002,4.2609 -0.32542,8.5181 3.65417,10.5486 2.58437,1.3181 4.96436,1.3448 7.43975,0.082 2.20766,-1.1256 2.07755,-1.2228 4.67985,3.498 l 1.81952,3.301 -2.22702,2.1447 c -5.60629,5.4 -3.21431,13.1486 4.50605,14.5971 1.64134,0.3077 1.92167,0.5829 2.22116,2.1792 0.1885,1.005 0.18319,3.3169 -0.0119,5.1379 -0.34598,3.2306 -0.39123,3.3108 -1.86674,3.3108 -3.61794,0 -7.34857,3.0308 -7.9991,6.4984 -0.59847,3.1903 0.18745,5.497 2.69156,7.9002 2.60448,2.4992 2.66444,2.0039 -0.93469,7.7232 l -2.00802,3.1907 -2.50469,-1.0582 c -2.92125,-1.2341 -5.22068,-1.0036 -7.9111,0.7937 -3.25914,2.177 -4.50811,6.8804 -2.73674,10.3058 0.45215,0.8742 0.6272,1.7749 0.38898,2.0012 -0.23822,0.2264 -2.03688,1.2867 -3.99703,2.3565 -3.39341,1.8521 -3.59025,1.8977 -4.11447,0.9553 -1.07507,-1.933 -3.32837,-3.7576 -5.41048,-4.3816 -5.28826,-1.5843 -10.50972,2.2782 -10.50972,7.7743 l 0,2.1005 -5.18651,0 c -2.85258,0 -5.19823,-0.059 -5.21258,-0.1302 z m 13.83937,-26.3804 c 10.59992,-3.2742 18.34302,-13.9772 18.34302,-25.355 0,-7.2003 -2.63958,-13.5239 -7.84798,-18.8012 -10.39086,-10.5284 -26.45396,-10.7837 -37.25719,-0.5925 -5.7053,5.382 -8.31581,11.4825 -8.31581,19.4332 0,11.9602 7.32205,21.8382 18.93073,25.539 4.96873,1.584 10.5447,1.5069 16.14723,-0.2235 z"
       style="fill:#185daf;fill-opacity:0.99215686" />
    <rect
       style="opacity:0.98999999;fill:#000000;fill-opacity:0;stroke:#363636;stroke-width:7.08661509;stroke-linecap:round;stroke-linejoin:round;stroke-miterlimit:4;stroke-dasharray:none;stroke-dashoffset:0;stroke-opacity:1"
       id="rect13433"
       width="342.91339"
       height="342.91339"
       x="126.07659"
       y="999.87054"
       ry="44.374783" />
    <path
       style="fill:#185daf;fill-opacity:0.99215686"
       d="m 214.94884,1290.1112 c -0.2853,-0.09 -2.1624,-0.434 -4.1715,-0.7648 l -3.6528,-0.6018 0.2019,-1.7293 c 0.2895,-2.4797 -1.5264,-6.2565 -3.623,-7.5351 -3.8435,-2.3443 -8.0003,-1.8251 -10.7856,1.3471 l -1.6404,1.8682 -4.2425,-2.6113 c -2.3333,-1.4363 -4.1941,-2.9219 -4.1349,-3.3012 0.059,-0.3791 0.3861,-1.6325 0.7264,-2.785 2.0654,-6.9933 -5.1142,-12.9449 -11.6164,-9.6298 l -1.9255,0.9817 -1.4607,-1.8893 c -0.8035,-1.0392 -2.0044,-2.6737 -2.6687,-3.632 l -1.208,-1.7427 1.6946,-1.3261 c 3.1387,-2.4564 4.0243,-6.9509 2.0528,-10.418 -1.7711,-3.1147 -3.3453,-3.9604 -7.3706,-3.9604 l -3.5158,0 -0.537,-2.0747 c -0.2953,-1.1413 -0.754,-2.8915 -1.0194,-3.89 -0.8737,-3.2866 -0.6716,-3.813 1.8662,-4.8565 3.495,-1.4374 5.1658,-3.9092 5.1658,-7.6423 0,-2.2055 -0.2791,-3.3585 -1.0693,-4.4169 -1.5134,-2.0269 -3.4433,-3.3575 -5.4775,-3.7762 -1.9671,-0.4048 -1.9538,-0.3036 -0.912,-6.9261 l 0.5508,-3.501 2.5977,0 c 3.3713,0 5.9002,-1.2374 7.5149,-3.6774 2.4227,-3.661 1.3575,-9.185 -2.1943,-11.3802 l -1.7319,-1.0702 1.5879,-2.698 c 1.2823,-2.1788 2.5791,-4.1953 3.8427,-5.9759 0.065,-0.091 1.0646,0.3173 2.2219,0.9077 3.4466,1.7583 6.7296,1.271 9.5885,-1.4232 0.8131,-0.7662 1.7064,-1.9768 1.985,-2.6898 0.8582,-2.197 0.5951,-5.5929 -0.5888,-7.5994 -0.6058,-1.0271 -1.0337,-1.922 -0.9508,-1.9891 0.083,-0.067 1.6411,-1.2088 3.4628,-2.5378 l 3.3121,-2.4159 1.8744,2.03 c 4.1126,4.4535 10.5547,3.7165 13.5124,-1.546 0.9901,-1.7615 1.1512,-2.629 0.9144,-4.923 l -0.2874,-2.7848 2.6163,-0.7771 c 1.439,-0.4272 3.7556,-0.9278 5.1482,-1.1126 2.4142,-0.3204 2.5319,-0.2786 2.5337,0.8978 0.01,3.405 3.8897,6.6744 7.9333,6.6777 4.2095,0 7.3348,-2.3794 8.349,-6.365 l 0.5719,-2.2476 4.5579,0.6584 c 2.5067,0.3619 4.7541,0.7795 4.994,0.9278 0.2399,0.1483 0.3327,1.2651 0.2062,2.482 -0.1693,1.6284 0.087,2.828 0.9705,4.5442 3.0088,5.8445 10.4475,6.1785 14.2206,0.6386 l 1.0912,-1.6024 3.058,1.8394 c 1.6819,1.0118 3.7028,2.2975 4.491,2.8572 l 1.433,1.0174 -1.1552,1.6225 c -1.5876,2.2296 -1.5818,6.2012 0.013,8.7816 2.422,3.9186 8.0735,5.0989 11.6732,2.4374 l 1.5679,-1.1592 1.7079,2.0283 c 0.9394,1.1153 2.1059,2.7639 2.5923,3.6628 0.8806,1.6281 0.8774,1.6421 -0.7496,3.2689 -2.8623,2.8625 -3.2874,6.7415 -1.128,10.2927 1.5403,2.5328 3.8935,3.7302 7.335,3.7324 l 2.939,0 1.0805,4.6025 c 1.3097,5.5781 1.3154,5.77 0.1729,5.7726 -1.473,0 -4.2099,1.9345 -5.319,3.7535 -1.4577,2.391 -1.3944,6.4409 0.1368,8.745 0.9763,1.4694 3.9116,3.4566 6.2628,4.2403 0.5142,0.1714 -0.2764,7.5063 -1.0171,9.4366 -0.1627,0.4241 -1.1943,0.6727 -2.7905,0.6727 -3.2075,0 -5.8876,1.5848 -7.2731,4.3004 -1.8647,3.6553 -1.1984,7.2583 1.8792,10.1607 l 1.822,1.7184 -1.433,2.4729 c -0.7881,1.3599 -2.0334,3.3132 -2.7674,4.3403 l -1.3344,1.8676 -1.7981,-0.9919 c -2.245,-1.2385 -6.1862,-1.0107 -8.1901,0.4735 -3.6694,2.7177 -4.817,7.4275 -2.6685,10.9517 l 1.0492,1.7208 -1.1808,0.9968 c -0.6494,0.5481 -2.3015,1.7312 -3.6712,2.6292 l -2.4905,1.6326 -1.3994,-1.3046 c -2.0911,-1.9495 -3.3985,-2.4688 -6.2158,-2.4688 -4.6879,0 -8.1422,3.6251 -8.1473,8.5501 l 0,2.5853 -3.1118,0.8331 c -1.7116,0.458 -3.9746,0.9699 -5.0289,1.1377 -1.806,0.2869 -1.9493,0.2065 -2.4756,-1.3881 -0.5791,-1.7548 -2.556,-3.9031 -4.5201,-4.9123 -1.5881,-0.8158 -5.1261,-0.7244 -6.8702,0.1774 -1.9645,1.0159 -4.1712,3.709 -4.5368,5.537 -0.2834,1.4167 -1.2254,1.8032 -3.0196,1.2382 z m 17.0586,-35.5273 c 9.392,-2.4019 17.9325,-9.2462 22.0227,-17.6485 3.1335,-6.4369 3.8811,-9.962 3.5726,-16.8462 -0.4284,-9.5621 -3.2877,-16.0958 -10.014,-22.8827 -6.6799,-6.74 -16.6199,-10.509 -25.9675,-9.8456 -8.7404,0.6205 -15.4812,3.6852 -21.7642,9.8955 -7.1778,7.0947 -10.3055,14.4412 -10.2689,24.1196 0.031,8.2751 1.7625,13.5427 6.7735,20.6106 7.5447,10.6421 22.553,15.9461 35.6458,12.5973 z m 119.0871,-27.7647 c 0,-3.4558 -3.342,-7.1174 -7.1538,-7.8376 -3.4723,-0.6562 -8.3945,2.4364 -9.24,5.8055 -0.3936,1.5682 -0.5281,1.5663 -5.9464,-0.088 l -4.4467,-1.3568 0.2319,-2.7964 c 0.2747,-3.3132 -0.4872,-5.4456 -2.5728,-7.2005 -3.4522,-2.905 -8.2514,-2.6528 -11.5086,0.6044 -2.073,2.073 -2.1018,2.0665 -7.1965,-1.5928 -2.0504,-1.4729 -2.8708,-2.3737 -2.6504,-2.9109 1.5839,-3.8605 1.8612,-5.1032 1.5312,-6.8627 -0.4149,-2.2114 -2.3739,-4.761 -4.5049,-5.863 -2.1347,-1.1038 -6.1259,-0.9653 -8.0031,0.278 -0.8558,0.5667 -1.6966,1.0319 -1.8684,1.0339 -0.1719,0 -1.4358,-1.4263 -2.8087,-3.174 -1.7057,-2.1708 -2.3458,-3.3799 -2.0214,-3.8169 2.0466,-2.7583 2.4972,-3.7899 2.6865,-6.1494 0.2497,-3.1136 -1.0043,-5.4436 -4.0394,-7.5062 -1.494,-1.0152 -2.3008,-1.1906 -4.7087,-1.0221 l -2.9058,0.2032 -1.6324,-4.3171 c -0.8978,-2.3744 -1.6324,-4.6394 -1.6324,-5.0333 0,-0.3937 0.8276,-1.2043 1.8391,-1.8011 1.9523,-1.1519 3.8344,-4.4804 3.8547,-6.8168 0.018,-2.057 -2.1436,-5.8174 -4.0849,-7.1075 -0.9693,-0.6441 -2.5104,-1.1713 -3.4248,-1.1713 l -1.6625,0 -0.3354,-3.968 c -0.581,-6.8734 -0.6506,-6.6241 2.0502,-7.3464 5.859,-1.5671 8.297,-8.5931 4.5337,-13.0654 -0.7357,-0.8745 -2.0328,-1.9494 -2.8822,-2.3885 -1.3999,-0.7239 -1.5124,-0.9703 -1.2011,-2.6293 0.1889,-1.007 0.7889,-3.2729 1.3334,-5.0361 l 0.9901,-3.2053 2.8014,0 c 7.4012,0 11.184,-8.2351 6.2776,-13.666 l -1.764,-1.9526 2.9131,-4.2579 c 2.2139,-3.2361 3.1132,-4.1707 3.7467,-3.8946 0.4586,0.1999 1.9113,0.6019 3.2283,0.8935 2.1164,0.4684 2.6888,0.384 4.9272,-0.7254 4.3757,-2.1687 6.0137,-6.8248 3.8759,-11.0178 l -0.9905,-1.943 3.407,-2.5792 3.407,-2.5792 1.8237,1.8237 c 3.4697,3.4697 8.262,3.5906 11.576,0.2921 2.5002,-2.4887 3.3174,-5.4139 2.3207,-8.3071 -0.6566,-1.9058 -0.6443,-2.1688 0.1195,-2.5682 1.098,-0.5742 8.3141,-3.1616 8.817,-3.1616 0.2109,0 0.6748,0.8052 1.0307,1.7896 1.3349,3.6915 6.1457,6.0976 9.8383,4.9204 3.752,-1.1961 6.7023,-5.4396 6.2178,-8.943 -0.152,-1.0992 0.023,-1.1433 5.0894,-1.2853 l 5.2467,-0.1469 0.2597,2.3038 c 0.3341,2.9642 2.0754,5.38 4.755,6.597 2.6772,1.2158 4.1679,1.2158 6.8451,0 2.2685,-1.0303 4.0678,-3.1239 4.6383,-5.3969 0.1925,-0.767 0.5941,-1.3947 0.8925,-1.3947 0.2984,0 2.6109,0.6208 5.1389,1.3796 4.2145,1.2647 4.5635,1.4695 4.1988,2.4635 -0.7397,2.0166 -0.3438,6.0069 0.7415,7.4721 1.8141,2.4492 4.2131,3.7257 7.0024,3.7257 3.0324,0 5.0503,-0.9462 6.8081,-3.1922 l 1.2967,-1.6568 3.2871,2.173 c 5.7089,3.7742 5.4078,3.3563 4.0275,5.5895 -2.5029,4.0497 -0.8286,9.8224 3.4356,11.846 2.5295,1.2002 6.2519,0.8669 8.5441,-0.7653 l 1.7016,-1.2116 1.2558,1.5182 c 0.6907,0.8349 1.8335,2.3637 2.5395,3.3975 l 1.2837,1.8795 -1.5395,1.5394 c -3.289,3.2889 -3.1723,8.678 0.2581,11.9132 2.0146,1.9002 4.343,2.5109 7.6695,2.0122 l 2.2833,-0.3425 1.6032,4.1571 c 0.8817,2.2864 1.6025,4.4565 1.6017,4.8224 -5e-4,0.3657 -0.8687,1.1318 -1.9288,1.7023 -7.2985,3.9277 -4.7703,15.2711 3.4516,15.4866 l 1.9728,0.053 0.34,4.8373 c 0.1871,2.6605 0.204,5.0576 0.038,5.3267 -0.1663,0.2693 -0.7984,0.4893 -1.4047,0.4893 -1.91,0 -5.2715,1.9885 -6.5464,3.8721 -1.4726,2.176 -1.653,6.0156 -0.3968,8.4449 0.8887,1.7185 2.9399,3.3897 4.9134,4.0029 1.069,0.3322 1.1742,0.5969 0.8739,2.1974 -0.1877,1.0007 -0.7903,3.2729 -1.339,5.0496 l -0.9977,3.2301 -2.7868,-0.2311 c -5.1014,-0.4231 -8.5754,2.3457 -9.0425,7.2069 -0.2959,3.08 0.507,5.1695 2.7399,7.1299 l 1.6862,1.4807 -2.7767,4.0925 c -1.5272,2.2509 -2.9566,4.0779 -3.1764,4.0596 -0.2198,-0.018 -1.3262,-0.451 -2.4586,-0.9619 -5.2734,-2.3805 -10.9989,1.0362 -11.5623,6.8993 -0.1962,2.042 -0.012,3.0167 0.8504,4.4769 0.6057,1.0266 1.1012,2.0635 1.1012,2.3043 0,0.2411 -1.4366,1.5058 -3.1925,2.8105 l -3.1925,2.3724 -1.9631,-1.7735 c -3.3002,-2.9814 -7.5295,-3.0851 -10.9471,-0.268 -2.7181,2.2404 -3.6057,5.8045 -2.4463,9.8218 0.1548,0.536 -1.0541,1.2409 -4.191,2.4435 -5.0177,1.9236 -5.7052,2.0383 -5.7052,0.9537 0,-1.5327 -3.5467,-4.7704 -5.9683,-5.4484 -2.017,-0.5647 -2.6582,-0.5333 -4.6538,0.2289 -3.4558,1.3198 -6.372,5.5034 -5.8749,8.4283 0.1441,0.8478 -0.3568,0.9531 -5.1566,1.0866 l -5.3162,0.148 0,-1.3355 z m 15.7585,-32.6677 c 11.9352,-3.1059 22.4848,-10.1297 29.9268,-19.9245 3.5813,-4.7135 7.4682,-12.8121 9.1144,-18.9911 1.2194,-4.5768 1.3786,-6.133 1.3786,-13.4728 0,-7.3397 -0.1592,-8.8961 -1.3786,-13.4727 -5.0971,-19.1315 -19.9064,-33.9419 -38.8644,-38.8676 -28.994,-7.5333 -58.2569,9.7332 -66.1102,39.0078 -1.1888,4.4315 -1.3504,6.0273 -1.3504,13.3325 0,7.305 0.1616,8.901 1.3504,13.3324 5.6849,21.1918 22.1795,36.2681 43.9101,40.1353 5.9263,1.0546 15.6561,0.5777 22.0233,-1.0793 z m -20.945,-3.7326 c -19.0513,-3.1641 -34.6756,-17.0156 -39.9649,-35.4303 -1.5972,-5.5607 -1.98,-16.9002 -0.7717,-22.8632 3.7045,-18.2823 17.397,-32.9514 35.3188,-37.8376 5.8201,-1.5867 16.0384,-1.9515 22.1984,-0.7918 18.2167,3.4287 33.1223,17.1648 38.3069,35.3009 1.0265,3.5906 1.1861,5.3356 1.1861,12.9662 0,7.6304 -0.1596,9.3754 -1.1861,12.9663 -5.201,18.1937 -19.9873,31.7906 -38.4066,35.3175 -3.4806,0.6664 -13.5555,0.891 -16.6809,0.372 z m 18.8421,-16.4116 c 5.0473,-1.832 8.9395,-4.3152 12.7735,-8.1491 13.47,-13.47 13.47,-34.7202 0,-48.1903 -3.7785,-3.7783 -7.5916,-6.2301 -12.8189,-8.2423 -3.2046,-1.2337 -4.1459,-1.346 -11.2762,-1.346 -7.1304,0 -8.0717,0.1123 -11.2763,1.346 -5.3626,2.0642 -9.0874,4.4918 -13.1837,8.5923 -6.2522,6.2585 -9.6358,14.5775 -9.658,23.7452 -0.036,14.7188 9.3752,27.8062 23.3349,32.4519 6.5752,2.1879 15.7421,2.1018 22.1047,-0.2077 z m -149.0494,-18.111 c -0.014,-0.07 -0.1122,-1.1261 -0.2175,-2.3439 -0.4715,-5.456 -4.8561,-8.7123 -10.3448,-7.6825 -1.8048,0.3384 -5.076,2.9376 -5.6022,4.4508 -0.222,0.6386 -0.8634,0.4749 -3.5799,-0.9149 -1.8202,-0.9311 -3.8378,-2.1015 -4.4834,-2.6008 l -1.174,-0.9078 1.1159,-2.6412 c 0.784,-1.8556 1.0171,-3.1647 0.7835,-4.4009 -1.0797,-5.7147 -7.5009,-8.9959 -12.1079,-6.1869 l -1.6648,1.0152 -0.9916,-1.406 c -1.666,-2.3622 -3.8727,-7.0595 -3.3926,-7.2217 3.6021,-1.2172 6.238,-5.4214 5.6353,-8.9885 -0.7158,-4.2368 -4.2058,-7.2384 -8.4161,-7.2384 l -2.2124,0 0.01,-4.0196 c 0.01,-5.9387 0.1952,-6.3534 2.8293,-6.3534 5.7075,0 9.9065,-6.8447 7.296,-11.8929 -0.7501,-1.4506 -3.3029,-3.897 -4.4736,-4.2873 -0.6855,-0.2285 0.8057,-3.455 3.2385,-7.0063 l 1.4941,-2.1817 1.8883,1.1143 c 4.1397,2.4425 9.4684,0.8644 11.5415,-3.4179 1.3455,-2.7795 1.3582,-4.7452 0.047,-7.3166 -0.6388,-1.2531 -0.8496,-2.2278 -0.5578,-2.5793 0.258,-0.3108 2.0263,-1.3792 3.9295,-2.3745 3.3581,-1.7557 3.4782,-1.779 4.0587,-0.7877 1.1593,1.9798 3.5673,3.897 5.5724,4.4371 5.1601,1.3893 10.326,-2.613 10.326,-8.0006 l 0,-1.8666 5.1197,0 5.1196,0 0.3358,2.5309 c 0.8383,6.3195 6.7475,9.6098 12.2331,6.8112 1.1115,-0.5669 2.4362,-1.734 2.9437,-2.5932 0.5076,-0.8594 1.1316,-1.5624 1.3868,-1.5624 0.6204,0 6.0123,2.9107 7.4882,4.0423 l 1.1739,0.9 -1.1159,2.6412 c -1.8002,4.2609 -0.3254,8.5181 3.6542,10.5486 2.5844,1.3181 4.9643,1.3448 7.4397,0.082 2.2077,-1.1256 2.0776,-1.2228 4.6799,3.498 l 1.8195,3.301 -2.227,2.1447 c -5.6063,5.4 -3.2143,13.1486 4.506,14.5971 1.6414,0.3077 1.9217,0.5829 2.2212,2.1792 0.1885,1.005 0.1832,3.3169 -0.012,5.1379 -0.346,3.2306 -0.3912,3.3108 -1.8667,3.3108 -3.618,0 -7.3486,3.0308 -7.9991,6.4984 -0.5985,3.1903 0.1874,5.497 2.6915,7.9002 2.6045,2.4992 2.6645,2.0039 -0.9347,7.7232 l -2.008,3.1907 -2.5047,-1.0582 c -2.9212,-1.2341 -5.2207,-1.0036 -7.9111,0.7937 -3.2591,2.177 -4.5081,6.8804 -2.7367,10.3058 0.4521,0.8742 0.6272,1.7749 0.389,2.0012 -0.2383,0.2264 -2.0369,1.2867 -3.9971,2.3565 -3.3934,1.8521 -3.5902,1.8977 -4.1144,0.9553 -1.0751,-1.933 -3.3284,-3.7576 -5.4105,-4.3816 -5.2883,-1.5843 -10.5097,2.2782 -10.5097,7.7743 l 0,2.1005 -5.1866,0 c -2.8525,0 -5.1982,-0.059 -5.2125,-0.1302 z m 13.8393,-26.3804 c 10.6,-3.2742 18.3431,-13.9772 18.3431,-25.355 0,-7.2003 -2.6396,-13.5239 -7.848,-18.8012 -10.3909,-10.5284 -26.454,-10.7837 -37.2572,-0.5925 -5.7053,5.382 -8.3158,11.4825 -8.3158,19.4332 0,11.9602 7.322,21.8382 18.9307,25.539 4.9687,1.584 10.5447,1.5069 16.1472,-0.2235 z"
       id="path13435"
       inkscape:connector-curvature="0" />
    <g
       id="g13858"
       transform="translate(-109.06491,730.39358)">
      <rect
         style="opacity:0.98999999;fill:#000000;fill-opacity:0;stroke:#363636;stroke-width:7.08661509;stroke-linecap:round;stroke-linejoin:round;stroke-miterlimit:4;stroke-dasharray:none;stroke-dashoffset:0;stroke-opacity:1"
         id="rect13128"
         width="342.91339"
         height="342.91339"
         x="-225.15121"
         y="269.47693"
         ry="44.374783" />
      <g
         transform="translate(150.90618,-358.78922)"
         id="g13178">
        <rect
           style="opacity:1;fill:none;fill-opacity:1;stroke:#175daf;stroke-width:10.62992096;stroke-linecap:round;stroke-linejoin:round;stroke-miterlimit:4;stroke-dasharray:none;stroke-dashoffset:0;stroke-opacity:0.99215686"
           id="rect13136"
           width="219.37007"
           height="151.42857"
           x="-314.28574"
           y="702.36218"
           ry="20"
           rx="0.35714287" />
        <rect
           style="opacity:1;fill:#165cb0;fill-opacity:0.98431373;stroke:#175daf;stroke-width:10.62992096;stroke-linecap:round;stroke-linejoin:round;stroke-miterlimit:4;stroke-dasharray:none;stroke-dashoffset:0;stroke-opacity:0.99215686"
           id="rect13138"
           width="71.428574"
           height="37.87817"
           x="-236.42859"
           y="855.21936"
           ry="0"
           rx="0" />
        <path
           style="opacity:1;fill:none;fill-rule:evenodd;stroke:#165bb0;stroke-width:10.62992096;stroke-linecap:round;stroke-linejoin:round;stroke-miterlimit:4;stroke-dasharray:none;stroke-opacity:0.97647059"
           d="m -282.03158,897.08298 162.63456,0"
           id="path13140"
           inkscape:connector-curvature="0" />
        <g
           id="g13162"
           transform="translate(20,-0.15610058)"
           style="opacity:1">
          <path
             style="fill:none;fill-rule:evenodd;stroke:#165bb0;stroke-width:10.62992096;stroke-linecap:round;stroke-linejoin:round;stroke-miterlimit:4;stroke-dasharray:none;stroke-opacity:0.97647059"
             d="m -285.80442,725.08297 67.14468,0"
             id="path13142"
             inkscape:connector-curvature="0" />
          <path
             inkscape:connector-curvature="0"
             id="path13144"
             d="m -260.95304,746.34281 54.57966,0"
             style="fill:none;fill-rule:evenodd;stroke:#165bb0;stroke-width:10.62992096;stroke-linecap:round;stroke-linejoin:round;stroke-miterlimit:4;stroke-dasharray:none;stroke-opacity:0.97647059" />
          <path
             inkscape:connector-curvature="0"
             id="path13152"
             d="m -260.95304,788.86249 54.57966,0"
             style="fill:none;fill-rule:evenodd;stroke:#165bb0;stroke-width:10.62992096;stroke-linecap:round;stroke-linejoin:round;stroke-miterlimit:4;stroke-dasharray:none;stroke-opacity:0.97647059" />
          <path
             inkscape:connector-curvature="0"
             id="path13156"
             d="m -285.80442,767.60265 67.14468,0"
             style="fill:none;fill-rule:evenodd;stroke:#165bb0;stroke-width:10.62992096;stroke-linecap:round;stroke-linejoin:round;stroke-miterlimit:4;stroke-dasharray:none;stroke-opacity:0.97647059" />
          <path
             style="fill:none;fill-rule:evenodd;stroke:#165bb0;stroke-width:10.62992096;stroke-linecap:round;stroke-linejoin:round;stroke-miterlimit:4;stroke-dasharray:none;stroke-opacity:0.97647059"
             d="m -260.95304,810.12233 54.57966,0"
             id="path13158"
             inkscape:connector-curvature="0" />
          <path
             style="fill:none;fill-rule:evenodd;stroke:#165bb0;stroke-width:10.62992096;stroke-linecap:round;stroke-linejoin:round;stroke-miterlimit:4;stroke-dasharray:none;stroke-opacity:0.97647059"
             d="m -285.80442,831.38217 67.14468,0"
             id="path13160"
             inkscape:connector-curvature="0" />
        </g>
        <rect
           rx="0"
           ry="6.2605138"
           y="850.48407"
           x="-314.28574"
           height="12.521028"
           width="219.37007"
           id="rect13170"
           style="opacity:1;fill:#165cb0;fill-opacity:0.98431373;stroke:#175daf;stroke-width:10.62992096;stroke-linecap:round;stroke-linejoin:round;stroke-miterlimit:4;stroke-dasharray:none;stroke-dashoffset:0;stroke-opacity:0.99215686" />
        <circle
           style="opacity:1;fill:#ffffff;fill-opacity:0.98431373;stroke:none;stroke-width:10.62992096;stroke-linecap:round;stroke-linejoin:round;stroke-miterlimit:4;stroke-dasharray:none;stroke-dashoffset:0;stroke-opacity:0.97647059"
           id="path13172"
           cx="-111.25299"
           cy="856.55444"
           r="6.5944524" />
        <circle
           r="6.5944524"
           cy="856.55444"
           cx="-127.25299"
           id="circle13174"
           style="opacity:1;fill:#ffffff;fill-opacity:0.98431373;stroke:none;stroke-width:10.62992096;stroke-linecap:round;stroke-linejoin:round;stroke-miterlimit:4;stroke-dasharray:none;stroke-dashoffset:0;stroke-opacity:0.97647059" />
        <circle
           style="opacity:1;fill:#ffffff;fill-opacity:0.98431373;stroke:none;stroke-width:10.62992096;stroke-linecap:round;stroke-linejoin:round;stroke-miterlimit:4;stroke-dasharray:none;stroke-dashoffset:0;stroke-opacity:0.97647059"
           id="circle13176"
           cx="-143.25299"
           cy="856.55444"
           r="6.5944524" />
      </g>
    </g>
    <g
       transform="translate(-109.06491,305.19678)"
       id="g13999">
      <rect
         ry="44.374783"
         y="269.47693"
         x="-225.15121"
         height="342.91339"
         width="342.91339"
         id="rect14001"
         style="opacity:0.98999999;fill:#000000;fill-opacity:0;stroke:#363636;stroke-width:7.08661509;stroke-linecap:round;stroke-linejoin:round;stroke-miterlimit:4;stroke-dasharray:none;stroke-dashoffset:0;stroke-opacity:1" />
      <g
         id="g14003"
         transform="translate(150.90618,-358.78922)">
        <rect
           rx="0.35714287"
           ry="20"
           y="702.36218"
           x="-314.28574"
           height="151.42857"
           width="219.37007"
           id="rect14005"
           style="opacity:1;fill:none;fill-opacity:1;stroke:#175daf;stroke-width:10.62992096;stroke-linecap:round;stroke-linejoin:round;stroke-miterlimit:4;stroke-dasharray:none;stroke-dashoffset:0;stroke-opacity:0.99215686" />
        <rect
           rx="0"
           ry="0"
           y="855.21936"
           x="-236.42859"
           height="37.87817"
           width="71.428574"
           id="rect14007"
           style="opacity:1;fill:#165cb0;fill-opacity:0.98431373;stroke:#175daf;stroke-width:10.62992096;stroke-linecap:round;stroke-linejoin:round;stroke-miterlimit:4;stroke-dasharray:none;stroke-dashoffset:0;stroke-opacity:0.99215686" />
        <path
           inkscape:connector-curvature="0"
           id="path14009"
           d="m -282.03158,897.08298 162.63456,0"
           style="opacity:1;fill:none;fill-rule:evenodd;stroke:#165bb0;stroke-width:10.62992096;stroke-linecap:round;stroke-linejoin:round;stroke-miterlimit:4;stroke-dasharray:none;stroke-opacity:0.97647059" />
        <g
           style="opacity:1"
           transform="translate(20,-0.15610058)"
           id="g14011">
          <path
             inkscape:connector-curvature="0"
             id="path14013"
             d="m -285.80442,725.08297 67.14468,0"
             style="fill:none;fill-rule:evenodd;stroke:#165bb0;stroke-width:10.62992096;stroke-linecap:round;stroke-linejoin:round;stroke-miterlimit:4;stroke-dasharray:none;stroke-opacity:0.97647059" />
          <path
             style="fill:none;fill-rule:evenodd;stroke:#165bb0;stroke-width:10.62992096;stroke-linecap:round;stroke-linejoin:round;stroke-miterlimit:4;stroke-dasharray:none;stroke-opacity:0.97647059"
             d="m -260.95304,746.34281 54.57966,0"
             id="path14015"
             inkscape:connector-curvature="0" />
          <path
             style="fill:none;fill-rule:evenodd;stroke:#165bb0;stroke-width:10.62992096;stroke-linecap:round;stroke-linejoin:round;stroke-miterlimit:4;stroke-dasharray:none;stroke-opacity:0.97647059"
             d="m -260.95304,788.86249 54.57966,0"
             id="path14017"
             inkscape:connector-curvature="0" />
          <path
             style="fill:none;fill-rule:evenodd;stroke:#165bb0;stroke-width:10.62992096;stroke-linecap:round;stroke-linejoin:round;stroke-miterlimit:4;stroke-dasharray:none;stroke-opacity:0.97647059"
             d="m -285.80442,767.60265 67.14468,0"
             id="path14019"
             inkscape:connector-curvature="0" />
          <path
             inkscape:connector-curvature="0"
             id="path14021"
             d="m -260.95304,810.12233 54.57966,0"
             style="fill:none;fill-rule:evenodd;stroke:#165bb0;stroke-width:10.62992096;stroke-linecap:round;stroke-linejoin:round;stroke-miterlimit:4;stroke-dasharray:none;stroke-opacity:0.97647059" />
          <path
             inkscape:connector-curvature="0"
             id="path14023"
             d="m -285.80442,831.38217 67.14468,0"
             style="fill:none;fill-rule:evenodd;stroke:#165bb0;stroke-width:10.62992096;stroke-linecap:round;stroke-linejoin:round;stroke-miterlimit:4;stroke-dasharray:none;stroke-opacity:0.97647059" />
        </g>
        <rect
           style="opacity:1;fill:#165cb0;fill-opacity:0.98431373;stroke:#175daf;stroke-width:10.62992096;stroke-linecap:round;stroke-linejoin:round;stroke-miterlimit:4;stroke-dasharray:none;stroke-dashoffset:0;stroke-opacity:0.99215686"
           id="rect14025"
           width="219.37007"
           height="12.521028"
           x="-314.28574"
           y="850.48407"
           ry="6.2605138"
           rx="0" />
        <circle
           r="6.5944524"
           cy="856.55444"
           cx="-111.25299"
           id="circle14027"
           style="opacity:1;fill:#ffffff;fill-opacity:0.98431373;stroke:none;stroke-width:10.62992096;stroke-linecap:round;stroke-linejoin:round;stroke-miterlimit:4;stroke-dasharray:none;stroke-dashoffset:0;stroke-opacity:0.97647059" />
        <circle
           style="opacity:1;fill:#ffffff;fill-opacity:0.98431373;stroke:none;stroke-width:10.62992096;stroke-linecap:round;stroke-linejoin:round;stroke-miterlimit:4;stroke-dasharray:none;stroke-dashoffset:0;stroke-opacity:0.97647059"
           id="circle14029"
           cx="-127.25299"
           cy="856.55444"
           r="6.5944524" />
        <circle
           r="6.5944524"
           cy="856.55444"
           cx="-143.25299"
           id="circle14031"
           style="opacity:1;fill:#ffffff;fill-opacity:0.98431373;stroke:none;stroke-width:10.62992096;stroke-linecap:round;stroke-linejoin:round;stroke-miterlimit:4;stroke-dasharray:none;stroke-dashoffset:0;stroke-opacity:0.97647059" />
      </g>
    </g>
    <rect
       style="opacity:0.98999999;fill:#000000;fill-opacity:0;stroke:#363636;stroke-width:7.08661509;stroke-linecap:round;stroke-linejoin:round;stroke-miterlimit:4;stroke-dasharray:none;stroke-dashoffset:0;stroke-opacity:1"
       id="rect14047"
       width="342.91339"
       height="342.91339"
       x="-334.21613"
       y="149.47687"
       ry="44.374783" />
    <g
       transform="translate(41.841272,-478.78924)"
       id="g14049">
      <rect
         style="opacity:1;fill:none;fill-opacity:1;stroke:#175daf;stroke-width:10.62992096;stroke-linecap:round;stroke-linejoin:round;stroke-miterlimit:4;stroke-dasharray:none;stroke-dashoffset:0;stroke-opacity:0.99215686"
         id="rect14051"
         width="219.37007"
         height="151.42857"
         x="-314.28574"
         y="702.36218"
         ry="20"
         rx="0.35714287" />
      <rect
         style="opacity:1;fill:#165cb0;fill-opacity:0.98431373;stroke:#175daf;stroke-width:10.62992096;stroke-linecap:round;stroke-linejoin:round;stroke-miterlimit:4;stroke-dasharray:none;stroke-dashoffset:0;stroke-opacity:0.99215686"
         id="rect14053"
         width="71.428574"
         height="37.87817"
         x="-236.42859"
         y="855.21936"
         ry="0"
         rx="0" />
      <path
         style="opacity:1;fill:none;fill-rule:evenodd;stroke:#165bb0;stroke-width:10.62992096;stroke-linecap:round;stroke-linejoin:round;stroke-miterlimit:4;stroke-dasharray:none;stroke-opacity:0.97647059"
         d="m -282.03158,897.08298 162.63456,0"
         id="path14055"
         inkscape:connector-curvature="0" />
      <g
         id="g14057"
         transform="translate(20,-0.15610058)"
         style="opacity:1">
        <path
           style="fill:none;fill-rule:evenodd;stroke:#165bb0;stroke-width:10.62992096;stroke-linecap:round;stroke-linejoin:round;stroke-miterlimit:4;stroke-dasharray:none;stroke-opacity:0.97647059"
           d="m -285.80442,725.08297 67.14468,0"
           id="path14059"
           inkscape:connector-curvature="0" />
        <path
           inkscape:connector-curvature="0"
           id="path14061"
           d="m -260.95304,746.34281 54.57966,0"
           style="fill:none;fill-rule:evenodd;stroke:#165bb0;stroke-width:10.62992096;stroke-linecap:round;stroke-linejoin:round;stroke-miterlimit:4;stroke-dasharray:none;stroke-opacity:0.97647059" />
        <path
           inkscape:connector-curvature="0"
           id="path14063"
           d="m -260.95304,788.86249 54.57966,0"
           style="fill:none;fill-rule:evenodd;stroke:#165bb0;stroke-width:10.62992096;stroke-linecap:round;stroke-linejoin:round;stroke-miterlimit:4;stroke-dasharray:none;stroke-opacity:0.97647059" />
        <path
           inkscape:connector-curvature="0"
           id="path14065"
           d="m -285.80442,767.60265 67.14468,0"
           style="fill:none;fill-rule:evenodd;stroke:#165bb0;stroke-width:10.62992096;stroke-linecap:round;stroke-linejoin:round;stroke-miterlimit:4;stroke-dasharray:none;stroke-opacity:0.97647059" />
        <path
           style="fill:none;fill-rule:evenodd;stroke:#165bb0;stroke-width:10.62992096;stroke-linecap:round;stroke-linejoin:round;stroke-miterlimit:4;stroke-dasharray:none;stroke-opacity:0.97647059"
           d="m -260.95304,810.12233 54.57966,0"
           id="path14067"
           inkscape:connector-curvature="0" />
        <path
           style="fill:none;fill-rule:evenodd;stroke:#165bb0;stroke-width:10.62992096;stroke-linecap:round;stroke-linejoin:round;stroke-miterlimit:4;stroke-dasharray:none;stroke-opacity:0.97647059"
           d="m -285.80442,831.38217 67.14468,0"
           id="path14069"
           inkscape:connector-curvature="0" />
      </g>
      <rect
         rx="0"
         ry="6.2605138"
         y="850.48407"
         x="-314.28574"
         height="12.521028"
         width="219.37007"
         id="rect14071"
         style="opacity:1;fill:#165cb0;fill-opacity:0.98431373;stroke:#175daf;stroke-width:10.62992096;stroke-linecap:round;stroke-linejoin:round;stroke-miterlimit:4;stroke-dasharray:none;stroke-dashoffset:0;stroke-opacity:0.99215686" />
      <circle
         style="opacity:1;fill:#ffffff;fill-opacity:0.98431373;stroke:none;stroke-width:10.62992096;stroke-linecap:round;stroke-linejoin:round;stroke-miterlimit:4;stroke-dasharray:none;stroke-dashoffset:0;stroke-opacity:0.97647059"
         id="circle14073"
         cx="-111.25299"
         cy="856.55444"
         r="6.5944524" />
      <circle
         r="6.5944524"
         cy="856.55444"
         cx="-127.25299"
         id="circle14075"
         style="opacity:1;fill:#ffffff;fill-opacity:0.98431373;stroke:none;stroke-width:10.62992096;stroke-linecap:round;stroke-linejoin:round;stroke-miterlimit:4;stroke-dasharray:none;stroke-dashoffset:0;stroke-opacity:0.97647059" />
      <circle
         style="opacity:1;fill:#ffffff;fill-opacity:0.98431373;stroke:none;stroke-width:10.62992096;stroke-linecap:round;stroke-linejoin:round;stroke-miterlimit:4;stroke-dasharray:none;stroke-dashoffset:0;stroke-opacity:0.97647059"
         id="circle14077"
         cx="-143.25299"
         cy="856.55444"
         r="6.5944524" />
    </g>
    <g
       id="g5543">
      <path
         style="color:#000000;font-style:normal;font-variant:normal;font-weight:normal;font-stretch:normal;font-size:medium;line-height:normal;font-family:sans-serif;text-indent:0;text-align:start;text-decoration:none;text-decoration-line:none;text-decoration-style:solid;text-decoration-color:#000000;letter-spacing:normal;word-spacing:normal;text-transform:none;direction:ltr;block-progression:tb;writing-mode:lr-tb;baseline-shift:baseline;text-anchor:start;white-space:normal;clip-rule:nonzero;display:inline;overflow:visible;visibility:visible;opacity:1;isolation:auto;mix-blend-mode:normal;color-interpolation:sRGB;color-interpolation-filters:linearRGB;solid-color:#000000;solid-opacity:1;fill:#363636;fill-opacity:1;fill-rule:evenodd;stroke:none;stroke-width:7.08699942;stroke-linecap:butt;stroke-linejoin:miter;stroke-miterlimit:4;stroke-dasharray:none;stroke-dashoffset:0;stroke-opacity:1;color-rendering:auto;image-rendering:auto;shape-rendering:auto;text-rendering:auto;enable-background:accumulate"
         d="m -166.30273,940.66602 0,36.59765 7.08593,0 0,-36.59765 -7.08593,0 z"
         id="path14097"
         inkscape:connector-curvature="0" />
      <path
         inkscape:connector-curvature="0"
         style="fill:#363636;fill-opacity:1;fill-rule:evenodd;stroke:#363636;stroke-width:0.39999998pt;stroke-opacity:1"
         d="m -162.75943,993.62028 -14.174,-24.52101 28.348,0 -14.174,24.52101 z"
         id="path5549" />
      <path
         id="path5551"
         d="m -162.75943,924.31019 14.174,24.52101 -28.348,0 14.174,-24.52101 z"
         style="fill:#363636;fill-opacity:1;fill-rule:evenodd;stroke:#363636;stroke-width:0.39999998pt;stroke-opacity:1"
         inkscape:connector-curvature="0" />
    </g>
    <g
       id="g5565">
      <path
         style="color:#000000;font-style:normal;font-variant:normal;font-weight:normal;font-stretch:normal;font-size:medium;line-height:normal;font-family:sans-serif;text-indent:0;text-align:start;text-decoration:none;text-decoration-line:none;text-decoration-style:solid;text-decoration-color:#000000;letter-spacing:normal;word-spacing:normal;text-transform:none;direction:ltr;block-progression:tb;writing-mode:lr-tb;baseline-shift:baseline;text-anchor:start;white-space:normal;clip-rule:nonzero;display:inline;overflow:visible;visibility:visible;opacity:1;isolation:auto;mix-blend-mode:normal;color-interpolation:sRGB;color-interpolation-filters:linearRGB;solid-color:#000000;solid-opacity:1;fill:#363636;fill-opacity:1;fill-rule:evenodd;stroke:none;stroke-width:7.08699942;stroke-linecap:butt;stroke-linejoin:miter;stroke-miterlimit:4;stroke-dasharray:none;stroke-dashoffset:0;stroke-opacity:1;color-rendering:auto;image-rendering:auto;shape-rendering:auto;text-rendering:auto;enable-background:accumulate"
         d="m -166.30273,515.83008 0,36.59765 7.08593,0 0,-36.59765 -7.08593,0 z"
         id="path15227"
         inkscape:connector-curvature="0" />
      <path
         inkscape:connector-curvature="0"
         id="path5571"
         d="m -162.75943,568.78402 -14.174,-24.52101 28.348,0 -14.174,24.52101 z"
         style="fill:#363636;fill-opacity:1;fill-rule:evenodd;stroke:#363636;stroke-width:0.39999998pt;stroke-opacity:1" />
      <path
         inkscape:connector-curvature="0"
         style="fill:#363636;fill-opacity:1;fill-rule:evenodd;stroke:#363636;stroke-width:0.39999998pt;stroke-opacity:1"
         d="m -162.75943,499.47393 14.174,24.52101 -28.348,0 14.174,-24.52101 z"
         id="path5573" />
    </g>
    <g
       id="g5445">
      <path
         style="color:#000000;font-style:normal;font-variant:normal;font-weight:normal;font-stretch:normal;font-size:medium;line-height:normal;font-family:sans-serif;text-indent:0;text-align:start;text-decoration:none;text-decoration-line:none;text-decoration-style:solid;text-decoration-color:#000000;letter-spacing:normal;word-spacing:normal;text-transform:none;direction:ltr;block-progression:tb;writing-mode:lr-tb;baseline-shift:baseline;text-anchor:start;white-space:normal;clip-rule:nonzero;display:inline;overflow:visible;visibility:visible;opacity:1;isolation:auto;mix-blend-mode:normal;color-interpolation:sRGB;color-interpolation-filters:linearRGB;solid-color:#000000;solid-opacity:1;fill:#363636;fill-opacity:1;fill-rule:evenodd;stroke:none;stroke-width:7.08700085;stroke-linecap:butt;stroke-linejoin:miter;stroke-miterlimit:4;stroke-dasharray:none;stroke-dashoffset:0;stroke-opacity:1;color-rendering:auto;image-rendering:auto;shape-rendering:auto;text-rendering:auto;enable-background:accumulate"
         d="m 12.240234,352.82227 0,7.08789 90.396486,0 0,-7.08789 -90.396486,0 z"
         id="path13927"
         inkscape:connector-curvature="0" />
      <path
         inkscape:connector-curvature="0"
         style="fill:#363636;fill-opacity:1;fill-rule:evenodd;stroke:#363636;stroke-width:0.4pt;stroke-opacity:1"
         d="m 118.99293,356.36663 -24.521025,14.174 0,-28.348 24.521025,14.174 z"
         id="path5451" />
    </g>
    <g
       id="g5437">
      <path
         style="color:#000000;font-style:normal;font-variant:normal;font-weight:normal;font-stretch:normal;font-size:medium;line-height:normal;font-family:sans-serif;text-indent:0;text-align:start;text-decoration:none;text-decoration-line:none;text-decoration-style:solid;text-decoration-color:#000000;letter-spacing:normal;word-spacing:normal;text-transform:none;direction:ltr;block-progression:tb;writing-mode:lr-tb;baseline-shift:baseline;text-anchor:start;white-space:normal;clip-rule:nonzero;display:inline;overflow:visible;visibility:visible;opacity:1;isolation:auto;mix-blend-mode:normal;color-interpolation:sRGB;color-interpolation-filters:linearRGB;solid-color:#000000;solid-opacity:1;fill:#363636;fill-opacity:1;fill-rule:evenodd;stroke:none;stroke-width:7.08700085;stroke-linecap:butt;stroke-linejoin:miter;stroke-miterlimit:4;stroke-dasharray:none;stroke-dashoffset:0;stroke-opacity:1;color-rendering:auto;image-rendering:auto;shape-rendering:auto;text-rendering:auto;enable-background:accumulate"
         d="m 32.138672,281.95703 0,7.08789 90.394528,0 0,-7.08789 -90.394528,0 z"
         id="path15633"
         inkscape:connector-curvature="0" />
      <path
         id="path5443"
         d="m 15.780927,285.50049 24.521023,-14.174 0,28.348 -24.521023,-14.174 z"
         style="fill:#363636;fill-opacity:1;fill-rule:evenodd;stroke:#363636;stroke-width:0.4pt;stroke-opacity:1"
         inkscape:connector-curvature="0" />
    </g>
    <g
       id="g5429">
      <path
         style="color:#000000;font-style:normal;font-variant:normal;font-weight:normal;font-stretch:normal;font-size:medium;line-height:normal;font-family:sans-serif;text-indent:0;text-align:start;text-decoration:none;text-decoration-line:none;text-decoration-style:solid;text-decoration-color:#000000;letter-spacing:normal;word-spacing:normal;text-transform:none;direction:ltr;block-progression:tb;writing-mode:lr-tb;baseline-shift:baseline;text-anchor:start;white-space:normal;clip-rule:nonzero;display:inline;overflow:visible;visibility:visible;opacity:1;isolation:auto;mix-blend-mode:normal;color-interpolation:sRGB;color-interpolation-filters:linearRGB;solid-color:#000000;solid-opacity:1;fill:#363636;fill-opacity:1;fill-rule:evenodd;stroke:none;stroke-width:7.08700085;stroke-linecap:butt;stroke-linejoin:miter;stroke-miterlimit:4;stroke-dasharray:none;stroke-dashoffset:0;stroke-opacity:1;color-rendering:auto;image-rendering:auto;shape-rendering:auto;text-rendering:auto;enable-background:accumulate"
         d="m 12.240234,778.01953 0,7.08789 90.396486,0 0,-7.08789 -90.396486,0 z"
         id="path15941"
         inkscape:connector-curvature="0" />
      <path
         inkscape:connector-curvature="0"
         style="fill:#363636;fill-opacity:1;fill-rule:evenodd;stroke:#363636;stroke-width:0.4pt;stroke-opacity:1"
         d="m 118.99293,781.56347 -24.521025,14.174 0,-28.348 24.521025,14.174 z"
         id="path5435" />
    </g>
    <g
       id="g5421">
      <path
         style="color:#000000;font-style:normal;font-variant:normal;font-weight:normal;font-stretch:normal;font-size:medium;line-height:normal;font-family:sans-serif;text-indent:0;text-align:start;text-decoration:none;text-decoration-line:none;text-decoration-style:solid;text-decoration-color:#000000;letter-spacing:normal;word-spacing:normal;text-transform:none;direction:ltr;block-progression:tb;writing-mode:lr-tb;baseline-shift:baseline;text-anchor:start;white-space:normal;clip-rule:nonzero;display:inline;overflow:visible;visibility:visible;opacity:1;isolation:auto;mix-blend-mode:normal;color-interpolation:sRGB;color-interpolation-filters:linearRGB;solid-color:#000000;solid-opacity:1;fill:#363636;fill-opacity:1;fill-rule:evenodd;stroke:none;stroke-width:7.08700085;stroke-linecap:butt;stroke-linejoin:miter;stroke-miterlimit:4;stroke-dasharray:none;stroke-dashoffset:0;stroke-opacity:1;color-rendering:auto;image-rendering:auto;shape-rendering:auto;text-rendering:auto;enable-background:accumulate"
         d="m 32.138672,707.1543 0,7.08593 90.394528,0 0,-7.08593 -90.394528,0 z"
         id="path15943"
         inkscape:connector-curvature="0" />
      <path
         id="path5427"
         d="m 15.780927,710.69733 24.521023,-14.174 0,28.348 -24.521023,-14.174 z"
         style="fill:#363636;fill-opacity:1;fill-rule:evenodd;stroke:#363636;stroke-width:0.4pt;stroke-opacity:1"
         inkscape:connector-curvature="0" />
    </g>
    <g
       id="g5413">
      <path
         style="color:#000000;font-style:normal;font-variant:normal;font-weight:normal;font-stretch:normal;font-size:medium;line-height:normal;font-family:sans-serif;text-indent:0;text-align:start;text-decoration:none;text-decoration-line:none;text-decoration-style:solid;text-decoration-color:#000000;letter-spacing:normal;word-spacing:normal;text-transform:none;direction:ltr;block-progression:tb;writing-mode:lr-tb;baseline-shift:baseline;text-anchor:start;white-space:normal;clip-rule:nonzero;display:inline;overflow:visible;visibility:visible;opacity:1;isolation:auto;mix-blend-mode:normal;color-interpolation:sRGB;color-interpolation-filters:linearRGB;solid-color:#000000;solid-opacity:1;fill:#363636;fill-opacity:1;fill-rule:evenodd;stroke:none;stroke-width:7.08700085;stroke-linecap:butt;stroke-linejoin:miter;stroke-miterlimit:4;stroke-dasharray:none;stroke-dashoffset:0;stroke-opacity:1;color-rendering:auto;image-rendering:auto;shape-rendering:auto;text-rendering:auto;enable-background:accumulate"
         d="m 12.240234,1203.2168 0,7.0879 90.396486,0 0,-7.0879 -90.396486,0 z"
         id="path15947"
         inkscape:connector-curvature="0" />
      <path
         id="path5419"
         d="m 118.99293,1206.7603 -24.521025,14.174 0,-28.348 24.521025,14.174 z"
         style="fill:#363636;fill-opacity:1;fill-rule:evenodd;stroke:#363636;stroke-width:0.4pt;stroke-opacity:1"
         inkscape:connector-curvature="0" />
    </g>
    <g
       id="g5317">
      <path
         style="color:#000000;font-style:normal;font-variant:normal;font-weight:normal;font-stretch:normal;font-size:medium;line-height:normal;font-family:sans-serif;text-indent:0;text-align:start;text-decoration:none;text-decoration-line:none;text-decoration-style:solid;text-decoration-color:#000000;letter-spacing:normal;word-spacing:normal;text-transform:none;direction:ltr;block-progression:tb;writing-mode:lr-tb;baseline-shift:baseline;text-anchor:start;white-space:normal;clip-rule:nonzero;display:inline;overflow:visible;visibility:visible;opacity:1;isolation:auto;mix-blend-mode:normal;color-interpolation:sRGB;color-interpolation-filters:linearRGB;solid-color:#000000;solid-opacity:1;fill:#363636;fill-opacity:1;fill-rule:evenodd;stroke:none;stroke-width:7.08700085;stroke-linecap:butt;stroke-linejoin:miter;stroke-miterlimit:4;stroke-dasharray:none;stroke-dashoffset:0;stroke-opacity:1;color-rendering:auto;image-rendering:auto;shape-rendering:auto;text-rendering:auto;enable-background:accumulate"
         d="m 32.138672,1132.3516 0,7.0859 90.394528,0 0,-7.0859 -90.394528,0 z"
         id="path15949"
         inkscape:connector-curvature="0" />
      <path
         inkscape:connector-curvature="0"
         style="fill:#363636;fill-opacity:1;fill-rule:evenodd;stroke:#363636;stroke-width:0.4pt;stroke-opacity:1"
         d="m 15.780927,1135.8942 24.521023,-14.174 0,28.348 -24.521023,-14.174 z"
         id="path5323" />
    </g>
  </g>
</svg>
