<?xml version="1.0" encoding="UTF-8" standalone="no"?>
<!-- Created with Inkscape (http://www.inkscape.org/) -->

<svg
   xmlns:dc="http://purl.org/dc/elements/1.1/"
   xmlns:cc="http://creativecommons.org/ns#"
   xmlns:rdf="http://www.w3.org/1999/02/22-rdf-syntax-ns#"
   xmlns:svg="http://www.w3.org/2000/svg"
   xmlns="http://www.w3.org/2000/svg"
   xmlns:sodipodi="http://sodipodi.sourceforge.net/DTD/sodipodi-0.dtd"
   xmlns:inkscape="http://www.inkscape.org/namespaces/inkscape"
   width="338.77774mm"
   height="98.777763mm"
   viewBox="0 0 1200.3936 349.99996"
   id="svg8537"
   version="1.1"
   inkscape:version="0.91 r13725"
   sodipodi:docname="multisys.svg">
  <defs
     id="defs8539">
    <marker
       inkscape:stockid="TriangleInM"
       orient="auto"
       refY="0"
       refX="0"
       id="TriangleInM"
       style="overflow:visible"
       inkscape:isstock="true">
      <path
         id="path13239"
         d="m 5.77,0 -8.65,5 0,-10 8.65,5 z"
         style="fill-rule:evenodd;stroke:#000000;stroke-width:1pt"
         transform="scale(-0.4,-0.4)"
         inkscape:connector-curvature="0" />
    </marker>
    <marker
       inkscape:stockid="TriangleOutM"
       orient="auto"
       refY="0"
       refX="0"
       id="TriangleOutM"
       style="overflow:visible"
       inkscape:isstock="true">
      <path
         id="path13248"
         d="m 5.77,0 -8.65,5 0,-10 8.65,5 z"
         style="fill-rule:evenodd;stroke:#000000;stroke-width:1pt"
         transform="scale(0.4,0.4)"
         inkscape:connector-curvature="0" />
    </marker>
    <marker
       inkscape:isstock="true"
       style="overflow:visible"
       id="marker16027"
       refX="0"
       refY="0"
       orient="auto"
       inkscape:stockid="TriangleOutM">
      <path
         inkscape:connector-curvature="0"
         transform="scale(0.4,0.4)"
         style="fill:#363636;fill-opacity:1;fill-rule:evenodd;stroke:#363636;stroke-width:1pt;stroke-opacity:1"
         d="m 5.77,0 -8.65,5 0,-10 8.65,5 z"
         id="path16029" />
    </marker>
    <marker
       inkscape:isstock="true"
       style="overflow:visible"
       id="marker15951"
       refX="0"
       refY="0"
       orient="auto"
       inkscape:stockid="TriangleOutM">
      <path
         inkscape:connector-curvature="0"
         transform="scale(0.4,0.4)"
         style="fill:#363636;fill-opacity:1;fill-rule:evenodd;stroke:#363636;stroke-width:1pt;stroke-opacity:1"
         d="m 5.77,0 -8.65,5 0,-10 8.65,5 z"
         id="path15953" />
    </marker>
    <marker
       inkscape:isstock="true"
       style="overflow:visible"
       id="marker15635"
       refX="0"
       refY="0"
       orient="auto"
       inkscape:stockid="TriangleOutM">
      <path
         inkscape:connector-curvature="0"
         transform="scale(0.4,0.4)"
         style="fill:#363636;fill-opacity:1;fill-rule:evenodd;stroke:#363636;stroke-width:1pt;stroke-opacity:1"
         d="m 5.77,0 -8.65,5 0,-10 8.65,5 z"
         id="path15637" />
    </marker>
    <marker
       inkscape:stockid="TriangleOutM"
       orient="auto"
       refY="0"
       refX="0"
       id="marker15293"
       style="overflow:visible"
       inkscape:isstock="true">
      <path
         id="path15295"
         d="m 5.77,0 -8.65,5 0,-10 8.65,5 z"
         style="fill:#363636;fill-opacity:1;fill-rule:evenodd;stroke:#363636;stroke-width:1pt;stroke-opacity:1"
         transform="scale(0.4,0.4)"
         inkscape:connector-curvature="0" />
    </marker>
    <marker
       inkscape:isstock="true"
       style="overflow:visible"
       id="marker15229"
       refX="0"
       refY="0"
       orient="auto"
       inkscape:stockid="TriangleInM">
      <path
         transform="scale(-0.4,-0.4)"
         style="fill:#363636;fill-opacity:1;fill-rule:evenodd;stroke:#363636;stroke-width:1pt;stroke-opacity:1"
         d="m 5.77,0 -8.65,5 0,-10 8.65,5 z"
         id="path15231"
         inkscape:connector-curvature="0" />
    </marker>
    <marker
       inkscape:isstock="true"
       style="overflow:visible"
       id="marker13791"
       refX="0"
       refY="0"
       orient="auto"
       inkscape:stockid="TriangleOutM">
      <path
         inkscape:connector-curvature="0"
         transform="scale(0.4,0.4)"
         style="fill:#363636;fill-opacity:1;fill-rule:evenodd;stroke:#363636;stroke-width:1pt;stroke-opacity:1"
         d="m 5.77,0 -8.65,5 0,-10 8.65,5 z"
         id="path13793" />
    </marker>
    <marker
       inkscape:isstock="true"
       style="overflow:visible"
       id="marker13581"
       refX="0"
       refY="0"
       orient="auto"
       inkscape:stockid="TriangleOutM">
      <path
         inkscape:connector-curvature="0"
         transform="scale(0.4,0.4)"
         style="fill:#363636;fill-opacity:1;fill-rule:evenodd;stroke:#363636;stroke-width:1pt;stroke-opacity:1"
         d="m 5.77,0 -8.65,5 0,-10 8.65,5 z"
         id="path13583" />
    </marker>
  </defs>
  <sodipodi:namedview
     id="base"
     pagecolor="#ffffff"
     bordercolor="#666666"
     borderopacity="1.0"
     inkscape:pageopacity="0.0"
     inkscape:pageshadow="2"
     inkscape:zoom="0.49497475"
     inkscape:cx="64.408584"
     inkscape:cy="594.06732"
     inkscape:document-units="px"
     inkscape:current-layer="layer1"
     showgrid="false"
     inkscape:window-width="1920"
     inkscape:window-height="1056"
     inkscape:window-x="0"
     inkscape:window-y="24"
     inkscape:window-maximized="1"
     fit-margin-top="0"
     fit-margin-left="0"
     fit-margin-right="0"
     fit-margin-bottom="0" />
  <metadata
     id="metadata8542">
    <rdf:RDF>
      <cc:Work
         rdf:about="">
        <dc:format>image/svg+xml</dc:format>
        <dc:type
           rdf:resource="http://purl.org/dc/dcmitype/StillImage" />
        <dc:title></dc:title>
      </cc:Work>
    </rdf:RDF>
  </metadata>
  <g
     inkscape:label="Layer 1"
     inkscape:groupmode="layer"
     id="layer1"
     transform="translate(532.56528,-801.52142)">
    <rect
       style="opacity:0.98999999;fill:#000000;fill-opacity:0;stroke:#363636;stroke-width:7.08661509;stroke-linecap:round;stroke-linejoin:round;stroke-miterlimit:4;stroke-dasharray:none;stroke-dashoffset:0;stroke-opacity:1"
       id="rect8083"
       width="342.91339"
       height="342.91339"
       x="805.0647"
       y="-664.2851"
       ry="44.374783"
       transform="matrix(0,1,-1,0,0,0)" />
    <path
       style="fill:#185daf;fill-opacity:0.99215686"
       d="m 410.24395,1095.3054 c -0.28527,-0.09 -2.16241,-0.434 -4.17146,-0.7648 l -3.65281,-0.6018 0.20187,-1.7293 c 0.28951,-2.4797 -1.5264,-6.2565 -3.62298,-7.5351 -3.84346,-2.3443 -8.00031,-1.8251 -10.78557,1.3471 l -1.64044,1.8682 -4.24247,-2.6113 c -2.33336,-1.4363 -4.19407,-2.9219 -4.1349,-3.3012 0.0593,-0.3791 0.38606,-1.6325 0.72643,-2.785 2.06533,-6.9933 -5.11422,-12.9449 -11.61647,-9.6298 l -1.92545,0.9817 -1.46076,-1.8893 c -0.80342,-1.0392 -2.00432,-2.6737 -2.66869,-3.632 l -1.20794,-1.7427 1.69456,-1.3261 c 3.13873,-2.4564 4.02434,-6.9509 2.05277,-10.418 -1.7711,-3.1147 -3.34531,-3.9604 -7.37057,-3.9604 l -3.51582,0 -0.53694,-2.0747 c -0.2953,-1.1413 -0.75406,-2.8915 -1.01947,-3.89 -0.87371,-3.2866 -0.67154,-3.813 1.86621,-4.8565 3.49503,-1.4374 5.16587,-3.9092 5.16587,-7.6423 0,-2.2055 -0.27913,-3.3585 -1.06935,-4.4169 -1.51342,-2.0269 -3.44326,-3.3575 -5.47746,-3.7762 -1.96709,-0.4048 -1.95379,-0.3036 -0.912,-6.9261 l 0.55075,-3.501 2.59767,0 c 3.37138,0 5.90021,-1.2374 7.51494,-3.6774 2.42267,-3.661 1.35754,-9.18502 -2.19433,-11.38022 l -1.7319,-1.0702 1.58796,-2.698 c 1.28231,-2.1788 2.57907,-4.1953 3.84267,-5.9759 0.0648,-0.091 1.0646,0.3173 2.22191,0.9077 3.44661,1.7583 6.72958,1.271 9.58848,-1.4232 0.81316,-0.7662 1.70642,-1.9768 1.985,-2.6898 0.85822,-2.197 0.59512,-5.5929 -0.58876,-7.5994 -0.60587,-1.0271 -1.03375,-1.922 -0.95087,-1.9891 0.0828,-0.067 1.64119,-1.2088 3.46284,-2.5378 l 3.31208,-2.4159 1.87442,2.03 c 4.11256,4.4535 10.5547,3.7165 13.51239,-1.546 0.9901,-1.7615 1.15122,-2.629 0.91445,-4.923 l -0.28739,-2.7848 2.61629,-0.7771 c 1.43895,-0.4272 3.7556,-0.9278 5.14815,-1.1126 2.41421,-0.3204 2.53191,-0.2786 2.53376,0.8978 0.006,3.405 3.88962,6.6744 7.93323,6.6777 4.20952,0 7.33486,-2.3794 8.34903,-6.365 l 0.57193,-2.2476 4.55782,0.6584 c 2.50678,0.3619 4.7541,0.7795 4.99406,0.9278 0.23993,0.1483 0.33271,1.2651 0.2062,2.482 -0.16931,1.6284 0.0868,2.828 0.97044,4.5442 3.00886,5.8445 10.4475,6.1785 14.22065,0.6386 l 1.09124,-1.6024 3.05796,1.8394 c 1.68187,1.0118 3.7028,2.2975 4.49099,2.8572 l 1.43302,1.0174 -1.15518,1.6225 c -1.58765,2.2296 -1.58186,6.2012 0.013,8.7816 2.42194,3.9186 8.07342,5.0989 11.67312,2.4374 l 1.56797,-1.1592 1.70792,2.0283 c 0.93935,1.1153 2.10585,2.7639 2.59224,3.6628 0.88061,1.6281 0.87745,1.6421 -0.74959,3.2689 -2.86226,2.8625 -3.28742,6.7415 -1.12799,10.29272 1.54034,2.5328 3.89345,3.7302 7.33498,3.7324 l 2.93901,0 1.08051,4.6025 c 1.30965,5.5781 1.31538,5.77 0.17289,5.7726 -1.47303,0 -4.20991,1.9345 -5.31897,3.7535 -1.45775,2.391 -1.39447,6.4409 0.13673,8.745 0.97639,1.4694 3.91164,3.4566 6.2628,4.2403 0.51422,0.1714 -0.27635,7.5063 -1.0171,9.4366 -0.16268,0.4241 -1.19429,0.6727 -2.79043,0.6727 -3.20752,0 -5.88758,1.5848 -7.2731,4.3004 -1.86476,3.6553 -1.19839,7.2583 1.87918,10.1607 l 1.82196,1.7184 -1.43292,2.4729 c -0.7881,1.3599 -2.03343,3.3132 -2.7674,4.3403 l -1.33448,1.8676 -1.79802,-0.9919 c -2.24504,-1.2385 -6.18626,-1.0107 -8.19012,0.4735 -3.66946,2.7177 -4.81706,7.4275 -2.66848,10.9517 l 1.0492,1.7208 -1.1808,0.9968 c -0.64946,0.5481 -2.30151,1.7312 -3.67128,2.6292 l -2.49043,1.6326 -1.39944,-1.3046 c -2.09112,-1.9495 -3.39853,-2.4688 -6.2158,-2.4688 -4.68787,0 -8.1422,3.6251 -8.14725,8.5501 l -0.002,2.5853 -3.11189,0.8331 c -1.71154,0.458 -3.97453,0.9699 -5.02888,1.1377 -1.80601,0.2869 -1.9493,0.2065 -2.47557,-1.3881 -0.57913,-1.7548 -2.55602,-3.9031 -4.52007,-4.9123 -1.5881,-0.8158 -5.1261,-0.7244 -6.87019,0.1774 -1.96459,1.0159 -4.17125,3.709 -4.53682,5.537 -0.28338,1.4167 -1.22545,1.8032 -3.01963,1.2382 z m 17.05867,-35.5273 c 9.39191,-2.4019 17.93247,-9.2462 22.02266,-17.6485 3.13351,-6.4369 3.88105,-9.962 3.57262,-16.8462 -0.42839,-9.5621 -3.28775,-16.0958 -10.01398,-22.8827 -6.67997,-6.74002 -16.61999,-10.50902 -25.9675,-9.84562 -8.74044,0.6205 -15.48122,3.6852 -21.76422,9.89552 -7.17779,7.0947 -10.30556,14.4412 -10.26889,24.1196 0.0313,8.2751 1.76247,13.5427 6.77345,20.6106 7.54469,10.6421 22.55301,15.9461 35.64586,12.5973 z m 119.08707,-27.7647 c 0,-3.4558 -3.342,-7.1174 -7.1538,-7.8376 -3.4723,-0.6562 -8.3945,2.4364 -9.2401,5.8055 -0.3936,1.5682 -0.5281,1.5663 -5.9463,-0.088 l -4.4468,-1.3568 0.2319,-2.7964 c 0.2748,-3.3132 -0.4872,-5.4456 -2.5727,-7.2005 -3.45224,-2.905 -8.25141,-2.6528 -11.50863,0.6044 -2.07299,2.073 -2.10176,2.0665 -7.19647,-1.5928 -2.0504,-1.4729 -2.87083,-2.3737 -2.65043,-2.9109 1.58396,-3.8605 1.86123,-5.1032 1.53119,-6.8627 -0.41487,-2.2114 -2.37392,-4.761 -4.5049,-5.863 -2.13463,-1.1038 -6.12591,-0.9653 -8.00306,0.278 -0.85577,0.5667 -1.69658,1.0319 -1.86842,1.0339 -0.17187,0 -1.43578,-1.4263 -2.8087,-3.174 -1.70565,-2.17082 -2.34584,-3.37992 -2.02143,-3.81692 2.04666,-2.7583 2.49725,-3.7899 2.68651,-6.1494 0.24971,-3.1136 -1.00427,-5.4436 -4.03939,-7.5062 -1.49402,-1.0152 -2.30078,-1.1906 -4.70867,-1.0221 l -2.90577,0.2032 -1.63244,-4.3171 c -0.89784,-2.3744 -1.63242,-4.6394 -1.63242,-5.0333 0,-0.3937 0.8276,-1.2043 1.8391,-1.8011 1.95229,-1.1519 3.83443,-4.4804 3.85467,-6.8168 0.0178,-2.057 -2.14358,-5.8174 -4.08485,-7.1075 -0.96929,-0.6441 -2.51043,-1.1713 -3.42479,-1.1713 l -1.66247,0 -0.33544,-3.968 c -0.58102,-6.8734 -0.6506,-6.6241 2.05023,-7.3464 5.85894,-1.5671 8.29694,-8.5931 4.53371,-13.0654 -0.73579,-0.8745 -2.03281,-1.9494 -2.88227,-2.3885 -1.39986,-0.7239 -1.51237,-0.9703 -1.20112,-2.6293 0.1889,-1.007 0.78897,-3.2729 1.33349,-5.0361 l 0.99007,-3.2053 2.80143,0 c 7.40116,0 11.18398,-8.2351 6.27753,-13.666 l -1.76398,-1.9526 2.9131,-4.2579 c 2.21389,-3.2361 3.11319,-4.1707 3.74675,-3.8946 0.45853,0.1999 1.91124,0.6019 3.22824,0.8935 2.11644,0.4684 2.68877,0.384 4.9272,-0.7254 4.37572,-2.1687 6.01368,-6.8248 3.87596,-11.0178 l -0.99059,-1.943 3.40702,-2.5792 3.40701,-2.5792 1.8237,1.8237 c 3.46967,3.4697 8.26206,3.5906 11.576,0.2921 2.50018,-2.4887 3.31746,-5.4139 2.32072,-8.3071 -0.65659,-1.9058 -0.64434,-2.1688 0.11954,-2.5682 1.09795,-0.5742 8.31397,-3.1616 8.81687,-3.1616 0.211,0 0.6748,0.8052 1.0307,1.7896 1.3349,3.6915 6.1457,6.0976 9.8384,4.9204 3.7519,-1.1961 6.7022,-5.4396 6.2177,-8.943 -0.1519,-1.0992 0.023,-1.1433 5.0894,-1.2853 l 5.2468,-0.1469 0.2597,2.3038 c 0.3341,2.9642 2.0753,5.38 4.755,6.597 2.6771,1.2158 4.1678,1.2158 6.845,0 2.2685,-1.0303 4.0678,-3.1239 4.6383,-5.3969 0.1925,-0.767 0.5942,-1.3947 0.8925,-1.3947 0.2984,0 2.6109,0.6208 5.139,1.3796 4.2144,1.2647 4.5634,1.4695 4.1988,2.4635 -0.7397,2.0166 -0.3438,6.0069 0.7414,7.4721 1.8141,2.4492 4.2131,3.7257 7.0025,3.7257 3.0323,0 5.0503,-0.9462 6.8081,-3.1922 l 1.2966,-1.6568 3.2872,2.173 c 5.7089,3.7742 5.4077,3.3563 4.0274,5.5895 -2.5028,4.0497 -0.8286,9.8224 3.4357,11.846 2.5295,1.2002 6.2519,0.8669 8.544,-0.7653 l 1.7016,-1.2116 1.2559,1.5182 c 0.6907,0.8349 1.8334,2.3637 2.5394,3.3975 l 1.2837,1.8795 -1.5395,1.5394 c -3.289,3.2889 -3.1722,8.678 0.2582,11.9132 2.0146,1.9002 4.343,2.5109 7.6695,2.0122 l 2.2832,-0.3425 1.6032,4.1571 c 0.8817,2.2864 1.6025,4.4565 1.6018,4.8224 -5e-4,0.3657 -0.8688,1.1318 -1.9289,1.7023 -7.2984,3.9277 -4.7702,15.2711 3.4516,15.4866 l 1.9729,0.053 0.34,4.8373 c 0.187,2.6605 0.2039,5.0576 0.038,5.3267 -0.1664,0.2693 -0.7985,0.4893 -1.4047,0.4893 -1.9101,0 -5.2716,1.9885 -6.5465,3.8721 -1.4726,2.176 -1.653,6.0156 -0.3968,8.4449 0.8887,1.7185 2.9399,3.3897 4.9135,4.0029 1.0689,0.3322 1.1742,0.5969 0.8739,2.1974 -0.1878,1.0007 -0.7903,3.2729 -1.3391,5.0496 l -0.9976,3.2301 -2.7869,-0.2311 c -5.1014,-0.4231 -8.5753,2.3457 -9.0424,7.2069 -0.296,3.08 0.507,5.1695 2.7399,7.1299 l 1.6862,1.4807 -2.7768,4.0925 c -1.5272,2.2509 -2.9566,4.0779 -3.1764,4.0596 -0.2198,-0.018 -1.3262,-0.451 -2.4586,-0.9619 -5.2734,-2.3805 -10.9989,1.0362 -11.5623,6.89932 -0.1962,2.042 -0.012,3.0167 0.8504,4.4769 0.6057,1.0266 1.1013,2.0635 1.1013,2.3043 0,0.2411 -1.4367,1.5058 -3.1926,2.8105 l -3.1924,2.3724 -1.9631,-1.7735 c -3.3003,-2.9814 -7.5295,-3.0851 -10.9471,-0.268 -2.7181,2.2404 -3.6058,5.8045 -2.4463,9.8218 0.1547,0.536 -1.0542,1.2409 -4.1911,2.4435 -5.0177,1.9236 -5.7051,2.0383 -5.7051,0.9537 0,-1.5327 -3.5467,-4.7704 -5.9684,-5.4484 -2.017,-0.5647 -2.6581,-0.5333 -4.6538,0.2289 -3.4558,1.3198 -6.372,5.5034 -5.8749,8.4283 0.1441,0.8478 -0.3568,0.9531 -5.1566,1.0866 l -5.3161,0.148 0,-1.3355 z m 15.7585,-32.66772 c 11.9351,-3.1059 22.4848,-10.1297 29.9268,-19.9245 3.5813,-4.7135 7.4681,-12.8121 9.1144,-18.9911 1.2193,-4.5768 1.3786,-6.133 1.3786,-13.4728 0,-7.3397 -0.1593,-8.8961 -1.3786,-13.4727 -5.0972,-19.1315 -19.9064,-33.9419 -38.8645,-38.8676 -28.9939,-7.5333 -58.25685,9.7332 -66.11014,39.0078 -1.18878,4.4315 -1.35042,6.0273 -1.35042,13.3325 0,7.305 0.16164,8.901 1.35042,13.3324 5.68491,21.1918 22.17944,36.2681 43.91014,40.13532 5.9263,1.0546 15.656,0.5777 22.0233,-1.07932 z m -20.945,-3.7326 c -19.0514,-3.1641 -34.67558,-17.0156 -39.96494,-35.4303 -1.59719,-5.5607 -1.97994,-16.9002 -0.77169,-22.8632 3.70448,-18.2823 17.39693,-32.9514 35.31873,-37.8376 5.8202,-1.5867 16.0385,-1.9515 22.1985,-0.7918 18.2166,3.4287 33.1223,17.1648 38.3068,35.3009 1.0265,3.5906 1.1861,5.3356 1.1861,12.9662 0,7.6304 -0.1596,9.3754 -1.1861,12.9663 -5.201,18.1937 -19.9873,31.7906 -38.4066,35.3175 -3.4806,0.6664 -13.5555,0.891 -16.6808,0.372 z m 18.8421,-16.4116 c 5.0473,-1.832 8.9394,-4.3152 12.7734,-8.1491 13.4701,-13.47 13.4701,-34.7202 0,-48.1903 -3.7785,-3.7783 -7.5915,-6.2301 -12.8188,-8.2423 -3.2047,-1.2337 -4.146,-1.346 -11.2763,-1.346 -7.1303,0 -8.0716,0.1123 -11.2763,1.346 -5.3626,2.0642 -9.0874,4.4918 -13.1837,8.5923 -6.2522,6.2585 -9.63571,14.5775 -9.65787,23.7452 -0.0356,14.7188 9.37507,27.8062 23.33487,32.4519 6.5751,2.1879 15.742,2.1018 22.1047,-0.2077 z m -149.04944,-18.111 c -0.0145,-0.07 -0.11218,-1.1261 -0.21744,-2.3439 -0.47155,-5.456 -4.85612,-8.7123 -10.34485,-7.6825 -1.80482,0.3384 -5.07596,2.9376 -5.60218,4.4508 -0.22204,0.6386 -0.86343,0.4749 -3.57993,-0.9149 -1.82021,-0.9311 -3.83774,-2.1015 -4.48343,-2.6008 l -1.17394,-0.9078 1.11593,-2.6412 c 0.78397,-1.8556 1.01701,-3.1647 0.78344,-4.4009 -1.07965,-5.7147 -7.50093,-8.9959 -12.10789,-6.1869 l -1.66475,1.0152 -0.99164,-1.406 c -1.666,-2.3622 -3.87274,-7.0595 -3.39262,-7.2217 3.60211,-1.2172 6.23799,-5.4214 5.63533,-8.9885 -0.71579,-4.2368 -4.20578,-7.2384 -8.41613,-7.2384 l -2.21234,0 0.007,-4.0196 c 0.01,-5.9387 0.19521,-6.3534 2.8293,-6.3534 5.70747,0 9.90648,-6.8447 7.29594,-11.8929 -0.75007,-1.4506 -3.30287,-3.897 -4.47354,-4.2873 -0.68555,-0.2285 0.8057,-3.455 3.23843,-7.0063 l 1.49414,-2.1817 1.88832,1.1143 c 4.13972,2.4425 9.46842,0.8644 11.54146,-3.4179 1.34554,-2.7795 1.35826,-4.7452 0.0473,-7.3166 -0.63882,-1.2531 -0.84958,-2.2278 -0.55774,-2.5793 0.258,-0.3108 2.02628,-1.3792 3.9295,-2.3745 3.35805,-1.7557 3.47815,-1.779 4.05865,-0.7877 1.1593,1.9798 3.56734,3.897 5.57238,4.4371 5.16017,1.3893 10.326,-2.613 10.326,-8.0006 l 0,-1.8666 5.11968,0 5.11968,0 0.33572,2.5309 c 0.83834,6.3195 6.74756,9.6098 12.23314,6.8112 1.11149,-0.5669 2.43616,-1.734 2.94373,-2.5932 0.50757,-0.8594 1.13161,-1.5624 1.38676,-1.5624 0.62039,0 6.01231,2.9107 7.48818,4.0423 l 1.17397,0.9 -1.11592,2.6412 c -1.8002,4.2609 -0.32542,8.5181 3.65417,10.5486 2.58437,1.3181 4.96436,1.3448 7.43975,0.082 2.20766,-1.1256 2.07755,-1.2228 4.67985,3.498 l 1.81952,3.301 -2.22702,2.1447 c -5.60629,5.4 -3.21431,13.1486 4.50605,14.5971 1.64134,0.3077 1.92167,0.5829 2.22116,2.1792 0.1885,1.005 0.18319,3.3169 -0.0119,5.1379 -0.34598,3.2306 -0.39123,3.3108 -1.86674,3.3108 -3.61794,0 -7.34857,3.0308 -7.9991,6.4984 -0.59847,3.1903 0.18745,5.497 2.69156,7.9002 2.60448,2.4992 2.66444,2.0039 -0.93469,7.7232 l -2.00802,3.1907 -2.50469,-1.0582 c -2.92125,-1.2341 -5.22068,-1.0036 -7.9111,0.7937 -3.25914,2.177 -4.50811,6.8804 -2.73674,10.3058 0.45215,0.8742 0.6272,1.7749 0.38898,2.0012 -0.23822,0.2264 -2.03688,1.2867 -3.99703,2.3565 -3.39341,1.8521 -3.59025,1.8977 -4.11447,0.9553 -1.07507,-1.933 -3.32837,-3.7576 -5.41048,-4.3816 -5.28826,-1.5843 -10.50972,2.2782 -10.50972,7.7743 l 0,2.1005 -5.18651,0 c -2.85258,0 -5.19823,-0.059 -5.21258,-0.1302 z m 13.83937,-26.3804 c 10.59992,-3.2742 18.34302,-13.9772 18.34302,-25.355 0,-7.2003 -2.63958,-13.5239 -7.84798,-18.8012 -10.39086,-10.5284 -26.45396,-10.7837 -37.25719,-0.5925 -5.7053,5.382 -8.31581,11.4825 -8.31581,19.4332 0,11.9602 7.32205,21.8382 18.93073,25.539 4.96873,1.584 10.5447,1.5069 16.14723,-0.2235 z"
       id="path9977"
       inkscape:connector-curvature="0" />
    <rect
       ry="44.374783"
       y="-239.08826"
       x="805.0647"
       height="342.91339"
       width="342.91339"
       id="rect13415"
       style="opacity:0.98999999;fill:#000000;fill-opacity:0;stroke:#363636;stroke-width:7.08661509;stroke-linecap:round;stroke-linejoin:round;stroke-miterlimit:4;stroke-dasharray:none;stroke-dashoffset:0;stroke-opacity:1"
       transform="matrix(0,1,-1,0,0,0)" />
    <path
       inkscape:connector-curvature="0"
       id="path13417"
       d="m -14.952896,1095.3054 c -0.28527,-0.09 -2.16241,-0.434 -4.17146,-0.7648 l -3.65281,-0.6018 0.20187,-1.7293 c 0.28951,-2.4797 -1.5264,-6.2565 -3.62298,-7.5351 -3.84346,-2.3443 -8.00031,-1.8251 -10.78557,1.3471 l -1.64044,1.8682 -4.24247,-2.6113 c -2.33336,-1.4363 -4.19407,-2.9219 -4.1349,-3.3012 0.0593,-0.3791 0.38606,-1.6325 0.72643,-2.785 2.06533,-6.9933 -5.11422,-12.9449 -11.61647,-9.6298 l -1.92545,0.9817 -1.46076,-1.8893 c -0.80342,-1.0392 -2.00432,-2.6737 -2.66869,-3.632 l -1.20794,-1.7427 1.69456,-1.3261 c 3.13873,-2.4564 4.02434,-6.9509 2.05277,-10.418 -1.7711,-3.1147 -3.34531,-3.9604 -7.37057,-3.9604 l -3.51582,0 -0.53694,-2.0747 c -0.2953,-1.1413 -0.75406,-2.8915 -1.01947,-3.89 -0.87371,-3.2866 -0.67154,-3.813 1.86621,-4.8565 3.49503,-1.4374 5.16587,-3.9092 5.16587,-7.6423 0,-2.2055 -0.27913,-3.3585 -1.06935,-4.4169 -1.51342,-2.0269 -3.44326,-3.3575 -5.47746,-3.7762 -1.96709,-0.4048 -1.95379,-0.3036 -0.912,-6.9261 l 0.55075,-3.501 2.59767,0 c 3.37138,0 5.90021,-1.2374 7.51494,-3.6774 2.42267,-3.661 1.35754,-9.18502 -2.19433,-11.38022 l -1.7319,-1.0702 1.58796,-2.698 c 1.28231,-2.1788 2.57907,-4.1953 3.84267,-5.9759 0.0648,-0.091 1.0646,0.3173 2.22191,0.9077 3.44661,1.7583 6.72958,1.271 9.58848,-1.4232 0.81316,-0.7662 1.70642,-1.9768 1.985,-2.6898 0.85822,-2.197 0.59512,-5.5929 -0.58876,-7.5994 -0.60587,-1.0271 -1.03375,-1.922 -0.95087,-1.9891 0.0828,-0.067 1.64119,-1.2088 3.46284,-2.5378 l 3.31208,-2.4159 1.87442,2.03 c 4.11256,4.4535 10.5547,3.7165 13.51239,-1.546 0.9901,-1.7615 1.15122,-2.629 0.91445,-4.923 l -0.28739,-2.7848 2.61629,-0.7771 c 1.43895,-0.4272 3.7556,-0.9278 5.14815,-1.1126 2.41421,-0.3204 2.53191,-0.2786 2.53376,0.8978 0.006,3.405 3.88962,6.6744 7.9332304,6.6777 4.20952,0 7.33486,-2.3794 8.34902999,-6.365 l 0.57193,-2.2476 4.55782001,0.6584 c 2.50678,0.3619 4.7541,0.7795 4.99406,0.9278 0.23993,0.1483 0.33271,1.2651 0.2062,2.482 -0.16931,1.6284 0.0868,2.828 0.9704396,4.5442 3.00886,5.8445 10.4475,6.1785 14.22065,0.6386 l 1.09124,-1.6024 3.05796,1.8394 c 1.68187,1.0118 3.7028,2.2975 4.49099,2.8572 l 1.43302,1.0174 -1.15518,1.6225 c -1.58765,2.2296 -1.58186,6.2012 0.013,8.7816 2.42194,3.9186 8.07342,5.0989 11.67312,2.4374 l 1.56797,-1.1592 1.70792,2.0283 c 0.93935,1.1153 2.10585,2.7639 2.59224,3.6628 0.88061,1.6281 0.87745,1.6421 -0.74959,3.2689 -2.86226,2.8625 -3.28742,6.7415 -1.12799,10.29272 1.54034,2.5328 3.89345,3.7302 7.33498,3.7324 l 2.93901,0 1.08051,4.6025 c 1.30965,5.5781 1.31538,5.77 0.17289,5.7726 -1.47303,0 -4.20991,1.9345 -5.31897,3.7535 -1.45775,2.391 -1.39447,6.4409 0.13673,8.745 0.97639,1.4694 3.91164,3.4566 6.2628,4.2403 0.51422,0.1714 -0.27635,7.5063 -1.0171,9.4366 -0.16268,0.4241 -1.19429,0.6727 -2.79043,0.6727 -3.20752,0 -5.88758,1.5848 -7.2731,4.3004 -1.86476,3.6553 -1.19839,7.2583 1.87918,10.1607 l 1.82196,1.7184 -1.43292,2.4729 c -0.7881,1.3599 -2.03343,3.3132 -2.7674,4.3403 l -1.33448,1.8676 -1.79802,-0.9919 c -2.24504,-1.2385 -6.18626,-1.0107 -8.19012,0.4735 -3.66946,2.7177 -4.81706,7.4275 -2.66848,10.9517 l 1.0492,1.7208 -1.1808,0.9968 c -0.64946,0.5481 -2.30151,1.7312 -3.67128,2.6292 l -2.49043,1.6326 -1.39944,-1.3046 c -2.09112,-1.9495 -3.39853,-2.4688 -6.2158,-2.4688 -4.68787,0 -8.1422,3.6251 -8.14725,8.5501 l -0.002,2.5853 -3.11189,0.8331 c -1.7115396,0.458 -3.9745296,0.9699 -5.0288796,1.1377 -1.80601,0.2869 -1.9493,0.2065 -2.47557,-1.3881 -0.57913,-1.7548 -2.55602,-3.9031 -4.52007001,-4.9123 -1.58809999,-0.8158 -5.12609999,-0.7244 -6.87018999,0.1774 -1.96459,1.0159 -4.1712504,3.709 -4.5368204,5.537 -0.28338,1.4167 -1.22545,1.8032 -3.01963,1.2382 z m 17.0586704,-35.5273 c 9.3919096,-2.4019 17.9324696,-9.2462 22.0226596,-17.6485 3.13351,-6.4369 3.88105,-9.962 3.57262,-16.8462 -0.42839,-9.5621 -3.28775,-16.0958 -10.01398,-22.8827 -6.67997,-6.74002 -16.6199896,-10.50902 -25.9674996,-9.84562 -8.7404404,0.6205 -15.4812204,3.6852 -21.7642204,9.89552 -7.17779,7.0947 -10.30556,14.4412 -10.26889,24.1196 0.0313,8.2751 1.76247,13.5427 6.77345,20.6106 7.54469,10.6421 22.55301,15.9461 35.6458604,12.5973 z M 121.19284,1032.0134 c 0,-3.4558 -3.342,-7.1174 -7.1538,-7.8376 -3.4723,-0.6562 -8.3945,2.4364 -9.2401,5.8055 -0.3936,1.5682 -0.5281,1.5663 -5.946296,-0.088 l -4.4468,-1.3568 0.2319,-2.7964 c 0.2748,-3.3132 -0.4872,-5.4456 -2.5727,-7.2005 -3.45224,-2.905 -8.25141,-2.6528 -11.50863,0.6044 -2.07299,2.073 -2.10176,2.0665 -7.19647,-1.5928 -2.0504,-1.4729 -2.87083,-2.3737 -2.65043,-2.9109 1.58396,-3.8605 1.86123,-5.1032 1.53119,-6.8627 -0.41487,-2.2114 -2.37392,-4.761 -4.5049,-5.863 -2.13463,-1.1038 -6.12591,-0.9653 -8.00306,0.278 -0.85577,0.5667 -1.69658,1.0319 -1.86842,1.0339 -0.17187,0 -1.43578,-1.4263 -2.8087,-3.174 -1.70565,-2.17082 -2.34584,-3.37992 -2.02143,-3.81692 2.04666,-2.7583 2.49725,-3.7899 2.68651,-6.1494 0.24971,-3.1136 -1.00427,-5.4436 -4.03939,-7.5062 -1.49402,-1.0152 -2.30078,-1.1906 -4.70867,-1.0221 l -2.90577,0.2032 -1.63244,-4.3171 c -0.89784,-2.3744 -1.63242,-4.6394 -1.63242,-5.0333 0,-0.3937 0.8276,-1.2043 1.8391,-1.8011 1.95229,-1.1519 3.83443,-4.4804 3.85467,-6.8168 0.0178,-2.057 -2.14358,-5.8174 -4.08485,-7.1075 -0.96929,-0.6441 -2.51043,-1.1713 -3.42479,-1.1713 l -1.66247,0 -0.33544,-3.968 c -0.58102,-6.8734 -0.6506,-6.6241 2.05023,-7.3464 5.85894,-1.5671 8.29694,-8.5931 4.53371,-13.0654 -0.73579,-0.8745 -2.03281,-1.9494 -2.88227,-2.3885 -1.39986,-0.7239 -1.51237,-0.9703 -1.20112,-2.6293 0.1889,-1.007 0.78897,-3.2729 1.33349,-5.0361 l 0.99007,-3.2053 2.80143,0 c 7.40116,0 11.18398,-8.2351 6.27753,-13.666 l -1.76398,-1.9526 2.9131,-4.2579 c 2.21389,-3.2361 3.11319,-4.1707 3.74675,-3.8946 0.45853,0.1999 1.91124,0.6019 3.22824,0.8935 2.11644,0.4684 2.68877,0.384 4.9272,-0.7254 4.37572,-2.1687 6.01368,-6.8248 3.87596,-11.0178 l -0.99059,-1.943 3.40702,-2.5792 3.40701,-2.5792 1.8237,1.8237 c 3.46967,3.4697 8.26206,3.5906 11.576,0.2921 2.50018,-2.4887 3.31746,-5.4139 2.32072,-8.3071 -0.65659,-1.9058 -0.64434,-2.1688 0.11954,-2.5682 1.09795,-0.5742 8.31397,-3.1616 8.81687,-3.1616 0.211,0 0.6748,0.8052 1.0307,1.7896 1.334896,3.6915 6.145696,6.0976 9.838396,4.9204 3.7519,-1.1961 6.7022,-5.4396 6.2177,-8.943 -0.1519,-1.0992 0.023,-1.1433 5.0894,-1.2853 l 5.2468,-0.1469 0.2597,2.3038 c 0.3341,2.9642 2.0753,5.38 4.755,6.597 2.6771,1.2158 4.1678,1.2158 6.845,0 2.2685,-1.0303 4.0678,-3.1239 4.6383,-5.3969 0.1925,-0.767 0.5942,-1.3947 0.8925,-1.3947 0.2984,0 2.6109,0.6208 5.139,1.3796 4.2144,1.2647 4.5634,1.4695 4.1988,2.4635 -0.7397,2.0166 -0.3438,6.0069 0.7414,7.4721 1.8141,2.4492 4.2131,3.7257 7.0025,3.7257 3.0323,0 5.0503,-0.9462 6.8081,-3.1922 l 1.2966,-1.6568 3.2872,2.173 c 5.7089,3.7742 5.4077,3.3563 4.0274,5.5895 -2.5028,4.0497 -0.8286,9.8224 3.4357,11.846 2.5295,1.2002 6.2519,0.8669 8.544,-0.7653 l 1.7016,-1.2116 1.2559,1.5182 c 0.6907,0.8349 1.8334,2.3637 2.5394,3.3975 l 1.2837,1.8795 -1.5395,1.5394 c -3.289,3.2889 -3.1722,8.678 0.2582,11.9132 2.0146,1.9002 4.343,2.5109 7.6695,2.0122 l 2.2832,-0.3425 1.6032,4.1571 c 0.8817,2.2864 1.6025,4.4565 1.6018,4.8224 -5e-4,0.3657 -0.8688,1.1318 -1.9289,1.7023 -7.2984,3.9277 -4.7702,15.2711 3.4516,15.4866 l 1.9729,0.053 0.34,4.8373 c 0.187,2.6605 0.2039,5.0576 0.038,5.3267 -0.1664,0.2693 -0.7985,0.4893 -1.4047,0.4893 -1.9101,0 -5.2716,1.9885 -6.5465,3.8721 -1.4726,2.176 -1.653,6.0156 -0.3968,8.4449 0.8887,1.7185 2.9399,3.3897 4.9135,4.0029 1.0689,0.3322 1.1742,0.5969 0.8739,2.1974 -0.1878,1.0007 -0.7903,3.2729 -1.3391,5.0496 l -0.9976,3.2301 -2.7869,-0.2311 c -5.1014,-0.4231 -8.5753,2.3457 -9.0424,7.2069 -0.296,3.08 0.507,5.1695 2.7399,7.1299 l 1.6862,1.4807 -2.7768,4.0925 c -1.5272,2.2509 -2.9566,4.0779 -3.1764,4.0596 -0.2198,-0.018 -1.3262,-0.451 -2.4586,-0.9619 -5.2734,-2.3805 -10.9989,1.0362 -11.5623,6.89932 -0.1962,2.042 -0.012,3.0167 0.8504,4.4769 0.6057,1.0266 1.1013,2.0635 1.1013,2.3043 0,0.2411 -1.4367,1.5058 -3.1926,2.8105 l -3.1924,2.3724 -1.9631,-1.7735 c -3.3003,-2.9814 -7.5295,-3.0851 -10.9471,-0.268 -2.7181,2.2404 -3.6058,5.8045 -2.4463,9.8218 0.1547,0.536 -1.0542,1.2409 -4.1911,2.4435 -5.0177,1.9236 -5.7051,2.0383 -5.7051,0.9537 0,-1.5327 -3.5467,-4.7704 -5.9684,-5.4484 -2.017,-0.5647 -2.6581,-0.5333 -4.6538,0.2289 -3.4558,1.3198 -6.372,5.5034 -5.8749,8.4283 0.1441,0.8478 -0.3568,0.9531 -5.1566,1.0866 l -5.3161,0.148 0,-1.3355 z m 15.7585,-32.66772 c 11.9351,-3.1059 22.4848,-10.1297 29.9268,-19.9245 3.5813,-4.7135 7.4681,-12.8121 9.1144,-18.9911 1.2193,-4.5768 1.3786,-6.133 1.3786,-13.4728 0,-7.3397 -0.1593,-8.8961 -1.3786,-13.4727 -5.0972,-19.1315 -19.9064,-33.9419 -38.8645,-38.8676 -28.9939,-7.5333 -58.256846,9.7332 -66.110136,39.0078 -1.18878,4.4315 -1.35042,6.0273 -1.35042,13.3325 0,7.305 0.16164,8.901 1.35042,13.3324 5.68491,21.1918 22.17944,36.2681 43.910136,40.13532 5.9263,1.0546 15.656,0.5777 22.0233,-1.07932 z m -20.945,-3.7326 c -19.051396,-3.1641 -34.675576,-17.0156 -39.964936,-35.4303 -1.59719,-5.5607 -1.97994,-16.9002 -0.77169,-22.8632 3.70448,-18.2823 17.39693,-32.9514 35.318726,-37.8376 5.8202,-1.5867 16.0385,-1.9515 22.1985,-0.7918 18.2166,3.4287 33.1223,17.1648 38.3068,35.3009 1.0265,3.5906 1.1861,5.3356 1.1861,12.9662 0,7.6304 -0.1596,9.3754 -1.1861,12.9663 -5.201,18.1937 -19.9873,31.7906 -38.4066,35.3175 -3.4806,0.6664 -13.5555,0.891 -16.6808,0.372 z m 18.8421,-16.4116 c 5.0473,-1.832 8.9394,-4.3152 12.7734,-8.1491 13.4701,-13.47 13.4701,-34.7202 0,-48.1903 -3.7785,-3.7783 -7.5915,-6.2301 -12.8188,-8.2423 -3.2047,-1.2337 -4.146,-1.346 -11.2763,-1.346 -7.1303,0 -8.0716,0.1123 -11.2763,1.346 -5.3626,2.0642 -9.0874,4.4918 -13.183696,8.5923 -6.2522,6.2585 -9.63571,14.5775 -9.65787,23.7452 -0.0356,14.7188 9.37507,27.8062 23.334866,32.4519 6.5751,2.1879 15.742,2.1018 22.1047,-0.2077 z m -149.049436,-18.111 c -0.0145,-0.07 -0.11218,-1.1261 -0.21744,-2.3439 -0.47155,-5.456 -4.85612,-8.7123 -10.34485,-7.6825 -1.80482,0.3384 -5.07596,2.9376 -5.60218,4.4508 -0.22204,0.6386 -0.86343,0.4749 -3.57993,-0.9149 -1.82021,-0.9311 -3.83774,-2.1015 -4.48343,-2.6008 l -1.17394,-0.9078 1.11593,-2.6412 c 0.78397,-1.8556 1.01701,-3.1647 0.78344,-4.4009 -1.07965,-5.7147 -7.50093,-8.9959 -12.10789,-6.1869 l -1.66475,1.0152 -0.99164,-1.406 c -1.666,-2.3622 -3.87274,-7.0595 -3.39262,-7.2217 3.60211,-1.2172 6.23799,-5.4214 5.63533,-8.9885 -0.71579,-4.2368 -4.20578,-7.2384 -8.41613,-7.2384 l -2.21234,0 0.007,-4.0196 c 0.01,-5.9387 0.19521,-6.3534 2.8293,-6.3534 5.70747,0 9.90648,-6.8447 7.29594,-11.8929 -0.75007,-1.4506 -3.30287,-3.897 -4.47354,-4.2873 -0.68555,-0.2285 0.8057,-3.455 3.23843,-7.0063 l 1.49414,-2.1817 1.88832,1.1143 c 4.13972,2.4425 9.46842,0.8644 11.54146,-3.4179 1.34554,-2.7795 1.35826,-4.7452 0.0473,-7.3166 -0.63882,-1.2531 -0.84958,-2.2278 -0.55774,-2.5793 0.258,-0.3108 2.02628,-1.3792 3.9295,-2.3745 3.35805,-1.7557 3.47815,-1.779 4.05865,-0.7877 1.1593,1.9798 3.56734,3.897 5.57238,4.4371 5.16017,1.3893 10.326,-2.613 10.326,-8.0006 l 0,-1.8666 5.1196804,0 5.11968,0 0.33572,2.5309 c 0.83834,6.3195 6.74756,9.6098 12.23314,6.8112 1.1114896,-0.5669 2.4361596,-1.734 2.9437296,-2.5932 0.50757,-0.8594 1.13161,-1.5624 1.38676,-1.5624 0.62039,0 6.01231,2.9107 7.48818,4.0423 l 1.17397,0.9 -1.11592,2.6412 c -1.8002,4.2609 -0.32542,8.5181 3.65417,10.5486 2.58437,1.3181 4.96436,1.3448 7.43975,0.082 2.20766,-1.1256 2.07755,-1.2228 4.67985,3.498 l 1.81952,3.301 -2.22702,2.1447 c -5.60629,5.4 -3.21431,13.1486 4.50605,14.5971 1.64134,0.3077 1.92167,0.5829 2.22116,2.1792 0.1885,1.005 0.18319,3.3169 -0.0119,5.1379 -0.34598,3.2306 -0.39123,3.3108 -1.86674,3.3108 -3.61794,0 -7.34857,3.0308 -7.9991,6.4984 -0.59847,3.1903 0.18745,5.497 2.69156,7.9002 2.60448,2.4992 2.66444,2.0039 -0.93469,7.7232 l -2.00802,3.1907 -2.50469,-1.0582 c -2.92125,-1.2341 -5.22068,-1.0036 -7.9111,0.7937 -3.25914,2.177 -4.50811,6.8804 -2.73674,10.3058 0.45215,0.8742 0.6272,1.7749 0.38898,2.0012 -0.23822,0.2264 -2.03688,1.2867 -3.99703,2.3565 -3.39341,1.8521 -3.59025,1.8977 -4.11447,0.9553 -1.07507,-1.933 -3.3283696,-3.7576 -5.4104796,-4.3816 -5.28826,-1.5843 -10.50972,2.2782 -10.50972,7.7743 l 0,2.1005 -5.18651,0 c -2.8525804,0 -5.1982304,-0.059 -5.2125804,-0.1302 z m 13.83937039,-26.3804 c 10.59991961,-3.2742 18.34301961,-13.9772 18.34301961,-25.355 0,-7.2003 -2.63958,-13.5239 -7.84798,-18.8012 -10.39085961,-10.5284 -26.45396,-10.7837 -37.25719,-0.5925 -5.7053,5.382 -8.31581,11.4825 -8.31581,19.4332 0,11.9602 7.32205,21.8382 18.93073,25.539 4.96873,1.584 10.5447004,1.5069 16.14723039,-0.2235 z"
       style="fill:#185daf;fill-opacity:0.99215686" />
    <rect
       style="opacity:0.98999999;fill:#000000;fill-opacity:0;stroke:#363636;stroke-width:7.08661509;stroke-linecap:round;stroke-linejoin:round;stroke-miterlimit:4;stroke-dasharray:none;stroke-dashoffset:0;stroke-opacity:1"
       id="rect13433"
       width="342.91339"
       height="342.91339"
       x="805.0647"
       y="186.10858"
       ry="44.374783"
       transform="matrix(0,1,-1,0,0,0)" />
    <path
       style="fill:#185daf;fill-opacity:0.99215686"
       d="m -440.14975,1095.3054 c -0.28527,-0.09 -2.16241,-0.434 -4.17146,-0.7648 l -3.65281,-0.6018 0.20187,-1.7293 c 0.28951,-2.4797 -1.5264,-6.2565 -3.62298,-7.5351 -3.84346,-2.3443 -8.00031,-1.8251 -10.78557,1.3471 l -1.64044,1.8682 -4.24247,-2.6113 c -2.33336,-1.4363 -4.19407,-2.9219 -4.1349,-3.3012 0.0593,-0.3791 0.38606,-1.6325 0.72643,-2.785 2.06533,-6.9933 -5.11422,-12.9449 -11.61647,-9.6298 l -1.92545,0.9817 -1.46076,-1.8893 c -0.80342,-1.0392 -2.00432,-2.6737 -2.66869,-3.632 l -1.20794,-1.7427 1.69456,-1.3261 c 3.13873,-2.4564 4.02434,-6.9509 2.05277,-10.418 -1.7711,-3.1147 -3.34531,-3.9604 -7.37057,-3.9604 l -3.51582,0 -0.53694,-2.0747 c -0.2953,-1.1413 -0.75406,-2.8915 -1.01947,-3.89 -0.87371,-3.2866 -0.67154,-3.813 1.86621,-4.8565 3.49503,-1.4374 5.16587,-3.9092 5.16587,-7.6423 0,-2.2055 -0.27913,-3.3585 -1.06935,-4.4169 -1.51342,-2.0269 -3.44326,-3.3575 -5.47746,-3.7762 -1.96709,-0.4048 -1.95379,-0.3036 -0.912,-6.9261 l 0.55075,-3.501 2.59767,0 c 3.37138,0 5.90021,-1.2374 7.51494,-3.6774 2.42267,-3.661 1.35754,-9.18502 -2.19433,-11.38022 l -1.7319,-1.0702 1.58796,-2.698 c 1.28231,-2.1788 2.57907,-4.1953 3.84267,-5.9759 0.0648,-0.091 1.0646,0.3173 2.22191,0.9077 3.44661,1.7583 6.72958,1.271 9.58848,-1.4232 0.81316,-0.7662 1.70642,-1.9768 1.985,-2.6898 0.85822,-2.197 0.59512,-5.5929 -0.58876,-7.5994 -0.60587,-1.0271 -1.03375,-1.922 -0.95087,-1.9891 0.0828,-0.067 1.64119,-1.2088 3.46284,-2.5378 l 3.31208,-2.4159 1.87442,2.03 c 4.11256,4.4535 10.5547,3.7165 13.51239,-1.546 0.9901,-1.7615 1.15122,-2.629 0.91445,-4.923 l -0.28739,-2.7848 2.61629,-0.7771 c 1.43895,-0.4272 3.7556,-0.9278 5.14815,-1.1126 2.41421,-0.3204 2.53191,-0.2786 2.53376,0.8978 0.006,3.405 3.88962,6.6744 7.93323,6.6777 4.20952,0 7.33486,-2.3794 8.34903,-6.365 l 0.57193,-2.2476 4.55782,0.6584 c 2.50678,0.3619 4.7541,0.7795 4.99406,0.9278 0.23993,0.1483 0.33271,1.2651 0.2062,2.482 -0.16931,1.6284 0.0868,2.828 0.97044,4.5442 3.00886,5.8445 10.4475,6.1785 14.22065,0.6386 l 1.09124,-1.6024 3.05796,1.8394 c 1.68187,1.0118 3.7028,2.2975 4.49099,2.8572 l 1.43302,1.0174 -1.15518,1.6225 c -1.58765,2.2296 -1.58186,6.2012 0.013,8.7816 2.42194,3.9186 8.07342,5.0989 11.67312,2.4374 l 1.56797,-1.1592 1.70792,2.0283 c 0.93935,1.1153 2.10585,2.7639 2.59224,3.6628 0.88061,1.6281 0.87745,1.6421 -0.74959,3.2689 -2.86226,2.8625 -3.28742,6.7415 -1.12799,10.29272 1.54034,2.5328 3.89345,3.7302 7.33498,3.7324 l 2.93901,0 1.08051,4.6025 c 1.30965,5.5781 1.31538,5.77 0.17289,5.7726 -1.47303,0 -4.20991,1.9345 -5.31897,3.7535 -1.45775,2.391 -1.39447,6.4409 0.13673,8.745 0.97639,1.4694 3.91164,3.4566 6.2628,4.2403 0.51422,0.1714 -0.27635,7.5063 -1.0171,9.4366 -0.16268,0.4241 -1.19429,0.6727 -2.79043,0.6727 -3.20752,0 -5.88758,1.5848 -7.2731,4.3004 -1.86476,3.6553 -1.19839,7.2583 1.87918,10.1607 l 1.82196,1.7184 -1.43292,2.4729 c -0.7881,1.3599 -2.03343,3.3132 -2.7674,4.3403 l -1.33448,1.8676 -1.79802,-0.9919 c -2.24504,-1.2385 -6.18626,-1.0107 -8.19012,0.4735 -3.66946,2.7177 -4.81706,7.4275 -2.66848,10.9517 l 1.0492,1.7208 -1.1808,0.9968 c -0.64946,0.5481 -2.30151,1.7312 -3.67128,2.6292 l -2.49043,1.6326 -1.39944,-1.3046 c -2.09112,-1.9495 -3.39853,-2.4688 -6.2158,-2.4688 -4.68787,0 -8.1422,3.6251 -8.14725,8.5501 l -0.002,2.5853 -3.11189,0.8331 c -1.71154,0.458 -3.97453,0.9699 -5.02888,1.1377 -1.80601,0.2869 -1.9493,0.2065 -2.47557,-1.3881 -0.57913,-1.7548 -2.55602,-3.9031 -4.52007,-4.9123 -1.5881,-0.8158 -5.1261,-0.7244 -6.87019,0.1774 -1.96459,1.0159 -4.17125,3.709 -4.53682,5.537 -0.28338,1.4167 -1.22545,1.8032 -3.01963,1.2382 z m 17.05867,-35.5273 c 9.39191,-2.4019 17.93247,-9.2462 22.02266,-17.6485 3.13351,-6.4369 3.88105,-9.962 3.57262,-16.8462 -0.42839,-9.5621 -3.28775,-16.0958 -10.01398,-22.8827 -6.67997,-6.74002 -16.61999,-10.50902 -25.9675,-9.84562 -8.74044,0.6205 -15.48122,3.6852 -21.76422,9.89552 -7.17779,7.0947 -10.30556,14.4412 -10.26889,24.1196 0.0313,8.2751 1.76247,13.5427 6.77345,20.6106 7.54469,10.6421 22.55301,15.9461 35.64586,12.5973 z m 119.08707,-27.7647 c 0,-3.4558 -3.342,-7.1174 -7.1538,-7.8376 -3.4723,-0.6562 -8.3945,2.4364 -9.2401,5.8055 -0.3936,1.5682 -0.5281,1.5663 -5.9463,-0.088 l -4.4468,-1.3568 0.2319,-2.7964 c 0.2748,-3.3132 -0.4872,-5.4456 -2.5727,-7.2005 -3.45224,-2.905 -8.25141,-2.6528 -11.50863,0.6044 -2.07299,2.073 -2.10176,2.0665 -7.19647,-1.5928 -2.0504,-1.4729 -2.87083,-2.3737 -2.65043,-2.9109 1.58396,-3.8605 1.86123,-5.1032 1.53119,-6.8627 -0.41487,-2.2114 -2.37392,-4.761 -4.5049,-5.863 -2.13463,-1.1038 -6.12591,-0.9653 -8.00306,0.278 -0.85577,0.5667 -1.69658,1.0319 -1.86842,1.0339 -0.17187,0 -1.43578,-1.4263 -2.8087,-3.174 -1.70565,-2.17082 -2.34584,-3.37992 -2.02143,-3.81692 2.04666,-2.7583 2.49725,-3.7899 2.68651,-6.1494 0.24971,-3.1136 -1.00427,-5.4436 -4.03939,-7.5062 -1.49402,-1.0152 -2.30078,-1.1906 -4.70867,-1.0221 l -2.90577,0.2032 -1.63244,-4.3171 c -0.89784,-2.3744 -1.63242,-4.6394 -1.63242,-5.0333 0,-0.3937 0.8276,-1.2043 1.8391,-1.8011 1.95229,-1.1519 3.83443,-4.4804 3.85467,-6.8168 0.0178,-2.057 -2.14358,-5.8174 -4.08485,-7.1075 -0.96929,-0.6441 -2.51043,-1.1713 -3.42479,-1.1713 l -1.66247,0 -0.33544,-3.968 c -0.58102,-6.8734 -0.6506,-6.6241 2.05023,-7.3464 5.85894,-1.5671 8.29694,-8.5931 4.53371,-13.0654 -0.73579,-0.8745 -2.03281,-1.9494 -2.88227,-2.3885 -1.39986,-0.7239 -1.51237,-0.9703 -1.20112,-2.6293 0.1889,-1.007 0.78897,-3.2729 1.33349,-5.0361 l 0.99007,-3.2053 2.80143,0 c 7.40116,0 11.18398,-8.2351 6.27753,-13.666 l -1.76398,-1.9526 2.9131,-4.2579 c 2.21389,-3.2361 3.11319,-4.1707 3.74675,-3.8946 0.45853,0.1999 1.91124,0.6019 3.22824,0.8935 2.11644,0.4684 2.68877,0.384 4.9272,-0.7254 4.37572,-2.1687 6.01368,-6.8248 3.87596,-11.0178 l -0.99059,-1.943 3.40702,-2.5792 3.40701,-2.5792 1.8237,1.8237 c 3.46967,3.4697 8.26206,3.5906 11.576,0.2921 2.50018,-2.4887 3.31746,-5.4139 2.32072,-8.3071 -0.65659,-1.9058 -0.64434,-2.1688 0.11954,-2.5682 1.09795,-0.5742 8.31397,-3.1616 8.81687,-3.1616 0.211,0 0.6748,0.8052 1.0307,1.7896 1.3349,3.6915 6.1457,6.0976 9.8384,4.9204 3.7519,-1.1961 6.7022,-5.4396 6.2177,-8.943 -0.1519,-1.0992 0.023,-1.1433 5.0894,-1.2853 l 5.2468,-0.1469 0.2597,2.3038 c 0.3341,2.9642 2.0753,5.38 4.755,6.597 2.6771,1.2158 4.1678,1.2158 6.845,0 2.2685,-1.0303 4.0678,-3.1239 4.6383,-5.3969 0.1925,-0.767 0.5942,-1.3947 0.8925,-1.3947 0.2984,0 2.6109,0.6208 5.139,1.3796 4.2144,1.2647 4.5634,1.4695 4.1988,2.4635 -0.7397,2.0166 -0.3438,6.0069 0.7414,7.4721 1.8141,2.4492 4.2131,3.7257 7.0025,3.7257 3.0323,0 5.0503,-0.9462 6.8081,-3.1922 l 1.2966,-1.6568 3.2872,2.173 c 5.7089,3.7742 5.4077,3.3563 4.0274,5.5895 -2.5028,4.0497 -0.8286,9.8224 3.4357,11.846 2.5295,1.2002 6.2519,0.8669 8.544,-0.7653 l 1.7016,-1.2116 1.2559,1.5182 c 0.6907,0.8349 1.8334,2.3637 2.5394,3.3975 l 1.2837,1.8795 -1.5395,1.5394 c -3.289,3.2889 -3.1722,8.678 0.2582,11.9132 2.0146,1.9002 4.343,2.5109 7.6695,2.0122 l 2.2832,-0.3425 1.6032,4.1571 c 0.8817,2.2864 1.6025,4.4565 1.6018,4.8224 -5e-4,0.3657 -0.8688,1.1318 -1.9289,1.7023 -7.2984,3.9277 -4.7702,15.2711 3.4516,15.4866 l 1.9729,0.053 0.34,4.8373 c 0.187,2.6605 0.2039,5.0576 0.038,5.3267 -0.1664,0.2693 -0.7985,0.4893 -1.4047,0.4893 -1.9101,0 -5.2716,1.9885 -6.5465,3.8721 -1.4726,2.176 -1.653,6.0156 -0.3968,8.4449 0.8887,1.7185 2.9399,3.3897 4.9135,4.0029 1.0689,0.3322 1.1742,0.5969 0.8739,2.1974 -0.1878,1.0007 -0.7903,3.2729 -1.3391,5.0496 l -0.9976,3.2301 -2.7869,-0.2311 c -5.1014,-0.4231 -8.5753,2.3457 -9.0424,7.2069 -0.296,3.08 0.507,5.1695 2.7399,7.1299 l 1.6862,1.4807 -2.7768,4.0925 c -1.5272,2.2509 -2.9566,4.0779 -3.1764,4.0596 -0.2198,-0.018 -1.3262,-0.451 -2.4586,-0.9619 -5.2734,-2.3805 -10.9989,1.0362 -11.5623,6.89932 -0.1962,2.042 -0.012,3.0167 0.8504,4.4769 0.6057,1.0266 1.1013,2.0635 1.1013,2.3043 0,0.2411 -1.4367,1.5058 -3.1926,2.8105 l -3.1924,2.3724 -1.9631,-1.7735 c -3.3003,-2.9814 -7.5295,-3.0851 -10.9471,-0.268 -2.7181,2.2404 -3.6058,5.8045 -2.4463,9.8218 0.1547,0.536 -1.0542,1.2409 -4.1911,2.4435 -5.0177,1.9236 -5.7051,2.0383 -5.7051,0.9537 0,-1.5327 -3.5467,-4.7704 -5.9684,-5.4484 -2.017,-0.5647 -2.6581,-0.5333 -4.6538,0.2289 -3.4558,1.3198 -6.372,5.5034 -5.8749,8.4283 0.1441,0.8478 -0.3568,0.9531 -5.1566,1.0866 l -5.3161,0.148 0,-1.3355 z m 15.7585,-32.66772 c 11.9351,-3.1059 22.4848,-10.1297 29.9268,-19.9245 3.5813,-4.7135 7.4681,-12.8121 9.1144,-18.9911 1.2193,-4.5768 1.3786,-6.133 1.3786,-13.4728 0,-7.3397 -0.1593,-8.8961 -1.3786,-13.4727 -5.0972,-19.1315 -19.9064,-33.9419 -38.8645,-38.8676 -28.9939,-7.5333 -58.25685,9.7332 -66.11014,39.0078 -1.18878,4.4315 -1.35042,6.0273 -1.35042,13.3325 0,7.305 0.16164,8.901 1.35042,13.3324 5.68491,21.1918 22.17944,36.2681 43.91014,40.13532 5.9263,1.0546 15.656,0.5777 22.0233,-1.07932 z m -20.945,-3.7326 c -19.0514,-3.1641 -34.67558,-17.0156 -39.96494,-35.4303 -1.59719,-5.5607 -1.97994,-16.9002 -0.77169,-22.8632 3.70448,-18.2823 17.39693,-32.9514 35.31873,-37.8376 5.8202,-1.5867 16.0385,-1.9515 22.1985,-0.7918 18.2166,3.4287 33.1223,17.1648 38.3068,35.3009 1.0265,3.5906 1.1861,5.3356 1.1861,12.9662 0,7.6304 -0.1596,9.3754 -1.1861,12.9663 -5.201,18.1937 -19.9873,31.7906 -38.4066,35.3175 -3.4806,0.6664 -13.5555,0.891 -16.6808,0.372 z m 18.8421,-16.4116 c 5.0473,-1.832 8.9394,-4.3152 12.7734,-8.1491 13.4701,-13.47 13.4701,-34.7202 0,-48.1903 -3.7785,-3.7783 -7.5915,-6.2301 -12.8188,-8.2423 -3.2047,-1.2337 -4.146,-1.346 -11.2763,-1.346 -7.1303,0 -8.0716,0.1123 -11.2763,1.346 -5.3626,2.0642 -9.0874,4.4918 -13.1837,8.5923 -6.2522,6.2585 -9.63571,14.5775 -9.65787,23.7452 -0.0356,14.7188 9.37507,27.8062 23.33487,32.4519 6.5751,2.1879 15.742,2.1018 22.1047,-0.2077 z m -149.04944,-18.111 c -0.0145,-0.07 -0.11218,-1.1261 -0.21744,-2.3439 -0.47155,-5.456 -4.85612,-8.7123 -10.34485,-7.6825 -1.80482,0.3384 -5.07596,2.9376 -5.60218,4.4508 -0.22204,0.6386 -0.86343,0.4749 -3.57993,-0.9149 -1.82021,-0.9311 -3.83774,-2.1015 -4.48343,-2.6008 l -1.17394,-0.9078 1.11593,-2.6412 c 0.78397,-1.8556 1.01701,-3.1647 0.78344,-4.4009 -1.07965,-5.7147 -7.50093,-8.9959 -12.10789,-6.1869 l -1.66475,1.0152 -0.99164,-1.406 c -1.666,-2.3622 -3.87274,-7.0595 -3.39262,-7.2217 3.60211,-1.2172 6.23799,-5.4214 5.63533,-8.9885 -0.71579,-4.2368 -4.20578,-7.2384 -8.41613,-7.2384 l -2.21234,0 0.007,-4.0196 c 0.01,-5.9387 0.19521,-6.3534 2.8293,-6.3534 5.70747,0 9.90648,-6.8447 7.29594,-11.8929 -0.75007,-1.4506 -3.30287,-3.897 -4.47354,-4.2873 -0.68555,-0.2285 0.8057,-3.455 3.23843,-7.0063 l 1.49414,-2.1817 1.88832,1.1143 c 4.13972,2.4425 9.46842,0.8644 11.54146,-3.4179 1.34554,-2.7795 1.35826,-4.7452 0.0473,-7.3166 -0.63882,-1.2531 -0.84958,-2.2278 -0.55774,-2.5793 0.258,-0.3108 2.02628,-1.3792 3.9295,-2.3745 3.35805,-1.7557 3.47815,-1.779 4.05865,-0.7877 1.1593,1.9798 3.56734,3.897 5.57238,4.4371 5.16017,1.3893 10.326,-2.613 10.326,-8.0006 l 0,-1.8666 5.11968,0 5.11968,0 0.33572,2.5309 c 0.83834,6.3195 6.74756,9.6098 12.23314,6.8112 1.11149,-0.5669 2.43616,-1.734 2.94373,-2.5932 0.50757,-0.8594 1.13161,-1.5624 1.38676,-1.5624 0.62039,0 6.01231,2.9107 7.48818,4.0423 l 1.17397,0.9 -1.11592,2.6412 c -1.8002,4.2609 -0.32542,8.5181 3.65417,10.5486 2.58437,1.3181 4.96436,1.3448 7.43975,0.082 2.20766,-1.1256 2.07755,-1.2228 4.67985,3.498 l 1.81952,3.301 -2.22702,2.1447 c -5.60629,5.4 -3.21431,13.1486 4.50605,14.5971 1.64134,0.3077 1.92167,0.5829 2.22116,2.1792 0.1885,1.005 0.18319,3.3169 -0.0119,5.1379 -0.34598,3.2306 -0.39123,3.3108 -1.86674,3.3108 -3.61794,0 -7.34857,3.0308 -7.9991,6.4984 -0.59847,3.1903 0.18745,5.497 2.69156,7.9002 2.60448,2.4992 2.66444,2.0039 -0.93469,7.7232 l -2.00802,3.1907 -2.50469,-1.0582 c -2.92125,-1.2341 -5.22068,-1.0036 -7.9111,0.7937 -3.25914,2.177 -4.50811,6.8804 -2.73674,10.3058 0.45215,0.8742 0.6272,1.7749 0.38898,2.0012 -0.23822,0.2264 -2.03688,1.2867 -3.99703,2.3565 -3.39341,1.8521 -3.59025,1.8977 -4.11447,0.9553 -1.07507,-1.933 -3.32837,-3.7576 -5.41048,-4.3816 -5.28826,-1.5843 -10.50972,2.2782 -10.50972,7.7743 l 0,2.1005 -5.18651,0 c -2.85258,0 -5.19823,-0.059 -5.21258,-0.1302 z m 13.83937,-26.3804 c 10.59992,-3.2742 18.34302,-13.9772 18.34302,-25.355 0,-7.2003 -2.63958,-13.5239 -7.84798,-18.8012 -10.39086,-10.5284 -26.45396,-10.7837 -37.25719,-0.5925 -5.7053,5.382 -8.31581,11.4825 -8.31581,19.4332 0,11.9602 7.32205,21.8382 18.93073,25.539 4.96873,1.584 10.5447,1.5069 16.14723,-0.2235 z"
       id="path13435"
       inkscape:connector-curvature="0" />
  </g>
</svg>
