<?xml version="1.0" encoding="UTF-8" standalone="no"?>
<!-- Created with Inkscape (http://www.inkscape.org/) -->

<svg
   xmlns:dc="http://purl.org/dc/elements/1.1/"
   xmlns:cc="http://creativecommons.org/ns#"
   xmlns:rdf="http://www.w3.org/1999/02/22-rdf-syntax-ns#"
   xmlns:svg="http://www.w3.org/2000/svg"
   xmlns="http://www.w3.org/2000/svg"
   xmlns:xlink="http://www.w3.org/1999/xlink"
   xmlns:sodipodi="http://sodipodi.sourceforge.net/DTD/sodipodi-0.dtd"
   xmlns:inkscape="http://www.inkscape.org/namespaces/inkscape"
   width="558.77777mm"
   height="257.95111mm"
   viewBox="0 0 1979.9213 913.99999"
   id="svg2"
   version="1.1"
   inkscape:version="0.91 r13725"
   sodipodi:docname="spline_agv0.svg">
  <defs
     id="defs4">
    <linearGradient
       inkscape:collect="always"
       id="linearGradient8153">
      <stop
         style="stop-color:#195eaf;stop-opacity:1;"
         offset="0"
         id="stop8155" />
      <stop
         style="stop-color:#195eaf;stop-opacity:0;"
         offset="1"
         id="stop8157" />
    </linearGradient>
    <linearGradient
       inkscape:collect="always"
       xlink:href="#linearGradient8153"
       id="linearGradient8159"
       x1="110.48244"
       y1="270.85004"
       x2="1103.0299"
       y2="283.70718"
       gradientUnits="userSpaceOnUse"
       gradientTransform="translate(-112.85715,1288.5715)" />
  </defs>
  <sodipodi:namedview
     id="base"
     pagecolor="#ffffff"
     bordercolor="#666666"
     borderopacity="1.0"
     inkscape:pageopacity="0.0"
     inkscape:pageshadow="2"
     inkscape:zoom="0.35"
     inkscape:cx="889.40137"
     inkscape:cy="404.41986"
     inkscape:document-units="px"
     inkscape:current-layer="layer1"
     showgrid="false"
     fit-margin-top="0"
     fit-margin-left="0"
     fit-margin-right="0"
     fit-margin-bottom="0"
     inkscape:window-width="1920"
     inkscape:window-height="1056"
     inkscape:window-x="0"
     inkscape:window-y="24"
     inkscape:window-maximized="1" />
  <metadata
     id="metadata7">
    <rdf:RDF>
      <cc:Work
         rdf:about="">
        <dc:format>image/svg+xml</dc:format>
        <dc:type
           rdf:resource="http://purl.org/dc/dcmitype/StillImage" />
        <dc:title></dc:title>
      </cc:Work>
    </rdf:RDF>
  </metadata>
  <g
     inkscape:label="Layer 1"
     inkscape:groupmode="layer"
     id="layer1"
     transform="translate(552.73604,92.751515)">
    <path
       style="fill:none;fill-rule:evenodd;stroke:#75a236;stroke-width:21.25984192;stroke-linecap:round;stroke-linejoin:miter;stroke-miterlimit:4;stroke-dasharray:none;stroke-opacity:1"
       d="m -724.73437,2102.6511 c 507.5229,0 244.11423,-347.479 703.227165,-339.4112"
       id="path8149"
       inkscape:connector-curvature="0"
       sodipodi:nodetypes="cc" />
    <path
       sodipodi:nodetypes="czc"
       inkscape:connector-curvature="0"
       id="path8151"
       d="M 8.4063611,1742.6031 C 668.10877,1780.6515 325.31186,1350.953 518.13435,1374.7617 c 192.8225,23.8087 197.0706,35.573 197.0706,35.573"
       style="fill:none;fill-rule:evenodd;stroke:url(#linearGradient8159);stroke-width:21.25984192;stroke-linecap:round;stroke-linejoin:miter;stroke-miterlimit:4;stroke-dasharray:42.51968384, 42.51968384;stroke-dashoffset:0;stroke-opacity:1" />
    <rect
       style="opacity:1;fill:#282828;fill-opacity:1;stroke:#141414;stroke-width:10.62992191;stroke-linecap:round;stroke-linejoin:round;stroke-miterlimit:4;stroke-dasharray:none;stroke-dashoffset:0;stroke-opacity:1"
       id="rect8102"
       width="239.37009"
       height="139.37009"
       x="56.909607"
       y="74.563438"
       ry="15.067038" />
    <rect
       ry="15.067038"
       y="74.563438"
       x="317.53955"
       height="139.37009"
       width="239.37009"
       id="rect8104"
       style="opacity:1;fill:#282828;fill-opacity:1;stroke:#141414;stroke-width:10.62992191;stroke-linecap:round;stroke-linejoin:round;stroke-miterlimit:4;stroke-dasharray:none;stroke-dashoffset:0;stroke-opacity:1" />
    <rect
       style="opacity:1;fill:#282828;fill-opacity:1;stroke:#141414;stroke-width:10.62992191;stroke-linecap:round;stroke-linejoin:round;stroke-miterlimit:4;stroke-dasharray:none;stroke-dashoffset:0;stroke-opacity:1"
       id="rect8106"
       width="239.37009"
       height="139.37009"
       x="578.16949"
       y="74.563438"
       ry="15.067038" />
    <rect
       ry="15.067038"
       y="-87.436569"
       x="56.909607"
       height="139.37009"
       width="239.37009"
       id="rect8114"
       style="opacity:1;fill:#282828;fill-opacity:1;stroke:#141414;stroke-width:10.62992191;stroke-linecap:round;stroke-linejoin:round;stroke-miterlimit:4;stroke-dasharray:none;stroke-dashoffset:0;stroke-opacity:1" />
    <rect
       style="opacity:1;fill:#282828;fill-opacity:1;stroke:#141414;stroke-width:10.62992191;stroke-linecap:round;stroke-linejoin:round;stroke-miterlimit:4;stroke-dasharray:none;stroke-dashoffset:0;stroke-opacity:1"
       id="rect8116"
       width="239.37009"
       height="139.37009"
       x="317.53955"
       y="-87.436569"
       ry="15.067038" />
    <rect
       ry="15.067038"
       y="-87.436569"
       x="578.16949"
       height="139.37009"
       width="239.37009"
       id="rect8118"
       style="opacity:1;fill:#282828;fill-opacity:1;stroke:#141414;stroke-width:10.62992191;stroke-linecap:round;stroke-linejoin:round;stroke-miterlimit:4;stroke-dasharray:none;stroke-dashoffset:0;stroke-opacity:1" />
    <rect
       ry="15.067038"
       y="676.56348"
       x="56.909607"
       height="139.37009"
       width="239.37009"
       id="rect8120"
       style="opacity:1;fill:#282828;fill-opacity:1;stroke:#141414;stroke-width:10.62992191;stroke-linecap:round;stroke-linejoin:round;stroke-miterlimit:4;stroke-dasharray:none;stroke-dashoffset:0;stroke-opacity:1" />
    <rect
       style="opacity:1;fill:#282828;fill-opacity:1;stroke:#141414;stroke-width:10.62992191;stroke-linecap:round;stroke-linejoin:round;stroke-miterlimit:4;stroke-dasharray:none;stroke-dashoffset:0;stroke-opacity:1"
       id="rect8122"
       width="239.37009"
       height="139.37009"
       x="317.53955"
       y="676.56348"
       ry="15.067038" />
    <rect
       ry="15.067038"
       y="676.56348"
       x="578.16949"
       height="139.37009"
       width="239.37009"
       id="rect8124"
       style="opacity:1;fill:#282828;fill-opacity:1;stroke:#141414;stroke-width:10.62992191;stroke-linecap:round;stroke-linejoin:round;stroke-miterlimit:4;stroke-dasharray:none;stroke-dashoffset:0;stroke-opacity:1" />
    <rect
       style="opacity:1;fill:#282828;fill-opacity:1;stroke:#141414;stroke-width:10.62992191;stroke-linecap:round;stroke-linejoin:round;stroke-miterlimit:4;stroke-dasharray:none;stroke-dashoffset:0;stroke-opacity:1"
       id="rect8126"
       width="239.37009"
       height="139.37009"
       x="56.909607"
       y="514.56348"
       ry="15.067038" />
    <rect
       ry="15.067038"
       y="514.56348"
       x="317.53955"
       height="139.37009"
       width="239.37009"
       id="rect8128"
       style="opacity:1;fill:#282828;fill-opacity:1;stroke:#141414;stroke-width:10.62992191;stroke-linecap:round;stroke-linejoin:round;stroke-miterlimit:4;stroke-dasharray:none;stroke-dashoffset:0;stroke-opacity:1" />
    <rect
       style="opacity:1;fill:#282828;fill-opacity:1;stroke:#141414;stroke-width:10.62992191;stroke-linecap:round;stroke-linejoin:round;stroke-miterlimit:4;stroke-dasharray:none;stroke-dashoffset:0;stroke-opacity:1"
       id="rect8130"
       width="239.37009"
       height="139.37009"
       x="578.16949"
       y="514.56348"
       ry="15.067038" />
    <rect
       ry="15.067038"
       y="74.563438"
       x="1182.5002"
       height="139.37009"
       width="239.37009"
       id="rect8148"
       style="opacity:1;fill:#282828;fill-opacity:1;stroke:#141414;stroke-width:10.62992191;stroke-linecap:round;stroke-linejoin:round;stroke-miterlimit:4;stroke-dasharray:none;stroke-dashoffset:0;stroke-opacity:1" />
    <rect
       style="opacity:1;fill:#282828;fill-opacity:1;stroke:#141414;stroke-width:10.62992191;stroke-linecap:round;stroke-linejoin:round;stroke-miterlimit:4;stroke-dasharray:none;stroke-dashoffset:0;stroke-opacity:1"
       id="rect8154"
       width="239.37009"
       height="139.37009"
       x="1182.5002"
       y="-87.436569"
       ry="15.067038" />
    <rect
       style="opacity:1;fill:#282828;fill-opacity:1;stroke:#141414;stroke-width:10.62992191;stroke-linecap:round;stroke-linejoin:round;stroke-miterlimit:4;stroke-dasharray:none;stroke-dashoffset:0;stroke-opacity:1"
       id="rect8160"
       width="239.37009"
       height="139.37009"
       x="1182.5002"
       y="676.56348"
       ry="15.067038" />
    <rect
       ry="15.067038"
       y="514.56348"
       x="1182.5002"
       height="139.37009"
       width="239.37009"
       id="rect8166"
       style="opacity:1;fill:#282828;fill-opacity:1;stroke:#141414;stroke-width:10.62992191;stroke-linecap:round;stroke-linejoin:round;stroke-miterlimit:4;stroke-dasharray:none;stroke-dashoffset:0;stroke-opacity:1" />
    <rect
       style="opacity:1;fill:#282828;fill-opacity:1;stroke:#141414;stroke-width:10.62992191;stroke-linecap:round;stroke-linejoin:round;stroke-miterlimit:4;stroke-dasharray:none;stroke-dashoffset:0;stroke-opacity:1"
       id="rect8178"
       width="239.37009"
       height="139.37009"
       x="-547.42108"
       y="74.563438"
       ry="15.067038" />
    <rect
       ry="15.067038"
       y="-87.436569"
       x="-547.42108"
       height="139.37009"
       width="239.37009"
       id="rect8184"
       style="opacity:1;fill:#282828;fill-opacity:1;stroke:#141414;stroke-width:10.62992191;stroke-linecap:round;stroke-linejoin:round;stroke-miterlimit:4;stroke-dasharray:none;stroke-dashoffset:0;stroke-opacity:1" />
    <rect
       ry="15.067038"
       y="676.56348"
       x="-547.42108"
       height="139.37009"
       width="239.37009"
       id="rect8190"
       style="opacity:1;fill:#282828;fill-opacity:1;stroke:#141414;stroke-width:10.62992191;stroke-linecap:round;stroke-linejoin:round;stroke-miterlimit:4;stroke-dasharray:none;stroke-dashoffset:0;stroke-opacity:1" />
    <rect
       style="opacity:1;fill:#282828;fill-opacity:1;stroke:#141414;stroke-width:10.62992191;stroke-linecap:round;stroke-linejoin:round;stroke-miterlimit:4;stroke-dasharray:none;stroke-dashoffset:0;stroke-opacity:1"
       id="rect8196"
       width="239.37009"
       height="139.37009"
       x="-547.42108"
       y="514.56348"
       ry="15.067038" />
    <path
       style="fill:none;fill-rule:evenodd;stroke:#75a236;stroke-width:21.25984383;stroke-linecap:round;stroke-linejoin:round;stroke-miterlimit:4;stroke-dasharray:none;stroke-opacity:1"
       d="m 105.45131,1928.2012 0,-294.2857 1118.57139,0 0,-420.2857"
       id="path8222"
       inkscape:connector-curvature="0"
       sodipodi:nodetypes="cccc" />
    <path
       style="fill:#d91a28;fill-opacity:1"
       d="m 1062.5424,30.158815 c -12.1792,-0.44592 -23.6424,-4.97128 -32.5892,-12.86547 -8.9839,-7.9268603 -14.9118,-18.54655 -16.9131,-30.29948 -0.5368,-3.15215 -0.6692,-4.86864 -0.6692,-8.67308 0,-3.71162 0.124,-5.38847 0.6235,-8.43104 2.6816,-16.336428 13.0367,-30.449358 27.8167,-37.911538 6.3887,-3.22557 13.1227,-5.03668 20.2886,-5.45665 2.6801,-0.15706 2.8789,-0.1605 4.734,-0.0819 11.2417,0.47627 21.0437,3.95896 29.8017,10.58862 3.5496,2.687 7.2903,6.44109 9.9901,10.02578 7.0813,9.40236 10.7259,20.685388 10.4493,32.348788 -0.1877,7.91519 -1.9328,15.02004 -5.393,21.95676 -3.6725,7.3621297 -8.7988,13.52029 -15.362,18.45423 -7.7661,5.83816 -17.1002,9.38331 -26.781,10.17157 -1.6145,0.13147 -4.7027,0.22078 -5.9964,0.17341 z m 4.6438,-17.35101 c 6.8324,-0.57462 13.3393,-3.2009703 18.8191,-7.59586 1.1534,-0.92497 3.3599,-3.06504 4.3939,-4.26158 5.1192,-5.92357 8.0281,-13.219 8.3798,-21.01652 0.4437,-9.83612 -3.1448,-19.14592 -10.0418,-26.051188 -3.9198,-3.92458 -8.4263,-6.72498 -13.5631,-8.42823 -11.2668,-3.73586 -23.4287,-1.56048 -32.6949,5.84808 -1.2718,1.01689 -3.4398,3.1095 -4.5433,4.38523 -4.4926,5.194258 -7.3456,11.663658 -8.1715,18.530238 -0.2075,1.72469 -0.2744,4.90682 -0.1395,6.64243 0.5983,7.70284 3.5551,14.67746 8.6713,20.45412 7.2356,8.1697297 17.9109,12.41665 28.89,11.49328 z m -5.4553,-16.90402 c -2.9862,-0.40829 -5.953,-1.65688 -8.4311,-3.54818 -0.2975,-0.22712 -0.9811,-0.84035 -1.5191,-1.36273 -4.0952,-3.97689 -5.9871,-9.62376 -5.1491,-15.36904 0.8271,-5.67041 4.5663,-10.7664 9.7341,-13.26638 6.958,-3.366018 15.2533,-1.92299 20.5626,3.57701 1.4575,1.50976 2.347,2.77971 3.2444,4.63157 1.2327,2.54389 1.7518,4.83413 1.755,7.74318 0.01,3.64746 -0.956,6.8416 -2.9572,9.84027 -2.8474,4.26654 -7.2478,7.02417 -12.3704,7.75216 -1.1562,0.16431 -3.675,0.16542 -4.8692,0.002 z"
       id="path8248"
       inkscape:connector-curvature="0" />
    <path
       style="opacity:1;fill:#ffcc72;fill-opacity:1;stroke:#646464;stroke-width:14.17322826;stroke-linecap:round;stroke-linejoin:round;stroke-miterlimit:4;stroke-dasharray:none;stroke-dashoffset:0;stroke-opacity:1"
       d="m 3.72872,682.21608 a 60.145097,33.703637 0 0 0 -60.14509,-33.70364 60.145097,33.703637 0 0 0 -60.1451,33.70364 l 0,77.03688 a 60.145097,33.703637 0 0 0 60.1451,33.70364 60.145097,33.703637 0 0 0 60.14509,-33.70364 l 0,-77.03688 z"
       id="rect8068"
       inkscape:connector-curvature="0" />
    <path
       style="fill:none;fill-rule:evenodd;stroke:#ffcc72;stroke-width:15.94488144;stroke-linecap:butt;stroke-linejoin:miter;stroke-miterlimit:4;stroke-dasharray:none;stroke-opacity:1"
       d="m 2.84289,762.37352 c 0,-83.278 0,-83.278 0,-83.278"
       id="path8101"
       inkscape:connector-curvature="0" />
    <path
       inkscape:connector-curvature="0"
       id="path8103"
       d="m -115.67564,762.37352 c 0,-83.278 0,-83.278 0,-83.278"
       style="fill:none;fill-rule:evenodd;stroke:#ffcc72;stroke-width:15.94488144;stroke-linecap:butt;stroke-linejoin:miter;stroke-miterlimit:4;stroke-dasharray:none;stroke-opacity:1" />
    <circle
       style="opacity:1;fill:#646464;fill-opacity:1;stroke:none;stroke-width:7.08699989;stroke-linecap:round;stroke-linejoin:round;stroke-miterlimit:4;stroke-dasharray:none;stroke-dashoffset:0;stroke-opacity:1"
       id="path8079"
       cx="-720.7345"
       cy="-56.41637"
       r="52.831234"
       transform="matrix(0,-1,1,0,0,0)" />
  </g>
</svg>
