<?xml version="1.0" encoding="UTF-8" standalone="no"?>
<!-- Created with Inkscape (http://www.inkscape.org/) -->

<svg
   xmlns:dc="http://purl.org/dc/elements/1.1/"
   xmlns:cc="http://creativecommons.org/ns#"
   xmlns:rdf="http://www.w3.org/1999/02/22-rdf-syntax-ns#"
   xmlns:svg="http://www.w3.org/2000/svg"
   xmlns="http://www.w3.org/2000/svg"
   xmlns:sodipodi="http://sodipodi.sourceforge.net/DTD/sodipodi-0.dtd"
   xmlns:inkscape="http://www.inkscape.org/namespaces/inkscape"
   width="248.81744mm"
   height="128.83835mm"
   viewBox="0 0 881.63664 456.51383"
   id="svg2"
   version="1.1"
   inkscape:version="0.91 r13725"
   sodipodi:docname="suboptimal_agv6.svg">
  <defs
     id="defs4" />
  <sodipodi:namedview
     id="base"
     pagecolor="#ffffff"
     bordercolor="#666666"
     borderopacity="1.0"
     inkscape:pageopacity="0.0"
     inkscape:pageshadow="2"
     inkscape:zoom="1.979899"
     inkscape:cx="677.88418"
     inkscape:cy="405.83272"
     inkscape:document-units="px"
     inkscape:current-layer="layer1"
     showgrid="false"
     fit-margin-top="0"
     fit-margin-left="0"
     fit-margin-right="0"
     fit-margin-bottom="0"
     inkscape:window-width="1920"
     inkscape:window-height="1056"
     inkscape:window-x="0"
     inkscape:window-y="24"
     inkscape:window-maximized="1" />
  <metadata
     id="metadata7">
    <rdf:RDF>
      <cc:Work
         rdf:about="">
        <dc:format>image/svg+xml</dc:format>
        <dc:type
           rdf:resource="http://purl.org/dc/dcmitype/StillImage" />
        <dc:title />
      </cc:Work>
    </rdf:RDF>
  </metadata>
  <g
     inkscape:label="Layer 1"
     inkscape:groupmode="layer"
     id="layer1"
     transform="translate(-39.737016,-65.973087)">
    <path
       style="fill:none;fill-rule:evenodd;stroke:#75a236;stroke-width:21.25984192;stroke-linecap:round;stroke-linejoin:miter;stroke-miterlimit:4;stroke-dasharray:none;stroke-opacity:1"
       d="m 120.58983,458.35792 c 507.52291,0 244.11424,-347.479 703.22717,-339.41128"
       id="path8149"
       inkscape:connector-curvature="0"
       sodipodi:nodetypes="cc" />
    <path
       style="fill:none;fill-rule:evenodd;stroke:#195eaf;stroke-width:21.26000127;stroke-linecap:round;stroke-linejoin:miter;stroke-miterlimit:4;stroke-dasharray:none;stroke-dashoffset:0;stroke-opacity:1;fill-opacity:1"
       d="m 691.12159,135.27737 c 50.70145,-19.84169 54.46351,-19.01613 131.66462,-15.47353"
       id="path8199"
       inkscape:connector-curvature="0"
       sodipodi:nodetypes="cc" />
    <g
       id="g8105"
       transform="matrix(0.95555283,-0.29481991,0.29481991,0.95555283,296.42017,-8.3563637)">
      <path
         inkscape:connector-curvature="0"
         id="rect8068"
         d="m 317.16825,306.22378 a 33.703637,60.145097 0 0 0 33.70364,-60.14509 33.703637,60.145097 0 0 0 -33.70364,-60.1451 l -77.03688,0 a 33.703637,60.145097 0 0 0 -33.70364,60.1451 33.703637,60.145097 0 0 0 33.70364,60.14509 l 77.03688,0 z"
         style="opacity:1;fill:#ffcc72;fill-opacity:1;stroke:#646464;stroke-width:14.17322826;stroke-linecap:round;stroke-linejoin:round;stroke-miterlimit:4;stroke-dasharray:none;stroke-dashoffset:0;stroke-opacity:1" />
      <path
         inkscape:connector-curvature="0"
         id="path8101"
         d="m 237.01081,305.33795 c 83.278,0 83.278,0 83.278,0"
         style="fill:none;fill-rule:evenodd;stroke:#ffcc72;stroke-width:15.94488144;stroke-linecap:butt;stroke-linejoin:miter;stroke-miterlimit:4;stroke-dasharray:none;stroke-opacity:1" />
      <path
         style="fill:none;fill-rule:evenodd;stroke:#ffcc72;stroke-width:15.94488144;stroke-linecap:butt;stroke-linejoin:miter;stroke-miterlimit:4;stroke-dasharray:none;stroke-opacity:1"
         d="m 237.01081,186.81942 c 83.278,0 83.278,0 83.278,0"
         id="path8103"
         inkscape:connector-curvature="0" />
      <circle
         r="52.831234"
         cy="246.07869"
         cx="278.64981"
         id="path8079"
         style="opacity:1;fill:#646464;fill-opacity:1;stroke:none;stroke-width:7.08699989;stroke-linecap:round;stroke-linejoin:round;stroke-miterlimit:4;stroke-dasharray:none;stroke-dashoffset:0;stroke-opacity:1" />
    </g>
    <path
       style="fill:#d91a28;fill-opacity:1"
       d="m 867.82659,169.74262 c -12.1792,-0.44592 -23.6424,-4.97128 -32.5892,-12.86547 -8.9839,-7.92686 -14.9118,-18.54655 -16.9131,-30.29948 -0.5368,-3.15215 -0.6692,-4.86864 -0.6692,-8.67308 0,-3.71162 0.124,-5.38847 0.6235,-8.43104 2.6816,-16.336428 13.0367,-30.449358 27.8167,-37.911538 6.3887,-3.22557 13.1227,-5.03668 20.2886,-5.45665 2.6801,-0.15706 2.8789,-0.1605 4.734,-0.0819 11.2417,0.47627 21.0437,3.95896 29.8017,10.58862 3.5496,2.687 7.2903,6.44109 9.9901,10.02578 7.0813,9.40236 10.7259,20.685388 10.4493,32.348788 -0.1877,7.91519 -1.9328,15.02004 -5.393,21.95676 -3.6725,7.36213 -8.7988,13.52029 -15.362,18.45423 -7.7661,5.83816 -17.1002,9.38331 -26.781,10.17157 -1.6145,0.13147 -4.7027,0.22078 -5.9964,0.17341 z m 4.6438,-17.35101 c 6.8324,-0.57462 13.3393,-3.20097 18.8191,-7.59586 1.1534,-0.92497 3.3599,-3.06504 4.3939,-4.26158 5.1192,-5.92357 8.0281,-13.219 8.3798,-21.01652 0.4437,-9.83612 -3.1448,-19.14592 -10.0418,-26.051188 -3.9198,-3.92458 -8.4263,-6.72498 -13.5631,-8.42823 -11.2668,-3.73586 -23.4287,-1.56048 -32.6949,5.84808 -1.2718,1.01689 -3.4398,3.1095 -4.5433,4.38523 -4.4926,5.194258 -7.3456,11.663658 -8.1715,18.530238 -0.2075,1.72469 -0.2744,4.90682 -0.1395,6.64243 0.5983,7.70284 3.5551,14.67746 8.6713,20.45412 7.2356,8.16973 17.9109,12.41665 28.89,11.49328 z m -5.4553,-16.90402 c -2.9862,-0.40829 -5.953,-1.65688 -8.4311,-3.54818 -0.2975,-0.22712 -0.9811,-0.84035 -1.5191,-1.36273 -4.0952,-3.97689 -5.9871,-9.62376 -5.1491,-15.36904 0.8271,-5.67041 4.5663,-10.7664 9.7341,-13.26638 6.958,-3.366018 15.2533,-1.92299 20.5626,3.57701 1.4575,1.50976 2.347,2.77971 3.2444,4.63157 1.2327,2.54389 1.7518,4.83413 1.755,7.74318 0.01,3.64746 -0.956,6.8416 -2.9572,9.84027 -2.8474,4.26654 -7.2478,7.02417 -12.3704,7.75216 -1.1562,0.16431 -3.675,0.16542 -4.8692,0.002 z"
       id="path8248"
       inkscape:connector-curvature="0" />
  </g>
</svg>
